<?xml version="1.0" encoding="UTF-8" standalone="no"?>
<svg width="1037px" height="35px" viewBox="0 0 1037 35" version="1.1" xmlns="http://www.w3.org/2000/svg" xmlns:xlink="http://www.w3.org/1999/xlink" xmlns:sketch="http://www.bohemiancoding.com/sketch/ns">
    <!-- Generator: Sketch 3.2.2 (9983) - http://www.bohemiancoding.com/sketch -->
    <title>finsep</title>
    <desc>Created with Sketch.</desc>
    <defs></defs>
    <g id="Page-1" stroke="none" stroke-width="1" fill="none" fill-rule="evenodd" sketch:type="MSPage">
        <g id="Post-Page" sketch:type="MSArtboardGroup" transform="translate(-282.000000, -5648.000000)" fill="#979797">
            <g id="sep" sketch:type="MSLayerGroup" transform="translate(282.000000, 5648.000000)">
                <g id="finsep" sketch:type="MSShapeGroup">
                    <path d="M566,20 L1036.10012,20 L1035.60012,21 L566,21 L566,20 Z M480,20 L337.499284,20 L336.999284,21 L480,21 L480,20 Z" id="Line"></path>
                    <path d="M566,23 L699.000732,23 L698.500732,24 L566,24 L566,23 Z M480,23 L1.39988221,23 L0.899882214,24 L480,24 L480,23 Z" id="Line-2"></path>
                    <path d="M524.12,18.952 L523.592,19.832 C522.359994,19.832 521.172006,19.9199991 520.028,20.096 C518.67866,24.6720229 516.390683,28.1479881 513.164,30.524 C509.937317,32.9000119 505.918691,34.088 501.108,34.088 C498.702655,34.088 496.678675,33.7066705 495.036,32.944 C492.894656,31.9173282 491.824,30.333344 491.824,28.192 C491.824,26.9599938 492.227329,25.9260042 493.034,25.09 C493.840671,24.2539958 494.859994,23.836 496.092,23.836 C498.233344,23.836 499.304,24.7306577 499.304,26.52 C499.304,27.4000044 498.864004,28.0159982 497.984,28.368 C497.22133,28.5440009 496.473337,28.7346656 495.74,28.94 C494.771995,29.2626683 494.288,29.7466634 494.288,30.392 C494.288,31.3306714 495.065326,32.0493308 496.62,32.548 C497.793339,32.9293352 498.966661,33.12 500.14,33.12 C503.484017,33.12 506.314655,31.8440128 508.632,29.292 C510.362675,27.4439908 511.961326,24.6720185 513.428,20.976 C512.019993,21.2400013 510.494675,21.8119956 508.852,22.692 C508.822667,22.7213335 507.414681,23.5426586 504.628,25.156 L504.408,25.068 C504.378667,24.9799996 504.349333,24.906667 504.32,24.848 C504.32,24.0266626 505.698653,23.0293392 508.456,21.856 C510.714678,20.8879952 512.489327,20.2866678 513.78,20.052 C514.54267,17.910656 515.921323,15.344015 517.916,12.352 C520.350679,8.62664804 522.315993,6.73466696 523.812,6.676 L523.988,6.764 L524.076,7.072 C522.961328,9.77068016 522.213335,11.7359938 521.832,12.968 C521.215997,14.9040097 520.732002,16.971989 520.38,19.172 C521.230671,19.113333 522.477325,19.0400004 524.12,18.952 L524.12,18.952 Z M504.408,19.92 C502.823992,19.92 501.518672,19.4726711 500.492,18.578 C499.465328,17.6833289 498.952,16.4586744 498.952,14.904 C498.952,13.5253264 499.406662,12.073341 500.316,10.548 C502.193343,7.40931764 504.862649,4.89400946 508.324,3.002 C511.785351,1.10999054 515.363982,0.164 519.06,0.164 C520.497341,0.164 522.550653,0.46466366 525.22,1.066 C527.889347,1.66733634 529.810661,1.968 530.984,1.968 C531.600003,1.968 532.743992,1.64533656 534.416,1 L534.68,1.088 L534.768,1.352 C534.768,2.32000484 534.064007,3.27332864 532.656,4.212 C531.365327,5.12133788 530.206672,5.576 529.18,5.576 C528.123995,5.576 525.982683,5.00400572 522.756,3.86 C519.529317,2.71599428 516.977343,2.144 515.1,2.144 C511.081313,2.144 507.209352,4.07998064 503.484,7.952 C501.107988,10.4160123 499.92,12.718656 499.92,14.86 C499.92,15.8280048 500.198664,16.6639965 500.756,17.368 C501.313336,18.0720035 502.061329,18.424 503,18.424 C505.376012,18.424 507.414658,17.3680106 509.116,15.256 C510.729341,13.2906568 511.536,11.0906788 511.536,8.656 C511.536,7.98132996 511.257336,7.644 510.7,7.644 C510.054663,7.644 509.380004,8.377326 508.676,9.844 C508.147997,10.9586722 507.796001,11.9706621 507.62,12.88 C506.974663,13.1733348 506.226671,13.6133304 505.376,14.2 C504.02666,15.1386714 503.322667,15.637333 503.264,15.696 C503.205333,15.4906656 503.146667,15.2706678 503.088,15.036 C503.088,12.6306546 503.71866,10.5040092 504.98,8.656 C506.388007,6.54398944 508.235989,5.488 510.524,5.488 C512.54801,5.488 513.56,6.85198636 513.56,9.58 L513.56,10.02 C513.56,12.6600132 512.702009,14.9699901 510.986,16.95 C509.269991,18.9300099 507.077347,19.92 504.408,19.92 L504.408,19.92 Z M532.924,13.012 C532.924,14.0386718 532.748002,14.720665 532.396,15.058 C532.043998,15.395335 531.354672,15.564 530.328,15.564 C529.154661,15.564 528.568,15.2706696 528.568,14.684 L528.568,12.748 C528.568,12.3666648 528.934663,11.9926685 529.668,11.626 C530.401337,11.2593315 530.987998,11.076 531.428,11.076 C532.425338,11.076 532.924,11.7213269 532.924,13.012 L532.924,13.012 Z M530.768,25.772 C530.768,27.0920066 529.726677,28.7786564 527.644,30.832 C525.561323,32.8853436 523.84534,33.912 522.496,33.912 C521.087993,33.912 520.384,32.9293432 520.384,30.964 C520.384,29.9079947 520.779996,28.6906736 521.572,27.312 L523.552,23.88 C523.786668,23.3519974 524.549327,21.592015 525.84,18.6 L530.504,18.6 C528.127988,22.7653542 526.368006,26.5199833 525.224,29.864 L525.664,30.172 C526.778672,29.7906648 527.71733,28.9986727 528.48,27.796 C529.301337,26.4466599 529.961331,25.6400013 530.46,25.376 L530.636,25.376 C530.724,25.4640004 530.768,25.5959991 530.768,25.772 L530.768,25.772 Z M552.568,27.62 C552.479999,28.2653366 551.886005,29.1966606 550.786,30.414 C549.685994,31.6313394 548.79867,32.4159982 548.124,32.768 C547.185329,33.2960026 545.968007,33.56 544.472,33.56 C542.477323,33.56 541.48,32.6360092 541.48,30.788 C541.48,30.2306639 542.125327,28.6906793 543.416,26.168 C544.706673,23.6453207 545.352,21.6360075 545.352,20.14 L545.352,19.568 L545.308,19.612 C545.249333,19.1133308 545.029335,18.864 544.648,18.864 L544.56,18.776 C544.119998,18.8053335 543.386672,19.3626612 542.36,20.448 C541.509329,21.3280044 540.878669,22.0759969 540.468,22.692 C539.675996,23.8653392 538.840004,25.6546546 537.96,28.06 C536.933328,30.8760141 536.214669,32.7093291 535.804,33.56 L530.348,33.912 L534.66,24.716 C534.894668,24.2759978 535.246664,23.6233377 535.716,22.758 C536.185336,21.8926623 536.42,21.2693352 536.42,20.888 C536.42,20.4186643 536.288001,20.184 536.024,20.184 C535.906666,20.184 535.459337,20.6093291 534.682,21.46 C533.904663,22.3106709 530.553334,27.5760003 530.348,27.5760003 C530.318666,27.5466668 527.5,29.5000001 527.5,29.5000001 C527.509052,29.4140083 527.667079,29.1477925 527.933767,28.7526567 C528.496676,27.918627 529.543694,26.5102292 530.695709,25.0099193 C532.5353,22.6141552 534.642623,19.9840229 535.474,19.084 C537.072675,17.3533247 538.135997,16.488 538.664,16.488 C539.984007,16.488 540.644,17.617322 540.644,19.876 C540.644,20.1400013 540.717333,20.272 540.864,20.272 C540.805333,20.272 541.531326,19.7953381 543.042,18.842 C544.552674,17.8886619 545.747996,17.412 546.628,17.412 C548.56401,17.412 549.532,18.3946568 549.532,20.36 C549.532,21.6213396 548.916006,23.5059875 547.684,26.014 C546.451994,28.5220125 545.836,29.8933322 545.836,30.128 C545.836,30.2746674 546.011998,30.4799987 546.364,30.744 C547.889341,30.744 549.311993,30.2160053 550.632,29.16 C551.042669,28.8079982 551.673329,28.2800035 552.524,27.576 L552.568,27.62 Z" id="Fin-2"></path>
                </g>
            </g>
        </g>
    </g>
</svg>