<svg width="1177px" height="18px" viewBox="0 0 1177 18" version="1.1" xmlns="http://www.w3.org/2000/svg" xmlns:xlink="http://www.w3.org/1999/xlink" xmlns:sketch="http://www.bohemiancoding.com/sketch/ns">
    <title>Line</title>
    <defs></defs>
    <g id="Page-1" stroke="none" stroke-width="1" fill="none" fill-rule="evenodd" sketch:type="MSPage">
        <g id="Post-Page" sketch:type="MSArtboardGroup" transform="translate(-204.000000, -2472.000000)" fill="#979797">
            <g id="sep" sketch:type="MSLayerGroup" transform="translate(204.000000, 2472.000000)">
                <path d="M615,10 L680.100118,10 L679.600118,11 L615,11 L615,10 L615,10 L615,10 Z M578,10 L1.39988221,10 L0.899882214,11 L578,11 L578,10 L578,10 Z M615,7 L1176.10012,7 L1175.60012,8 L615,8 L615,7 L615,7 L615,7 Z M578,7 L497.399882,7 L496.899882,8 L578,8 L578,7 L578,7 L578,7 Z M596.5,14.25 L590.91604,17.1856614 L591.982482,10.9678307 L587.464963,6.56433855 L593.70802,5.65716928 L596.5,0 L599.29198,5.65716928 L605.535037,6.56433855 L601.017518,10.9678307 L602.08396,17.1856614 L596.5,14.25 L596.5,14.25 Z" id="Line" sketch:type="MSShapeGroup"></path>
            </g>
        </g>
    </g>
</svg>