<?xml version="1.0" encoding="iso-8859-1"?>
<!-- Generator: Adobe Illustrator 19.0.0, SVG Export Plug-In . SVG Version: 6.00 Build 0)  -->
<svg version="1.1" id="Capa_1" xmlns="http://www.w3.org/2000/svg" xmlns:xlink="http://www.w3.org/1999/xlink" x="0px" y="0px"
	 viewBox="0 0 496 496" style="enable-background:new 0 0 496 496;" xml:space="preserve">
<path style="fill:#FFCB57;" d="M216,8C123.216,8,48,83.216,48,176h40v-24h14.24c47.592,0,93.624-17.024,129.76-48V8H216z"/>
<path style="fill:#E56565;" d="M320,184c-22.056,0-40,17.944-40,40s17.944,40,40,40s40-17.944,40-40S342.056,184,320,184z M344,224
	c0,3.696-0.904,7.152-2.408,10.28L331.312,224l10.28-10.28C343.096,216.848,344,220.304,344,224z M330.28,202.408L320,212.688
	l-10.28-10.28c3.128-1.504,6.584-2.408,10.28-2.408S327.152,200.904,330.28,202.408z M298.408,234.28
	C296.904,231.152,296,227.696,296,224s0.904-7.152,2.408-10.28l10.28,10.28L298.408,234.28z M309.72,245.592l10.28-10.28
	l10.28,10.28C327.152,247.096,323.696,248,320,248S312.848,247.096,309.72,245.592z"/>
<g>
	<path style="fill:#3F3A34;" d="M40,176h16c0-88.224,71.776-160,160-160h8v84.272C189.768,128.496,146.672,144,102.24,144H80v152
		c0,51.888,38.24,94.904,88,102.64V496h72v-80h-16v64h-40v-80h56V0h-24C118.952,0,40,78.952,40,176z M184,384
		c-48.52,0-88-39.48-88-88V160h6.24c43.84,0,86.48-13.928,121.76-39.504v214.368c-13.76-3.576-24-15.992-24-30.864h-16
		c0,23.736,17.336,43.448,40,47.28V384H184z"/>
	<path style="fill:#3F3A34;" d="M0,248c0,30.872,25.12,56,56,56h8V192h-8C25.12,192,0,217.12,0,248z M48,287.192
		C29.768,283.48,16,267.32,16,248s13.768-35.48,32-39.192V287.192z"/>
	<path style="fill:#3F3A34;" d="M160,208c-13.232,0-24,10.768-24,24s10.768,24,24,24s24-10.768,24-24S173.232,208,160,208z M160,240
		c-4.408,0-8-3.592-8-8s3.592-8,8-8s8,3.592,8,8S164.408,240,160,240z"/>
	<path style="fill:#3F3A34;" d="M440,192h-8v112h8c30.88,0,56-25.128,56-56C496,217.12,470.88,192,440,192z M448,287.192V208.8
		c18.232,3.712,32,19.88,32,39.192C480,267.32,466.232,283.48,448,287.192z"/>
	<path style="fill:#3F3A34;" d="M256,160h144v136c0,48.52-39.48,88-88,88h-56v16h56c57.344,0,104-46.656,104-104V144H256V160z"/>
	<path style="fill:#3F3A34;" d="M312,0h-56v16h16v32h-16v16h32V16h16v64h-48v16h64V16.408c44.784,4.056,80,41.768,80,87.592v24h16
		v-24C416,46.656,369.344,0,312,0z"/>
	<path style="fill:#3F3A34;" d="M432,80h16V46.528c9.288-3.312,16-12.112,16-22.528c0-13.232-10.768-24-24-24s-24,10.768-24,24
		c0,10.416,6.712,19.216,16,22.528V80z M440,16c4.408,0,8,3.592,8,8s-3.592,8-8,8s-8-3.592-8-8S435.592,16,440,16z"/>
	<path style="fill:#3F3A34;" d="M352,320c0-17.648-14.352-32-32-32h-64v16h16v32h-16v16h64C337.648,352,352,337.648,352,320z
		 M336,320c0,8.824-7.176,16-16,16v-32C328.824,304,336,311.176,336,320z M288,304h16v32h-16V304z"/>
	<rect x="264" y="112" style="fill:#3F3A34;" width="16" height="16"/>
	<rect x="304" y="112" style="fill:#3F3A34;" width="16" height="16"/>
	<rect x="344" y="112" style="fill:#3F3A34;" width="16" height="16"/>
	<polygon style="fill:#3F3A34;" points="320,416 304,416 304,448 256,448 256,464 360,464 360,480 256,480 256,496 376,496 376,448 
		320,448 	"/>
	<rect x="432" y="96" style="fill:#3F3A34;" width="16" height="80"/>
</g>
<g>
</g>
<g>
</g>
<g>
</g>
<g>
</g>
<g>
</g>
<g>
</g>
<g>
</g>
<g>
</g>
<g>
</g>
<g>
</g>
<g>
</g>
<g>
</g>
<g>
</g>
<g>
</g>
<g>
</g>
</svg>
