<?xml version="1.0" encoding="iso-8859-1"?>
<!-- Generator: Adobe Illustrator 19.0.0, SVG Export Plug-In . SVG Version: 6.00 Build 0)  -->
<svg version="1.1" id="Layer_1" xmlns="http://www.w3.org/2000/svg" xmlns:xlink="http://www.w3.org/1999/xlink" x="0px" y="0px"
	 viewBox="0 0 496 496" style="enable-background:new 0 0 496 496;" xml:space="preserve">
<polygon style="fill:#F6BF58;" points="328,176 328,80 328,16 168,16 168,80 168,176 248,176 "/>
<polygon style="fill:#F9ECDE;" points="248,296 304,296 336,232 248,232 192,232 160,296 "/>
<g>
	<circle style="fill:#66CEDB;" cx="56" cy="432" r="48"/>
	<circle style="fill:#66CEDB;" cx="184" cy="432" r="48"/>
	<circle style="fill:#66CEDB;" cx="312" cy="432" r="48"/>
	<circle style="fill:#66CEDB;" cx="440" cy="432" r="48"/>
	<polygon style="fill:#66CEDB;" points="464,48 368,48 368,80 368,112 464,112 	"/>
</g>
<g>
	<rect x="192" y="40" style="fill:#010133;" width="112" height="16"/>
	<rect x="192" y="72" style="fill:#010133;" width="112" height="16"/>
	<rect x="192" y="104" style="fill:#010133;" width="112" height="16"/>
	<rect x="192" y="136" style="fill:#010133;" width="112" height="16"/>
	<path style="fill:#010133;" d="M448,376.64V344c0-4.424-3.576-8-8-8H256v-32h48c3.032,0,5.8-1.712,7.16-4.424l32-64
		c1.24-2.48,1.112-5.424-0.352-7.784S338.776,224,336,224h-80v-40h72c4.424,0,8-3.576,8-8V88h24v24c0,4.424,3.576,8,8,8h96
		c4.424,0,8-3.576,8-8V48c0-4.424-3.576-8-8-8h-96c-4.424,0-8,3.576-8,8v24h-24V16c0-4.424-3.576-8-8-8H168c-4.424,0-8,3.576-8,8
		v44.688l-18.344-18.344l-11.312,11.312L148.688,72H72v16h76.688l-18.344,18.344l11.312,11.312L160,99.312V176c0,4.424,3.576,8,8,8
		h72v40h-48c-3.032,0-5.8,1.712-7.16,4.424l-32,64c-1.24,2.48-1.112,5.424,0.352,7.784S157.224,304,160,304h80v32H56
		c-4.424,0-8,3.576-8,8v32.64C20.912,380.544,0,403.848,0,432c0,30.872,25.128,56,56,56s56-25.128,56-56
		c0-28.152-20.912-51.456-48-55.36V352h112v24.64c-27.088,3.904-48,27.208-48,55.36c0,30.872,25.128,56,56,56s56-25.128,56-56
		c0-28.152-20.912-51.456-48-55.36V352h112v24.64c-27.088,3.904-48,27.208-48,55.36c0,30.872,25.128,56,56,56s56-25.128,56-56
		c0-28.152-20.912-51.456-48-55.36V352h112v24.64c-27.088,3.904-48,27.208-48,55.36c0,30.872,25.128,56,56,56s56-25.128,56-56
		C496,403.848,475.088,380.544,448,376.64z M376,56h80v48h-80V56z M176,24h144v144H176V24z M196.944,240h126.112l-24,48H172.944
		L196.944,240z M96,432c0,22.056-17.944,40-40,40s-40-17.944-40-40s17.944-40,40-40S96,409.944,96,432z M224,432
		c0,22.056-17.944,40-40,40s-40-17.944-40-40s17.944-40,40-40S224,409.944,224,432z M352,432c0,22.056-17.944,40-40,40
		s-40-17.944-40-40s17.944-40,40-40S352,409.944,352,432z M440,472c-22.056,0-40-17.944-40-40s17.944-40,40-40s40,17.944,40,40
		S462.056,472,440,472z"/>
	<rect x="408" y="136" style="fill:#010133;" width="16" height="16"/>
	<rect x="408" y="168" style="fill:#010133;" width="16" height="16"/>
	<rect x="408" y="200" style="fill:#010133;" width="16" height="16"/>
	<rect x="408" y="232" style="fill:#010133;" width="16" height="16"/>
	<rect x="408" y="264" style="fill:#010133;" width="16" height="16"/>
	<rect x="376" y="264" style="fill:#010133;" width="16" height="16"/>
	<rect x="344" y="264" style="fill:#010133;" width="16" height="16"/>
	<rect x="40" y="72" style="fill:#010133;" width="16" height="16"/>
	<rect x="8" y="72" style="fill:#010133;" width="16" height="16"/>
	<rect x="208" y="256" style="fill:#010133;" width="80" height="16"/>
</g>
<g>
</g>
<g>
</g>
<g>
</g>
<g>
</g>
<g>
</g>
<g>
</g>
<g>
</g>
<g>
</g>
<g>
</g>
<g>
</g>
<g>
</g>
<g>
</g>
<g>
</g>
<g>
</g>
<g>
</g>
</svg>
