<svg xmlns="http://www.w3.org/2000/svg" xmlns:xlink="http://www.w3.org/1999/xlink" id="Layer_1" x="0" y="0" version="1.1" viewBox="0 0 128 128" xml:space="preserve" style="enable-background:new 0 0 128 128"><style type="text/css">.st0{fill:none}.st1{fill:#fff}.st2{fill:#283037}.st3{fill:#4da825}</style><switch><g><linearGradient id="SVGID_1_" x1="493.347" x2="494.054" y1="0" y2=".707" gradientUnits="userSpaceOnUse"><stop offset="0" style="stop-color:#e6e6ea"/><stop offset=".172" style="stop-color:#e2e2e6"/><stop offset=".348" style="stop-color:#d7d6da"/><stop offset=".526" style="stop-color:#c4c2c5"/><stop offset=".706" style="stop-color:#a9a7a8"/><stop offset=".885" style="stop-color:#878484"/><stop offset="1" style="stop-color:#6d6968"/></linearGradient><g><rect width="128" height="128" x=".3" y="0" class="st0"/><g><g><path d="M112.5,26.1l-40.4-24c-4.8-2.9-10.8-2.9-15.6,0l-40.4,24C11.3,29,8.3,34.3,8.3,40v48c0,5.7,3,11,7.8,13.9 l40.4,24c2.4,1.4,5.1,2.1,7.8,2.1c2.7,0,5.4-0.7,7.8-2.1l40.4-24c4.8-2.9,7.8-8.2,7.8-13.9V40C120.3,34.3,117.4,29,112.5,26.1z" class="st1"/></g><g><path d="M112.5,26.1l-40.4-24C69.7,0.7,67,0,64.3,0c-2.7,0-5.4,0.7-7.8,2.1l-40.4,24C11.3,29,8.3,34.3,8.3,40v48 c0,5.7,3,11,7.8,13.9l40.4,24c2.4,1.4,5.1,2.1,7.8,2.1c2.7,0,5.4-0.7,7.8-2.1l40.4-24c4.8-2.9,7.8-8.2,7.8-13.9V40 C120.3,34.3,117.4,29,112.5,26.1z M57.9,123.4l-40.4-24c-4-2.3-6.4-6.7-6.4-11.4V40c0-4.7,2.5-9.1,6.4-11.4l40.4-24 c1.9-1.2,4.1-1.8,6.4-1.8c2.2,0,4.4,0.6,6.4,1.8l40.4,24c3.3,2,5.6,5.4,6.2,9.2c-1.3-2.9-4.4-3.6-7.9-1.6L71.2,59.9 c-4.8,2.8-8.3,5.9-8.3,11.7v47.1c0,3.4,1.4,5.7,3.5,6.3c-0.7,0.1-1.4,0.2-2.1,0.2C62.1,125.2,59.9,124.5,57.9,123.4z" class="st2"/></g><g><path d="M101.9,92.6l-10.1,6c-0.3,0.2-0.5,0.3-0.5,0.7v2.6c0,0.3,0.2,0.5,0.5,0.3l10.2-6.2 c0.3-0.2,0.3-0.5,0.3-0.8v-2.3C102.4,92.6,102.2,92.5,101.9,92.6z" class="st3"/></g><g><path d="M80.5,70.5c0.3-0.2,0.6,0,0.6,0.5l0,3.5c1.5-0.6,2.7-0.7,3.9-0.5c0.2,0.1,0.4,0.4,0.3,0.8l-0.8,3.1 c-0.1,0.2-0.2,0.5-0.3,0.6c-0.1,0.1-0.1,0.1-0.2,0.1c-0.1,0.1-0.2,0.1-0.3,0c-0.5-0.1-1.8-0.4-3.7,0.6c-2.1,1-2.8,2.8-2.8,4.1 c0,1.6,0.8,2.1,3.6,2.1c3.7,0.1,5.3,1.7,5.4,5.5c0,3.7-1.9,7.7-4.9,10.1l0.1,3.4c0,0.4-0.3,0.9-0.6,1.1l-2,1.2 c-0.3,0.2-0.6,0-0.6-0.5l0-3.4c-1.7,0.7-3.5,0.9-4.7,0.4c-0.2-0.1-0.3-0.4-0.2-0.8l0.7-3.1c0.1-0.2,0.2-0.5,0.4-0.6 c0.1-0.1,0.1-0.1,0.2-0.1c0.1-0.1,0.2-0.1,0.3,0c1.2,0.4,2.8,0.2,4.3-0.5c1.9-1,3.2-2.9,3.2-4.8c0-1.8-1-2.5-3.3-2.5 c-2.9,0-5.7-0.6-5.7-4.9c0-3.6,1.8-7.3,4.7-9.6l0-3.5c0-0.4,0.3-0.9,0.6-1.1L80.5,70.5z" class="st1"/></g></g></g></g></switch></svg>