<svg xmlns="http://www.w3.org/2000/svg" xmlns:xlink="http://www.w3.org/1999/xlink" id="Capa_1" x="0" y="0" version="1.1" viewBox="0 0 512 512" xml:space="preserve" style="enable-background:new 0 0 512 512"><path style="fill:#289f87" d="M46.933,469.333V435.2V153.6c0-23.561,19.106-42.667,42.667-42.667h25.6h42.667h204.8v256v34.133	V435.2l0,0"/><g><path style="fill:#208673" d="M362.667,418.133H174.933c-23.561,0-42.667-19.106-42.667-42.667V110.933h230.4V418.133z"/><path style="fill:#208673" d="M46.933,469.333h59.733V435.2V110.933H89.6c-23.561,0-42.667,19.106-42.667,42.667V469.333z"/></g><path style="fill:#b9b9b9" d="M362.667,503.467h-281.6c-18.85,0-34.133-15.283-34.133-34.133l0,0	c0-18.85,15.283-34.133,34.133-34.133h281.6V503.467z"/><path style="fill:#ea9d2d" d="M157.867,366.933V332.8V51.2c0-23.561,19.106-42.667,42.667-42.667h25.6h238.933V332.8l0,0"/><g><rect style="fill:#b47923" width="179.2" height="102.4" x="251.733" y="42.667"/><rect style="fill:#b47923" width="128" height="17.067" x="277.333" y="179.2"/><rect style="fill:#b47923" width="128" height="17.067" x="277.333" y="213.333"/><rect style="fill:#b47923" width="42.667" height="17.067" x="362.667" y="290.133"/></g><path style="fill:#d68f29" d="M217.6,8.533V332.8v34.133h-59.733v-256V51.2c0-23.561,19.106-42.667,42.667-42.667H217.6z"/><path style="fill:#dbdbdb" d="M362.667,401.067H192c-18.85,0-34.133-15.283-34.133-34.133l0,0c0-18.85,15.283-34.133,34.133-34.133	h273.067v68.267h-34.133"/><path style="fill:#b9b9b9" d="M192,401.067h170.667h68.267h34.133v-34.133h-307.2C157.867,385.783,173.15,401.067,192,401.067z"/><polygon style="fill:#dc4d41" points="362.667 366.933 430.933 366.933 430.933 469.333 396.8 435.2 362.667 469.333"/><rect style="fill:#c7463b" width="68.267" height="25.6" x="362.667" y="366.933"/><path d="M81.067,512h281.6c4.71,0,8.533-3.823,8.533-8.533v-30.601l25.6-25.6l28.1,28.1c1.63,1.63,3.814,2.5,6.033,2.5	c1.101,0,2.21-0.213,3.268-0.649c3.183-1.323,5.265-4.437,5.265-7.885V409.6h25.6c4.71,0,8.533-3.823,8.533-8.533V332.8V8.533	c0-4.71-3.823-8.533-8.533-8.533H200.533c-28.237,0-51.2,22.963-51.2,51.2v51.2H89.6c-28.237,0-51.2,22.963-51.2,51.2v315.733	C38.4,492.86,57.54,512,81.067,512z M422.4,448.734l-19.567-19.567c-1.664-1.664-3.849-2.5-6.033-2.5s-4.369,0.836-6.033,2.5	L371.2,448.734V435.2v-34.133v-25.6h51.2V448.734z M456.533,392.533h-17.067v-25.6c0-4.71-3.823-8.533-8.533-8.533h-68.267	c-4.71,0-8.533,3.823-8.533,8.533v25.6H192c-14.114,0-25.6-11.486-25.6-25.6s11.486-25.6,25.6-25.6h264.533V392.533z M456.533,324.267h-230.4v-307.2h230.4V324.267z M200.533,17.067h8.533v307.2H192c-9.643,0-18.449,3.337-25.6,8.755V51.2	C166.4,32.375,181.709,17.067,200.533,17.067z M149.333,366.933c0,23.526,19.14,42.667,42.667,42.667h162.133v17.067H115.2v-307.2	h34.133V366.933z M89.6,119.467h8.533v307.2H81.067c-9.643,0-18.449,3.337-25.6,8.755V153.6	C55.467,134.775,70.775,119.467,89.6,119.467z M81.067,443.733h273.067v25.6v25.6H81.067c-14.114,0-25.6-11.486-25.6-25.6	C55.467,455.219,66.953,443.733,81.067,443.733z"/><path d="M251.733,153.6h179.2c4.71,0,8.533-3.823,8.533-8.533v-102.4c0-4.71-3.823-8.533-8.533-8.533h-179.2	c-4.71,0-8.533,3.823-8.533,8.533v102.4C243.2,149.777,247.023,153.6,251.733,153.6z M260.267,51.2H422.4v85.333H260.267V51.2z"/><rect width="128" height="17.067" x="277.333" y="179.2"/><rect width="128" height="17.067" x="277.333" y="213.333"/><rect width="42.667" height="17.067" x="362.667" y="290.133"/></svg>