<svg xmlns="http://www.w3.org/2000/svg" xmlns:xlink="http://www.w3.org/1999/xlink" id="Capa_1" x="0" y="0" version="1.1" viewBox="0 0 340 340" xml:space="preserve" style="enable-background:new 0 0 340 340"><g id="XMLID_18_"><polygon id="XMLID_138_" points="76.429 290 80 340 170 340 170 290" style="fill:#dedde0"/><polygon id="XMLID_169_" points="170 80 61.429 80 65 130 170 130" style="fill:#dedde0"/><polygon id="XMLID_197_" points="170 290 170 340 260 340 263.571 290" style="fill:#acabb1"/><polygon id="XMLID_221_" points="170 80 170 130 275 130 278.571 80" style="fill:#acabb1"/><path id="XMLID_222_" d="M170,260c-22.091,0-40-22.386-40-50s17.909-50,40-50v-30H65H50l10,160h16.429H170 V260z" style="fill:#ffda44"/><path id="XMLID_33_" d="M170,130v30c22.091,0,40,22.386,40,50s-17.909,50-40,50v30h93.571H280l10-160h-15 H170z" style="fill:#ff9811"/><path id="XMLID_223_" d="M210,210c0-27.614-17.909-50-40-50v100C192.091,260,210,237.614,210,210z" style="fill:#50412e"/><path id="XMLID_224_" d="M130,210c0,27.614,17.909,50,40,50V160C147.909,160,130,182.386,130,210z" style="fill:#786145"/><polygon id="XMLID_225_" points="278.571 80 300 80 300 40 260 40 260 0 80 0 80 40 40 40 40 80 61.429 80 170 80" style="fill:#50412e"/></g></svg>