<?xml version="1.0" encoding="iso-8859-1"?>
<!-- Generator: Adobe Illustrator 19.0.0, SVG Export Plug-In . SVG Version: 6.00 Build 0)  -->
<svg version="1.1" id="Capa_1" xmlns="http://www.w3.org/2000/svg" xmlns:xlink="http://www.w3.org/1999/xlink" x="0px" y="0px"
	 viewBox="0 0 340 340" style="enable-background:new 0 0 340 340;" xml:space="preserve">
<g id="XMLID_18_">
	<polygon id="XMLID_138_" style="fill:#DEDDE0;" points="76.429,290 80,340 170,340 170,290 	"/>
	<polygon id="XMLID_169_" style="fill:#DEDDE0;" points="170,80 61.429,80 65,130 170,130 	"/>
	<polygon id="XMLID_197_" style="fill:#ACABB1;" points="170,290 170,340 260,340 263.571,290 	"/>
	<polygon id="XMLID_221_" style="fill:#ACABB1;" points="170,80 170,130 275,130 278.571,80 	"/>
	<path id="XMLID_222_" style="fill:#FFDA44;" d="M170,260c-22.091,0-40-22.386-40-50s17.909-50,40-50v-30H65H50l10,160h16.429H170
		V260z"/>
	<path id="XMLID_33_" style="fill:#FF9811;" d="M170,130v30c22.091,0,40,22.386,40,50s-17.909,50-40,50v30h93.571H280l10-160h-15
		H170z"/>
	<path id="XMLID_223_" style="fill:#50412E;" d="M210,210c0-27.614-17.909-50-40-50v100C192.091,260,210,237.614,210,210z"/>
	<path id="XMLID_224_" style="fill:#786145;" d="M130,210c0,27.614,17.909,50,40,50V160C147.909,160,130,182.386,130,210z"/>
	<polygon id="XMLID_225_" style="fill:#50412E;" points="278.571,80 300,80 300,40 260,40 260,0 80,0 80,40 40,40 40,80 61.429,80 
		170,80 	"/>
</g>
<g>
</g>
<g>
</g>
<g>
</g>
<g>
</g>
<g>
</g>
<g>
</g>
<g>
</g>
<g>
</g>
<g>
</g>
<g>
</g>
<g>
</g>
<g>
</g>
<g>
</g>
<g>
</g>
<g>
</g>
</svg>
