<svg xmlns="http://www.w3.org/2000/svg" width="81" height="81"><defs><radialGradient id="SVGID_1_" cx="72" cy="76" r="53.502" gradientUnits="userSpaceOnUse"><stop offset="0" stop-color="#844DB8"/><stop offset="1" stop-color="#5B16A3"/></radialGradient><linearGradient id="SVGID_6_" x1=".007" x2="1.066" y1=".944" y2="-.01"><stop offset="0" stop-color="#675DC6" stop-opacity=".5"/><stop offset="1" stop-color="#675DC6" stop-opacity="0"/></linearGradient><radialGradient id="SVGID_7_" cx="72" cy="76" r="53.502" gradientUnits="userSpaceOnUse"><stop offset="0" stop-color="#844DB8"/><stop offset="1" stop-color="#5B16A3"/></radialGradient><linearGradient id="SVGID_9_" x1=".007" x2="1.066" y1=".944" y2="-.01"><stop offset="0" stop-color="#7673C0" stop-opacity=".5"/><stop offset="1" stop-color="#7673C0" stop-opacity="0"/></linearGradient></defs><g><title>background</title><rect id="canvas_background" width="83" height="83" x="-1" y="-1" fill="none"/></g><g><title>Layer 1</title><g id="work" display="none"><g id="svg_1" display="inline"><path id="svg_2" fill="url(#SVGID_1_)" d="m68.8,0l-57.6,0c-3.976,0 -7.2,3.224 -7.2,7.2l0,65.6c0,3.976 3.224,7.2 7.2,7.2l57.6,0c3.976,0 7.2,-3.224 7.2,-7.2l0,-65.6c0,-3.976 -3.224,-7.2 -7.2,-7.2z"/><path id="svg_3" fill="url(#SVGID_6_)" d="m68.8,0l-57.6,0c-3.976,0 -7.2,3.224 -7.2,7.2l0,65.6c0,3.976 3.224,7.2 7.2,7.2l57.6,0c3.976,0 7.2,-3.224 7.2,-7.2l0,-65.6c0,-3.976 -3.224,-7.2 -7.2,-7.2z"/></g></g><g id="gradient" stroke="null"><g id="svg_4" stroke="null"><path id="svg_5" fill="url(#SVGID_7_)" stroke="null" d="m72.099996,0l-63.199997,0c-4.362555,0 -7.9,3.224 -7.9,7.2l0,65.6c0,3.976 3.537444,7.2 7.9,7.2l63.199997,0c4.362555,0 7.9,-3.224 7.9,-7.2l0,-65.6c0,-3.976 -3.537444,-7.2 -7.9,-7.2z"/><path id="svg_6" fill="url(#SVGID_9_)" stroke="null" d="m72.099996,0l-63.199997,0c-4.362555,0 -7.9,3.224 -7.9,7.2l0,65.6c0,3.976 3.537444,7.2 7.9,7.2l63.199997,0c4.362555,0 7.9,-3.224 7.9,-7.2l0,-65.6c0,-3.976 -3.537444,-7.2 -7.9,-7.2z"/></g></g><g id="white"><g id="logo_6_"><polygon id="svg_7" fill="#FFF" points="25 68 34 60 25 52"/><path id="svg_8" fill="#FFF" d="m57.517,35.575c-1.612,-1.631 -4.572,-3.575 -9.517,-3.575c-5.423,0 -11.006,1.411 -15,2.711l0,-22.711l-8,0l0,34.692l5.651,-2.56c0.091,-0.041 9.215,-4.132 17.349,-4.132c4.062,0 4.961,2.243 5,4.11l0,23.89l8,0l0,-24c0.005,-0.512 -0.042,-4.945 -3.483,-8.425z"/><path id="svg_9" fill="#FFF" d="m47,25l8,0c3.618,-4.1 5.46,-8.456 6,-13l-8,0c-0.882,4.534 -2.856,8.875 -6,13z"/></g></g></g></svg>