<?xml version="1.0" encoding="iso-8859-1"?>
<!-- Generator: Adobe Illustrator 19.0.0, SVG Export Plug-In . SVG Version: 6.00 Build 0)  -->
<svg version="1.1" id="Layer_1" xmlns="http://www.w3.org/2000/svg" xmlns:xlink="http://www.w3.org/1999/xlink" x="0px" y="0px"
	 viewBox="0 0 495.848 495.848" style="enable-background:new 0 0 495.848 495.848;" xml:space="preserve">
<path style="fill:#F9BA48;" d="M393.94,200v-48h-18.888c-2.552-10.848-6.784-21.08-12.632-30.528l13.344-13.352l-33.936-33.936
	l-13.352,13.344c-9.456-5.848-19.68-10.08-30.528-12.632V56h-48v18.888c-10.848,2.552-21.08,6.784-30.528,12.632l-13.352-13.344
	l-33.936,33.936l13.344,13.352c-5.848,9.456-10.08,19.68-12.632,30.528H153.94v48h18.888c2.552,10.848,6.784,21.08,12.632,30.528
	l-13.344,13.352l33.936,33.936l13.376-13.376c1.744,1.056,3.584,2.096,5.544,3.144l7.528-14.112l9.44,0.008v-22.248
	c-19.112-11.072-32-31.696-32-55.368c0-35.344,28.656-64,64-64s64,28.656,64,64c0,23.672-12.888,44.296-32,55.368v22.192
	l9.576-0.008l7.608,14.08c1.88-1.016,3.648-2.032,5.32-3.04l13.376,13.376l33.936-33.936l-13.344-13.352
	c5.848-9.456,10.08-19.68,12.632-30.528h18.896V200z"/>
<g>
	<path style="fill:#333333;" d="M457.788,183.92c0-100.128-81.432-182.624-181.52-183.904C275.484,0.008,274.716,0,273.94,0
		C187.516,0,111.98,61.56,93.796,147.184c-4.496,21.128-5.056,42.92-1.68,64.832l-54.08,96.728l59.904,17.272v97.832h80v72h16v-88
		h-80v-93.864L61.836,298.96l46.984-84.024l-0.472-2.784c-3.536-20.848-3.168-41.592,1.104-61.64
		C126.212,71.56,196.22,14.928,276.068,16.016c91.384,1.168,165.728,76.496,165.728,167.912l0.024,29.192
		c0.04,64.096-31.512,124.096-84.416,160.504l-3.464,2.392v119.832h16V384.376c55.152-39.608,87.912-103.304,87.872-171.264
		L457.788,183.92z"/>
	<path style="fill:#333333;" d="M345.94,175.848c0-39.704-32.296-72-72-72s-72,32.296-72,72c0,23.992,12.152,46.496,32,59.8v12.608
		c-9.12,1.856-16,9.936-16,19.592c0,7.12,3.76,13.328,9.368,16.88c-0.848,2.224-1.368,4.608-1.368,7.12c0,11.032,8.968,20,20,20h56
		c11.032,0,20-8.968,20-20c0-2.52-0.52-4.904-1.368-7.12c5.608-3.544,9.368-9.76,9.368-16.88c0-9.664-6.88-17.736-16-19.592v-12.608
		C333.788,222.344,345.94,199.84,345.94,175.848z M217.94,175.848c0-30.872,25.128-56,56-56s56,25.128,56,56
		c0,19.872-10.736,38.44-28.008,48.448l-3.992,2.312v21.24h-16v-49.472c9.288-3.312,16-12.112,16-22.528c0-13.232-10.768-24-24-24
		s-24,10.768-24,24c0,10.416,6.712,19.216,16,22.528v49.472h-16v-21.24l-3.992-2.312C228.676,214.288,217.94,195.728,217.94,175.848
		z M265.94,175.848c0-4.416,3.584-8,8-8s8,3.584,8,8s-3.584,8-8,8S265.94,180.264,265.94,175.848z M237.94,263.848h72
		c2.2,0,4,1.8,4,4s-1.8,4-4,4h-8h-56h-8c-2.2,0-4-1.8-4-4S235.74,263.848,237.94,263.848z M301.94,295.848h-56c-2.2,0-4-1.8-4-4
		s1.8-4,4-4h56c2.2,0,4,1.8,4,4S304.14,295.848,301.94,295.848z"/>
	<rect x="265.812" y="327.848" style="fill:#333333;" width="16" height="16"/>
	<rect x="265.812" y="359.848" style="fill:#333333;" width="16" height="16"/>
	<rect x="265.812" y="391.848" style="fill:#333333;" width="16" height="16"/>
	<rect x="265.812" y="423.848" style="fill:#333333;" width="16" height="16"/>
</g>
<g>
</g>
<g>
</g>
<g>
</g>
<g>
</g>
<g>
</g>
<g>
</g>
<g>
</g>
<g>
</g>
<g>
</g>
<g>
</g>
<g>
</g>
<g>
</g>
<g>
</g>
<g>
</g>
<g>
</g>
</svg>
