<?xml version="1.0" encoding="iso-8859-1"?>
<!-- Generator: Adobe Illustrator 19.0.0, SVG Export Plug-In . SVG Version: 6.00 Build 0)  -->
<svg version="1.1" id="Capa_1" xmlns="http://www.w3.org/2000/svg" xmlns:xlink="http://www.w3.org/1999/xlink" x="0px" y="0px"
	 viewBox="0 0 496.008 496.008" style="enable-background:new 0 0 496.008 496.008;" xml:space="preserve">
<circle style="fill:#FFCB57;" cx="248.004" cy="200" r="120"/>
<path style="fill:#3F3A34;" d="M480.004,241.472V174.52c9.288-3.312,16-12.112,16-22.528c0-13.232-10.768-24-24-24
	c-2.752,0-5.36,0.56-7.824,1.416l-35.848-44.816c2.288-3.656,3.672-7.952,3.672-12.592c0-13.232-10.768-24-24-24
	c-6.728,0-12.792,2.8-17.16,7.272L327.78,26.168c0.072-0.728,0.224-1.424,0.224-2.168c0-13.232-10.768-24-24-24
	c-10.416,0-19.216,6.712-22.528,16h-90.944C187.22,6.712,178.42,0,168.004,0c-13.232,0-24,10.768-24,24
	c0,0.992,0.176,1.944,0.296,2.904l-39.68,19.84C100.3,42.592,94.46,40,88.004,40c-13.232,0-24,10.768-24,24
	c0,4.64,1.384,8.936,3.664,12.608L31.82,121.416C29.356,120.56,26.756,120,24.004,120c-13.232,0-24,10.768-24,24
	c0,10.416,6.712,19.216,16,22.528v50.952c-9.288,3.304-16,12.104-16,22.52c0,13.232,10.768,24,24,24
	c8.888,0,16.568-4.912,20.72-12.104l43.672,7.944c1.848,11.4,11.688,20.16,23.608,20.16c0.328,0,0.624-0.08,0.944-0.096
	l15.264,38.16c-4.992,4.408-8.208,10.768-8.208,17.936c0,13.232,10.768,24,24,24c8.048,0,15.144-4.016,19.496-10.112l68.656,19.616
	c0.616,9.744,7.016,17.872,15.848,21.024v58.952c-9.288,3.312-16,12.112-16,22.528c0,13.232,10.768,24,24,24s24-10.768,24-24
	c0-10.416-6.712-19.216-16-22.528v-58.952c9.288-3.312,16-12.112,16-22.528c0-7.664-3.68-14.432-9.296-18.824l9.552-28.656
	l71.784,23.928c0.192,10.216,6.8,18.808,15.952,22.072v82.952c-9.288,3.312-16,12.112-16,22.528c0,13.232,10.768,24,24,24
	s24-10.768,24-24c0-10.416-6.712-19.216-16-22.528v-82.944c9.288-3.312,16-12.112,16-22.528c0-2.92-0.6-5.688-1.56-8.28
	l61.384-51.152c3.584,2.128,7.72,3.432,12.184,3.432c13.232,0,24-10.768,24-24C496.004,253.584,489.292,244.784,480.004,241.472z
	 M135.956,255.552c-0.016-0.96-0.16-1.88-0.288-2.808l65.624-34.024l20.296,65.384L135.956,255.552z M118.1,232.88l-11.088-85.024
	l54.824-2.744c3.48,8.432,11.632,14.4,21.216,14.784l13.432,43.288l-68.136,35.328C125.484,235.848,121.988,233.912,118.1,232.88z
	 M46.18,134.88c-0.504-1.224-1.152-2.376-1.848-3.488L80.18,86.584c0.928,0.32,1.84,0.664,2.808,0.872l5.912,45.288L46.18,134.88z
	 M98.844,85.296c7.776-3.976,13.16-11.984,13.16-21.296c0-0.992-0.176-1.944-0.296-2.904l39.68-19.84
	c4.32,4.152,10.16,6.744,16.616,6.744c4.912,0,9.48-1.496,13.288-4.04l49.68,37.256l-35.968,33.568
	c-3.312-1.712-7.016-2.784-11-2.784c-10.832,0-19.904,7.256-22.88,17.136l-56.192,2.808L98.844,85.296z M282.028,33.576
	l-39.176,36.56L191.996,32h89.48C281.668,32.528,281.804,33.064,282.028,33.576z M304.332,147.264l-64.376,33.384l-34.36-34.36
	c1.496-3.136,2.408-6.592,2.408-10.288c0-3.408-0.736-6.632-2.016-9.568l37.984-35.456l61.224,45.92
	c-0.704,2.256-1.192,4.616-1.192,7.104C304.004,145.12,304.188,146.184,304.332,147.264z M192.004,136c0,4.408-3.584,8-8,8
	s-8-3.592-8-8s3.584-8,8-8S192.004,131.592,192.004,136z M225.06,188.368l-14.152,7.336l-9.672-31.16L225.06,188.368z
	 M215.724,211.232l21.2-10.992l37.48,37.48c-1.488,3.128-2.4,6.584-2.4,10.28c0,7.672,3.68,14.432,9.296,18.824l-11.152,33.456
	l-29.872-9.96L215.724,211.232z M296.004,256c-4.416,0-8-3.592-8-8s3.584-8,8-8s8,3.592,8,8C304.004,252.408,300.42,256,296.004,256
	z M296.004,224c-3.696,0-7.152,0.904-10.28,2.408l-33.896-33.896l59.84-31.032c4.288,4.016,10.008,6.52,16.336,6.52
	c4.464,0,8.6-1.304,12.184-3.44l36.424,30.352l-64.664,35.272C307.692,226.384,302.148,224,296.004,224z M396.628,93
	c3.4,1.856,7.24,3,11.376,3c2.752,0,5.352-0.56,7.816-1.416l35.848,44.816c-2.28,3.672-3.664,7.96-3.664,12.6
	c0,1.288,0.184,2.536,0.384,3.768l-56.664,30.912l-41.28-34.4c0.96-2.592,1.56-5.36,1.56-8.28c0-3.256-0.664-6.352-1.84-9.184
	L396.628,93z M459.828,243.432l-54.888-45.744l51.128-27.888c2.296,2.064,4.976,3.664,7.944,4.72v66.952
	C462.54,242,461.148,242.648,459.828,243.432z M336.004,144c0,4.408-3.584,8-8,8s-8-3.592-8-8s3.584-8,8-8
	S336.004,139.592,336.004,144z M389.828,205.936l57.328,47.776l-124.208-11.296L389.828,205.936z M480.004,152c0,4.408-3.584,8-8,8
	s-8-3.592-8-8s3.584-8,8-8S480.004,147.592,480.004,152z M408.004,64c4.416,0,8,3.592,8,8s-3.584,8-8,8s-8-3.592-8-8
	S403.588,64,408.004,64z M384.22,69.832c-0.064,0.728-0.216,1.424-0.216,2.168c0,3.256,0.664,6.352,1.84,9.184L339.372,123
	c-3.392-1.856-7.232-3-11.368-3c-4.912,0-9.48,1.496-13.288,4.04l-58.864-44.152l37.16-34.68C296.316,46.936,300.02,48,304.004,48
	c6.728,0,12.8-2.8,17.16-7.272L384.22,69.832z M304.004,16c4.416,0,8,3.592,8,8s-3.584,8-8,8s-8-3.592-8-8S299.588,16,304.004,16z
	 M168.004,16c4.416,0,8,3.592,8,8s-3.584,8-8,8s-8-3.592-8-8S163.588,16,168.004,16z M88.004,56c4.416,0,8,3.592,8,8s-3.584,8-8,8
	s-8-3.592-8-8S83.588,56,88.004,56z M24.004,136c4.416,0,8,3.592,8,8s-3.584,8-8,8s-8-3.592-8-8S19.588,136,24.004,136z M24.004,248
	c-4.416,0-8-3.592-8-8s3.584-8,8-8s8,3.592,8,8S28.42,248,24.004,248z M32.004,217.472V166.52c7.152-2.552,12.68-8.352,14.88-15.664
	l44.096-2.208l11.152,85.52c-4.592,2.08-8.344,5.584-10.848,9.92L47.62,236.16C46.204,227.456,40.124,220.368,32.004,217.472z
	 M104.004,256c0-4.408,3.584-8,8-8s8,3.592,8,8s-3.584,8-8,8S104.004,260.408,104.004,256z M127.796,273.928
	c1.112-0.976,2.12-2.056,3.032-3.224l96.6,32.2l14.264,45.944c-1.984,1.488-3.744,3.24-5.184,5.256l-68.656-19.616
	C167.06,321.976,156.724,312,144.004,312c-0.32,0-0.624,0.08-0.936,0.096L127.796,273.928z M144.004,344c-4.416,0-8-3.592-8-8
	s3.584-8,8-8s8,3.592,8,8S148.42,344,144.004,344z M256.004,480c-4.416,0-8-3.592-8-8s3.584-8,8-8s8,3.592,8,8
	S260.42,480,256.004,480z M256.004,376c-4.416,0-8-3.592-8-8s3.584-8,8-8s8,3.592,8,8S260.42,376,256.004,376z M256.276,341.888
	l-10.168-32.752l18.976,6.328L256.276,341.888z M296.452,271.952c9.456-0.176,17.552-5.84,21.296-13.944l131.088,11.92
	c0.208,0.8,0.448,1.584,0.728,2.352l-61.384,51.152c-3.584-2.128-7.712-3.432-12.176-3.432c-7.664,0-14.432,3.68-18.824,9.296
	l-71.856-23.952L296.452,271.952z M376.004,480c-4.416,0-8-3.592-8-8s3.584-8,8-8s8,3.592,8,8S380.42,480,376.004,480z M376.004,352
	c-4.416,0-8-3.592-8-8s3.584-8,8-8s8,3.592,8,8S380.42,352,376.004,352z M472.004,272c-4.416,0-8-3.592-8-8s3.584-8,8-8s8,3.592,8,8
	S476.42,272,472.004,272z"/>
<g>
	<rect x="16.004" style="fill:#E56565;" width="16" height="16"/>
	<rect x="16.004" y="32" style="fill:#E56565;" width="16" height="16"/>
	<rect x="32.004" y="16" style="fill:#E56565;" width="16" height="16"/>
	<rect x="0.004" y="16" style="fill:#E56565;" width="16" height="16"/>
	<rect x="416.004" y="368" style="fill:#E56565;" width="16" height="16"/>
	<rect x="416.004" y="400" style="fill:#E56565;" width="16" height="16"/>
	<rect x="432.004" y="384" style="fill:#E56565;" width="16" height="16"/>
	<rect x="400.004" y="384" style="fill:#E56565;" width="16" height="16"/>
	<rect x="464.004" y="32" style="fill:#E56565;" width="16" height="16"/>
	<rect x="464.004" y="64" style="fill:#E56565;" width="16" height="16"/>
	<rect x="480.004" y="48" style="fill:#E56565;" width="16" height="16"/>
	<rect x="448.004" y="48" style="fill:#E56565;" width="16" height="16"/>
	<rect x="96.004" y="384" style="fill:#E56565;" width="16" height="16"/>
	<rect x="96.004" y="416" style="fill:#E56565;" width="16" height="16"/>
	<rect x="112.004" y="400" style="fill:#E56565;" width="16" height="16"/>
	<rect x="80.004" y="400" style="fill:#E56565;" width="16" height="16"/>
	<rect x="48.004" y="296" style="fill:#E56565;" width="16" height="16"/>
	<rect x="48.004" y="328" style="fill:#E56565;" width="16" height="16"/>
	<rect x="64.004" y="312" style="fill:#E56565;" width="16" height="16"/>
	<rect x="32.004" y="312" style="fill:#E56565;" width="16" height="16"/>
</g>
<g>
</g>
<g>
</g>
<g>
</g>
<g>
</g>
<g>
</g>
<g>
</g>
<g>
</g>
<g>
</g>
<g>
</g>
<g>
</g>
<g>
</g>
<g>
</g>
<g>
</g>
<g>
</g>
<g>
</g>
</svg>
