<svg width="332" height="332" xmlns="http://www.w3.org/2000/svg" preserveAspectRatio="xMidYMid">

 <g>
  <title>background</title>
  <rect fill="none" id="canvas_background" height="334" width="334" y="-1" x="-1"/>
 </g>
 <g>
  <title>Layer 1</title>
  <g stroke="null" id="svg_1">
   <path stroke="null" id="svg_2" fill-rule="nonzero" fill="#000000" d="m85.67501,127.65546l58.091624,0l0,4.445026l-52.766557,0l0,33.454666l49.619927,0l0,4.445026l-49.619927,0l0,36.729942l53.37168,0l0,4.445026l-58.696748,0l0,-83.519687zm63.295669,0l6.172236,0l27.351472,36.729948l27.956596,-36.729948l38.025532,-46.655479l-62.472425,87.245578l32.192444,42.929588l-6.414281,0l-29.287866,-39.069431l-29.408882,39.069431l-6.293264,0l32.434495,-42.929588l-30.256057,-40.590099zm71.525316,4.445026l0,-4.445026l66.200254,0l0,4.445026l-30.498107,0l0,79.07466l-5.325068,0l0,-79.07466l-30.377079,0zm-207.496013,-4.445026l6.656332,0l91.786928,132.228546l-37.931146,-48.70886l-54.945001,-77.203074l-0.242045,77.203074l-5.325068,0l0,-83.519687zm273.159745,77.73325c-1.08795,0 -1.903915,-0.811529 -1.903915,-1.860276c0,-1.048741 0.815965,-1.86027 1.903915,-1.86027c1.100896,0 1.903909,0.811529 1.903909,1.86027c0,1.048747 -0.803014,1.860276 -1.903909,1.860276zm5.232517,-4.894142l2.849385,0c0.038855,1.485724 1.16566,2.484526 2.823488,2.484526c1.852103,0 2.901198,-1.073719 2.901198,-3.08381l0,-12.734758l2.901198,0l0,12.747244c0,3.620663 -2.1759,5.705671 -5.776492,5.705671c-3.380414,0 -5.698776,-2.022577 -5.698776,-5.118873zm15.270135,-0.162307l2.875294,0c0.246087,1.710455 1.981625,2.796654 4.481316,2.796654c2.331319,0 4.040954,-1.16111 4.040954,-2.759196c0,-1.373361 -1.08795,-2.19737 -3.561737,-2.759202l-2.409029,-0.561826c-3.380414,-0.761591 -4.921678,-2.334705 -4.921678,-4.981538c0,-3.208659 2.719875,-5.343604 6.799684,-5.343604c3.794867,0 6.566548,2.134946 6.73492,5.168811l-2.823482,0c-0.27199,-1.660511 -1.774393,-2.696766 -3.950293,-2.696766c-2.292465,0 -3.820776,1.061227 -3.820776,2.684285c0,1.285958 0.984337,2.022577 3.419269,2.571923l2.059335,0.486915c3.833722,0.861468 5.41384,2.359677 5.41384,5.068935c0,3.445876 -2.771681,5.605788 -7.201185,5.605788c-4.144567,0 -6.9292,-2.060035 -7.136433,-5.28118z"/>
  </g>
 </g>
</svg>