<svg xmlns="http://www.w3.org/2000/svg" id="Layer_1" data-name="Layer 1" viewBox="0 0 1024 1024"><defs><style>.cls-1{fill:#f05952}</style></defs><title>Serverless_lockup_icon-red01</title><polygon points="298.55 665.34 181.57 665.34 181.57 774.79 262.3 774.79 298.55 665.34" class="cls-1"/><polygon points="367.45 457.28 181.57 457.28 181.57 566.72 331.2 566.72 367.45 457.28" class="cls-1"/><polygon points="436.33 249.21 181.57 249.21 181.57 358.66 400.11 358.66 436.33 249.21" class="cls-1"/><polygon points="551.63 249.21 515.38 358.66 842.42 358.66 842.42 249.21 551.63 249.21" class="cls-1"/><polygon points="446.5 566.72 842.42 566.72 842.42 457.28 482.72 457.28 446.5 566.72" class="cls-1"/><polygon points="377.6 774.79 842.42 774.79 842.42 665.34 413.84 665.34 377.6 774.79" class="cls-1"/></svg>