<svg xmlns="http://www.w3.org/2000/svg" xmlns:xlink="http://www.w3.org/1999/xlink" id="Capa_1" x="0" y="0" version="1.1" viewBox="0 0 512 512" xml:space="preserve" style="enable-background:new 0 0 512 512"><g><g><path style="fill:#35495e" d="M26.483,397.241h52.966v26.483c0,9.751-7.904,17.655-17.655,17.655H44.138 c-9.751,0-17.655-7.904-17.655-17.655V397.241z"/><path style="fill:#35495e" d="M291.31,397.241h52.966v26.483c0,9.751-7.904,17.655-17.655,17.655h-17.655 c-9.751,0-17.655-7.904-17.655-17.655V397.241z"/></g><path style="fill:#7f8c8d" d="M291.663,158.897H17.655C7.916,158.868,0.029,150.98,0,141.241V88.276 c0.029-9.739,7.916-17.627,17.655-17.655h335.448c9.739,0.029,17.627,7.916,17.655,17.655v27.895"/><g><path style="fill:#65ddb9" d="M52.966,123.586h-8.828c-4.875,0-8.828-3.952-8.828-8.828s3.952-8.828,8.828-8.828h8.828 c4.875,0,8.828,3.952,8.828,8.828S57.841,123.586,52.966,123.586z"/><path style="fill:#65ddb9" d="M97.103,123.586h-8.828c-4.875,0-8.828-3.952-8.828-8.828s3.952-8.828,8.828-8.828h8.828 c4.875,0,8.828,3.952,8.828,8.828S101.979,123.586,97.103,123.586z"/><path style="fill:#65ddb9" d="M141.241,123.586h-8.828c-4.875,0-8.828-3.952-8.828-8.828s3.952-8.828,8.828-8.828h8.828 c4.875,0,8.828,3.952,8.828,8.828S146.117,123.586,141.241,123.586z"/></g><path style="fill:#67b9cc" d="M300.138,123.586h-35.31c-4.875,0-8.828-3.952-8.828-8.828s3.952-8.828,8.828-8.828h35.31 c4.875,0,8.828,3.952,8.828,8.828S305.013,123.586,300.138,123.586z"/><polyline style="fill:#35495e" points="291.663 158.897 26.483 158.897 61.793 194.207 291.31 194.207"/><path style="fill:#7f8c8d" d="M291.31,194.207H17.655C7.916,194.235,0.029,202.123,0,211.862v52.966 c0.029,9.739,7.916,17.627,17.655,17.655h287.779"/><g><path style="fill:#65ddb9" d="M52.966,247.172h-8.828c-4.875,0-8.828-3.952-8.828-8.828c0-4.875,3.952-8.828,8.828-8.828h8.828 c4.875,0,8.828,3.952,8.828,8.828C61.793,243.22,57.841,247.172,52.966,247.172z"/><path style="fill:#65ddb9" d="M97.103,247.172h-8.828c-4.875,0-8.828-3.952-8.828-8.828c0-4.875,3.952-8.828,8.828-8.828h8.828 c4.875,0,8.828,3.952,8.828,8.828C105.931,243.22,101.979,247.172,97.103,247.172z"/><path style="fill:#65ddb9" d="M141.241,247.172h-8.828c-4.875,0-8.828-3.952-8.828-8.828c0-4.875,3.952-8.828,8.828-8.828h8.828 c4.875,0,8.828,3.952,8.828,8.828C150.069,243.22,146.117,247.172,141.241,247.172z"/></g><path style="fill:#67b9cc" d="M291.31,247.172h-26.483c-4.875,0-8.828-3.952-8.828-8.828c0-4.875,3.952-8.828,8.828-8.828h26.483 c4.875,0,8.828,3.952,8.828,8.828C300.138,243.22,296.186,247.172,291.31,247.172z"/><polyline style="fill:#35495e" points="305.434 282.483 26.483 282.483 61.793 317.793 326.621 317.793"/><path style="fill:#7f8c8d" d="M326.885,317.793H17.655C7.916,317.822,0.029,325.709,0,335.448v52.966 c0.029,9.739,7.916,17.627,17.655,17.655h335.448c9.739-0.029,17.627-7.916,17.655-17.655v-29.661"/><g><path style="fill:#65ddb9" d="M52.966,370.759h-8.828c-4.875,0-8.828-3.952-8.828-8.828s3.952-8.828,8.828-8.828h8.828 c4.875,0,8.828,3.952,8.828,8.828S57.841,370.759,52.966,370.759z"/><path style="fill:#65ddb9" d="M97.103,370.759h-8.828c-4.875,0-8.828-3.952-8.828-8.828s3.952-8.828,8.828-8.828h8.828 c4.875,0,8.828,3.952,8.828,8.828S101.979,370.759,97.103,370.759z"/><path style="fill:#65ddb9" d="M141.241,370.759h-8.828c-4.875,0-8.828-3.952-8.828-8.828s3.952-8.828,8.828-8.828h8.828 c4.875,0,8.828,3.952,8.828,8.828S146.117,370.759,141.241,370.759z"/></g><path style="fill:#67b9cc" d="M300.138,370.759h-35.31c-4.875,0-8.828-3.952-8.828-8.828s3.952-8.828,8.828-8.828h35.31 c4.875,0,8.828,3.952,8.828,8.828S305.013,370.759,300.138,370.759z"/><path style="fill:#24ae5f" d="M505.9,151.764c3.702,1.756,6.072,5.477,6.1,9.574v56.198 c-0.655,51.311-24.95,99.448-65.839,130.453l-36.356,28.78c-4.785,3.755-11.516,3.755-16.3,0l-36.356-28.78 c-40.889-31.005-65.184-79.143-65.839-130.453v-56.198c0.027-4.098,2.398-7.818,6.1-9.575l94.376-45.779 c6.235-3.014,13.505-3.014,19.739,0L505.9,151.764z"/><circle style="fill:#fff" cx="401.655" cy="232.457" r="64.371"/><path style="fill:#24ae5f" d="M392.461,259.681c-2.341,0.001-4.587-0.93-6.241-2.586l-9.198-9.198 c-3.404-3.454-3.383-9.008,0.046-12.437c3.429-3.429,8.983-3.449,12.437-0.045l2,2l21.478-28.638 c2.923-3.899,8.454-4.691,12.353-1.767s4.691,8.454,1.767,12.353l-27.577,36.785c-1.535,2.049-3.885,3.329-6.44,3.509 C392.879,259.672,392.668,259.681,392.461,259.681z"/></g></svg>