<?xml version="1.0" encoding="iso-8859-1"?>
<!-- Generator: Adobe Illustrator 19.0.0, SVG Export Plug-In . SVG Version: 6.00 Build 0)  -->
<svg version="1.1" id="Capa_1" xmlns="http://www.w3.org/2000/svg" xmlns:xlink="http://www.w3.org/1999/xlink" x="0px" y="0px"
	 viewBox="0 0 512 512" style="enable-background:new 0 0 512 512;" xml:space="preserve">
<g>
	<g>
		<path d="M330.667,362.667H181.333c-5.891,0-10.667,4.776-10.667,10.667v85.333c0,5.891,4.776,10.667,10.667,10.667h149.333
			c5.891,0,10.667-4.776,10.667-10.667v-85.333C341.333,367.442,336.558,362.667,330.667,362.667z M320,448H192v-64h128V448z"/>
	</g>
</g>
<g>
	<g>
		<path d="M362.667,448H149.333c-5.891,0-10.667,4.776-10.667,10.667v32c0,11.782,9.551,21.333,21.333,21.333h192
			c11.782,0,21.333-9.551,21.333-21.333v-32C373.333,452.776,368.558,448,362.667,448z M352,490.667H160v-21.333h192V490.667z"/>
	</g>
</g>
<g>
	<g>
		<path d="M480,0H32C14.327,0,0,14.327,0,32v320c0,17.673,14.327,32,32,32h448c17.673,0,32-14.327,32-32V32
			C512,14.327,497.673,0,480,0z M490.667,352c0,5.891-4.776,10.667-10.667,10.667H32c-5.891,0-10.667-4.776-10.667-10.667V32
			c0-5.891,4.776-10.667,10.667-10.667h448c5.891,0,10.667,4.776,10.667,10.667V352z"/>
	</g>
</g>
<g>
	<g>
		<rect x="117.333" y="490.667" width="277.333" height="21.333"/>
	</g>
</g>
<g>
	<g>
		<path d="M448,53.333H330.667v21.333h106.667v42.667h21.333V64C458.667,58.109,453.891,53.333,448,53.333z"/>
	</g>
</g>
<g>
	<g>
		<path d="M74.667,309.333v-42.667H53.333V320c0,5.891,4.776,10.667,10.667,10.667h117.333v-21.333H74.667z"/>
	</g>
</g>
<g>
	<g>
		<path d="M320,96H192c-17.673,0-32,14.327-32,32h21.333c0-5.891,4.776-10.667,10.667-10.667h128
			c5.891,0,10.667,4.776,10.667,10.667H352C352,110.327,337.673,96,320,96z"/>
	</g>
</g>
<g>
	<g>
		<path d="M330.667,256c0,5.891-4.776,10.667-10.667,10.667H192c-5.891,0-10.667-4.776-10.667-10.667H160c0,17.673,14.327,32,32,32
			h128c17.673,0,32-14.327,32-32H330.667z"/>
	</g>
</g>
<g>
	<g>
		<rect x="245.333" y="277.333" width="21.333" height="42.667"/>
	</g>
</g>
<g>
	<g>
		<rect x="288" y="277.333" width="21.333" height="42.667"/>
	</g>
</g>
<g>
	<g>
		<rect x="202.667" y="277.333" width="21.333" height="42.667"/>
	</g>
</g>
<g>
	<g>
		<rect x="245.333" y="64" width="21.333" height="42.667"/>
	</g>
</g>
<g>
	<g>
		<rect x="288" y="64" width="21.333" height="42.667"/>
	</g>
</g>
<g>
	<g>
		<rect x="202.667" y="64" width="21.333" height="42.667"/>
	</g>
</g>
<g>
	<g>
		<path d="M96.128,181.333c-0.649,0.069-1.304,0.073-1.954,0.012c-5.39-0.507-9.348-5.288-8.841-10.678V128H64v42.667
			c-0.018,0.606-0.018,1.213,0,1.819c0.502,17.171,14.829,30.684,32,30.181h74.667v-21.333H96.128z"/>
	</g>
</g>
<g>
	<g>
		<rect x="128" y="224" width="42.667" height="21.333"/>
	</g>
</g>
<g>
	<g>
		<rect x="128" y="138.667" width="42.667" height="21.333"/>
	</g>
</g>
<g>
	<g>
		<rect x="341.333" y="224" width="42.667" height="21.333"/>
	</g>
</g>
<g>
	<g>
		<rect x="341.333" y="138.667" width="42.667" height="21.333"/>
	</g>
</g>
<g>
	<g>
		<path d="M245.333,149.333H224c-0.295-0.006-0.589-0.006-0.884,0c-11.538,0.244-20.693,9.795-20.449,21.333v64H224v-64h21.333v64
			h21.333v-64c0.006-0.295,0.006-0.589,0-0.884C266.423,158.245,256.871,149.089,245.333,149.333z"/>
	</g>
</g>
<g>
	<g>
		<rect x="288" y="149.333" width="21.333" height="85.333"/>
	</g>
</g>
<g>
	<g>
		<rect x="213.333" y="192" width="42.667" height="21.333"/>
	</g>
</g>
<g>
	<g>
		<path d="M416,181.333h-74.667v21.333h74.539c0.649-0.069,1.304-0.073,1.954-0.012c5.39,0.507,9.348,5.288,8.841,10.678V256H448
			v-42.667c0.018-0.606,0.018-1.213,0-1.819C447.498,194.344,433.171,180.831,416,181.333z"/>
	</g>
</g>
<g>
	<g>
		<path d="M74.667,74.667c-17.673,0-32,14.327-32,32c0,17.673,14.327,32,32,32c17.673,0,32-14.327,32-32
			C106.667,88.994,92.34,74.667,74.667,74.667z M74.667,117.333c-5.891,0-10.667-4.776-10.667-10.667S68.776,96,74.667,96
			c5.891,0,10.667,4.776,10.667,10.667S80.558,117.333,74.667,117.333z"/>
	</g>
</g>
<g>
	<g>
		<path d="M437.333,245.333c-17.673,0-32,14.327-32,32c0,17.673,14.327,32,32,32s32-14.327,32-32
			C469.333,259.66,455.006,245.333,437.333,245.333z M437.333,288c-5.891,0-10.667-4.776-10.667-10.667
			c0-5.891,4.776-10.667,10.667-10.667c5.891,0,10.667,4.776,10.667,10.667C448,283.224,443.224,288,437.333,288z"/>
	</g>
</g>
<g>
	<g>
		<rect x="53.333" y="224" width="21.333" height="21.333"/>
	</g>
</g>
<g>
	<g>
		<rect x="437.333" y="138.667" width="21.333" height="21.333"/>
	</g>
</g>
<g>
</g>
<g>
</g>
<g>
</g>
<g>
</g>
<g>
</g>
<g>
</g>
<g>
</g>
<g>
</g>
<g>
</g>
<g>
</g>
<g>
</g>
<g>
</g>
<g>
</g>
<g>
</g>
<g>
</g>
</svg>
