<?xml version="1.0" encoding="iso-8859-1"?>
<!-- Generator: Adobe Illustrator 19.0.0, SVG Export Plug-In . SVG Version: 6.00 Build 0)  -->
<svg version="1.1" id="Capa_1" xmlns="http://www.w3.org/2000/svg" xmlns:xlink="http://www.w3.org/1999/xlink" x="0px" y="0px"
	 viewBox="0 0 496.008 496.008" style="enable-background:new 0 0 496.008 496.008;" xml:space="preserve">
<g>
	<g>
		<g>
			<path d="M496.004,152c0-13.232-10.768-24-24-24c-2.752,0-5.36,0.56-7.824,1.416l-35.848-44.808
				c2.288-3.672,3.672-7.968,3.672-12.608c0-13.232-10.768-24-24-24c-6.728,0-12.792,2.8-17.152,7.264L327.788,26.16
				c0.064-0.72,0.216-1.416,0.216-2.16c0-13.232-10.768-24-24-24c-10.416,0-19.216,6.712-22.528,16h-90.944
				C187.22,6.712,178.42,0,168.004,0c-13.232,0-24,10.768-24,24c0,0.992,0.176,1.944,0.296,2.912l-39.68,19.84
				C100.3,42.592,94.46,40,88.004,40c-13.232,0-24,10.768-24,24c0,4.64,1.384,8.936,3.672,12.608l-35.848,44.808
				C29.364,120.56,26.756,120,24.004,120c-13.232,0-24,10.768-24,24c0,10.416,6.712,19.216,16,22.528v50.952
				c-9.288,3.304-16,12.104-16,22.52c0,13.232,10.768,24,24,24c8.888,0,16.568-4.912,20.72-12.104l43.672,7.936
				C90.244,271.24,100.084,280,112.004,280c0.32,0,0.624-0.08,0.944-0.096l15.264,38.168c-4.992,4.4-8.208,10.768-8.208,17.928
				c0,13.232,10.768,24,24,24c8.048,0,15.144-4.016,19.496-10.104l68.656,19.616c0.616,9.744,7.016,17.864,15.848,21.016v58.952
				c-9.288,3.312-16,12.112-16,22.528c0,13.232,10.768,24,24,24s24-10.768,24-24c0-10.416-6.712-19.216-16-22.528v-58.952
				c9.288-3.312,16-12.112,16-22.528c0-7.664-3.68-14.424-9.288-18.824l9.552-28.664l71.784,23.928
				c0.192,10.216,6.8,18.816,15.952,22.08v82.952c-9.288,3.312-16,12.112-16,22.528c0,13.232,10.768,24,24,24s24-10.768,24-24
				c0-10.416-6.712-19.216-16-22.528v-82.944c9.288-3.312,16-12.112,16-22.528c0-2.92-0.6-5.688-1.56-8.28l61.384-51.152
				c3.576,2.128,7.712,3.432,12.176,3.432c13.232,0,24-10.768,24-24c0-10.416-6.712-19.216-16-22.528V174.52
				C489.292,171.216,496.004,162.416,496.004,152z M408.004,64c4.408,0,8,3.584,8,8s-3.592,8-8,8c-4.408,0-8-3.584-8-8
				S403.596,64,408.004,64z M396.628,93c3.4,1.856,7.24,3,11.376,3c2.752,0,5.352-0.56,7.816-1.416l35.848,44.816
				c-2.28,3.672-3.664,7.96-3.664,12.6c0,1.288,0.184,2.528,0.384,3.768l-56.672,30.912l-41.272-34.392
				c0.96-2.6,1.56-5.368,1.56-8.288c0-3.248-0.664-6.352-1.84-9.176L396.628,93z M296.004,224c-3.696,0-7.152,0.904-10.28,2.408
				l-33.896-33.896l59.84-31.032c4.296,4.016,10.008,6.52,16.336,6.52c4.464,0,8.592-1.304,12.176-3.432l36.424,30.352
				l-64.664,35.272C307.692,226.384,302.148,224,296.004,224z M304.004,248c0,4.416-3.592,8-8,8c-4.408,0-8-3.584-8-8
				c0-4.416,3.592-8,8-8C300.412,240,304.004,243.584,304.004,248z M183.052,159.896l13.432,43.28l-68.144,35.336
				c-2.856-2.664-6.352-4.6-10.24-5.632l-11.088-85.024l54.816-2.744C165.308,153.544,173.468,159.512,183.052,159.896z
				 M176.004,136c0-4.416,3.592-8,8-8s8,3.584,8,8s-3.592,8-8,8S176.004,140.416,176.004,136z M201.292,218.712l20.288,65.384
				l-85.624-28.544c-0.016-0.96-0.16-1.888-0.288-2.816L201.292,218.712z M201.236,164.552l23.824,23.816l-14.152,7.336
				L201.236,164.552z M205.604,146.28c1.496-3.128,2.4-6.584,2.4-10.28c0-3.408-0.736-6.64-2.016-9.576l37.984-35.456l61.232,45.92
				c-0.712,2.272-1.2,4.624-1.2,7.112c0,1.12,0.184,2.184,0.328,3.264l-64.376,33.376L205.604,146.28z M320.004,144
				c0-4.416,3.592-8,8-8c4.408,0,8,3.584,8,8s-3.592,8-8,8C323.596,152,320.004,148.416,320.004,144z M389.828,205.936l57.32,47.768
				l-124.2-11.288L389.828,205.936z M304.004,16c4.408,0,8,3.584,8,8s-3.592,8-8,8c-4.408,0-8-3.584-8-8S299.596,16,304.004,16z
				 M293.012,45.208c3.304,1.72,7.008,2.792,10.992,2.792c6.728,0,12.792-2.8,17.16-7.272l63.056,29.104
				c-0.064,0.728-0.216,1.424-0.216,2.168c0,3.256,0.664,6.352,1.84,9.184L339.38,123c-3.4-1.856-7.24-3-11.376-3
				c-4.912,0-9.48,1.496-13.288,4.04l-58.864-44.152L293.012,45.208z M281.476,32c0.192,0.52,0.328,1.064,0.544,1.568l-39.176,36.56
				L192.004,32H281.476z M168.004,16c4.408,0,8,3.584,8,8s-3.592,8-8,8s-8-3.584-8-8S163.596,16,168.004,16z M112.004,64
				c0-0.992-0.176-1.944-0.296-2.904l39.68-19.84c4.32,4.152,10.16,6.744,16.616,6.744c4.912,0,9.48-1.496,13.288-4.04
				l49.672,37.256l-35.968,33.568c-3.304-1.72-7.008-2.784-10.992-2.784c-10.832,0-19.904,7.256-22.88,17.128l-56.192,2.808
				l-6.08-46.648C106.62,81.312,112.004,73.312,112.004,64z M88.004,56c4.408,0,8,3.584,8,8s-3.592,8-8,8s-8-3.584-8-8
				S83.596,56,88.004,56z M80.18,86.584c0.928,0.32,1.84,0.664,2.808,0.872l5.904,45.288L46.18,134.88
				c-0.504-1.224-1.152-2.368-1.848-3.488L80.18,86.584z M24.004,136c4.408,0,8,3.584,8,8s-3.592,8-8,8s-8-3.584-8-8
				S19.596,136,24.004,136z M24.004,248c-4.408,0-8-3.584-8-8s3.592-8,8-8s8,3.584,8,8S28.412,248,24.004,248z M91.284,244.104
				l-43.664-7.936c-1.416-8.712-7.496-15.8-15.616-18.696V166.52c7.144-2.552,12.68-8.352,14.88-15.656l44.096-2.208l11.152,85.52
				C97.54,236.264,93.788,239.76,91.284,244.104z M112.004,264c-4.408,0-8-3.584-8-8c0-4.416,3.592-8,8-8s8,3.584,8,8
				C120.004,260.416,116.412,264,112.004,264z M144.004,344c-4.408,0-8-3.584-8-8c0-4.416,3.592-8,8-8s8,3.584,8,8
				C152.004,340.416,148.412,344,144.004,344z M236.516,354.104l-68.656-19.616C167.052,321.968,156.724,312,144.004,312
				c-0.32,0-0.624,0.08-0.944,0.096l-15.264-38.168c1.112-0.984,2.12-2.056,3.04-3.224l96.592,32.2l14.264,45.952
				C239.716,350.344,237.956,352.096,236.516,354.104z M256.004,480c-4.408,0-8-3.584-8-8c0-4.416,3.592-8,8-8c4.408,0,8,3.584,8,8
				C264.004,476.416,260.412,480,256.004,480z M256.004,376c-4.408,0-8-3.584-8-8c0-4.416,3.592-8,8-8c4.408,0,8,3.584,8,8
				C264.004,372.416,260.412,376,256.004,376z M256.276,341.888l-10.168-32.752l18.976,6.328L256.276,341.888z M270.148,300.28
				l-29.872-9.96l-24.544-79.088l21.2-10.992l37.48,37.48c-1.504,3.128-2.408,6.584-2.408,10.28c0,7.664,3.68,14.432,9.296,18.824
				L270.148,300.28z M376.004,480c-4.408,0-8-3.584-8-8c0-4.416,3.592-8,8-8c4.408,0,8,3.584,8,8
				C384.004,476.416,380.412,480,376.004,480z M376.004,352c-4.408,0-8-3.584-8-8c0-4.416,3.592-8,8-8c4.408,0,8,3.584,8,8
				C384.004,348.416,380.412,352,376.004,352z M388.18,323.424c-3.584-2.12-7.712-3.424-12.176-3.424
				c-7.664,0-14.432,3.68-18.824,9.296l-71.856-23.952l11.128-33.392c9.456-0.176,17.544-5.84,21.288-13.944l131.088,11.912
				c0.208,0.8,0.448,1.584,0.736,2.352L388.18,323.424z M404.94,197.688l51.128-27.888c2.296,2.064,4.976,3.664,7.944,4.72v66.952
				c-1.472,0.528-2.864,1.176-4.184,1.96L404.94,197.688z M472.004,272c-4.408,0-8-3.584-8-8c0-4.416,3.592-8,8-8
				c4.408,0,8,3.584,8,8C480.004,268.416,476.412,272,472.004,272z M472.004,160c-4.408,0-8-3.584-8-8s3.592-8,8-8
				c4.408,0,8,3.584,8,8S476.412,160,472.004,160z"/>
			<rect x="16.004" width="16" height="16"/>
			<rect x="16.004" y="32" width="16" height="16"/>
			<rect x="32.004" y="16" width="16" height="16"/>
			<rect x="0.004" y="16" width="16" height="16"/>
			<rect x="416.004" y="368" width="16" height="16"/>
			<rect x="416.004" y="400" width="16" height="16"/>
			<rect x="432.004" y="384" width="16" height="16"/>
			<rect x="400.004" y="384" width="16" height="16"/>
			<rect x="464.004" y="32" width="16" height="16"/>
			<rect x="464.004" y="64" width="16" height="16"/>
			<rect x="480.004" y="48" width="16" height="16"/>
			<rect x="448.004" y="48" width="16" height="16"/>
			<rect x="96.004" y="384" width="16" height="16"/>
			<rect x="96.004" y="416" width="16" height="16"/>
			<rect x="112.004" y="400" width="16" height="16"/>
			<rect x="80.004" y="400" width="16" height="16"/>
			<rect x="48.004" y="296" width="16" height="16"/>
			<rect x="48.004" y="328" width="16" height="16"/>
			<rect x="64.004" y="312" width="16" height="16"/>
			<rect x="32.004" y="312" width="16" height="16"/>
		</g>
	</g>
</g>
<g>
</g>
<g>
</g>
<g>
</g>
<g>
</g>
<g>
</g>
<g>
</g>
<g>
</g>
<g>
</g>
<g>
</g>
<g>
</g>
<g>
</g>
<g>
</g>
<g>
</g>
<g>
</g>
<g>
</g>
</svg>
