<?xml version="1.0" encoding="iso-8859-1"?>
<!-- Generator: Adobe Illustrator 19.0.0, SVG Export Plug-In . SVG Version: 6.00 Build 0)  -->
<svg version="1.1" id="Capa_1" xmlns="http://www.w3.org/2000/svg" xmlns:xlink="http://www.w3.org/1999/xlink" x="0px" y="0px"
	 viewBox="0 0 512 512" style="enable-background:new 0 0 512 512;" xml:space="preserve">
<g>
	<g>
		<path d="M490.667,160h-21.333v21.333h21.333v128H512v-128C512,169.551,502.449,160,490.667,160z"/>
	</g>
</g>
<g>
	<g>
		<path d="M42.667,181.333V160H21.333C9.551,160,0,169.551,0,181.333v128c0,11.782,9.551,21.333,21.333,21.333h21.333v-21.333
			H21.333v-128H42.667z"/>
	</g>
</g>
<g>
	<g>
		<rect x="224" y="42.667" width="64" height="21.333"/>
	</g>
</g>
<g>
	<g>
		<path d="M53.333,32V10.667H32V32c0.062,0.634,0.062,1.273,0,1.907c-0.526,5.365-5.302,9.286-10.667,8.76
			c-5.891,0-10.667,4.776-10.667,10.667v96H32V62.219C45.201,58.232,53.996,45.774,53.333,32z"/>
	</g>
</g>
<g>
	<g>
		<path d="M490.795,42.667c-0.649,0.069-1.304,0.073-1.954,0.012C483.451,42.171,479.493,37.39,480,32V10.667h-21.333V32
			c-0.662,13.774,8.133,26.232,21.333,30.219v87.115h21.333v-96C501.266,47.52,496.607,42.804,490.795,42.667z"/>
	</g>
</g>
<g>
	<g>
		<path d="M426.667,42.667h-53.333V21.333C373.333,9.551,363.782,0,352,0H160c-11.782,0-21.333,9.551-21.333,21.333v21.333H85.333
			c-17.673,0-32,14.327-32,32V416c0,17.673,14.327,32,32,32h21.333c0,11.782,9.551,21.333,21.333,21.333h85.333V448H128v-10.667
			c0-5.891-4.776-10.667-10.667-10.667h-32c-5.891,0-10.667-4.776-10.667-10.667V74.667C74.667,68.776,79.442,64,85.333,64h64
			C155.224,64,160,59.224,160,53.333v-32h192v32C352,59.224,356.776,64,362.667,64h64c5.891,0,10.667,4.776,10.667,10.667v202.667
			h21.333V74.667C458.667,56.994,444.34,42.667,426.667,42.667z"/>
	</g>
</g>
<g>
	<g>
		<path d="M213.333,320v-21.333h-64C137.551,298.667,128,308.218,128,320v42.667c0,11.782,9.551,21.333,21.333,21.333H192v-21.333
			h-42.667V320H213.333z"/>
	</g>
</g>
<g>
	<g>
		<path d="M170.667,128c-35.346,0-64,28.654-64,64c0,35.346,28.654,64,64,64c35.332-0.035,63.965-28.668,64-64
			C234.667,156.654,206.013,128,170.667,128z M170.667,234.667C147.103,234.667,128,215.564,128,192s19.103-42.667,42.667-42.667
			s42.667,19.103,42.667,42.667S194.231,234.667,170.667,234.667z"/>
	</g>
</g>
<g>
	<g>
		<path d="M392.533,153.6c-21.208-28.277-61.323-34.008-89.6-12.8c-28.277,21.208-34.008,61.323-12.8,89.6l17.067-12.8
			c-5.568-7.37-8.565-16.363-8.533-25.6c0-23.564,19.103-42.667,42.667-42.667C364.898,149.333,384,168.436,384,192
			c0.036,9.238-2.962,18.231-8.533,25.6l17.067,12.8C409.6,207.644,409.6,176.356,392.533,153.6z"/>
	</g>
</g>
<g>
	<g>
		<rect x="160" y="181.333" width="21.333" height="21.333"/>
	</g>
</g>
<g>
	<g>
		<rect x="330.667" y="181.333" width="21.333" height="21.333"/>
	</g>
</g>
<g>
	<g>
		<rect x="181.333" y="42.667" width="21.333" height="21.333"/>
	</g>
</g>
<g>
	<g>
		<rect x="309.333" y="42.667" width="21.333" height="21.333"/>
	</g>
</g>
<g>
	<g>
		<path d="M416,288H288c-17.673,0-32,14.327-32,32h21.333c0-5.891,4.776-10.667,10.667-10.667h128
			c5.891,0,10.667,4.776,10.667,10.667H448C448,302.327,433.673,288,416,288z"/>
	</g>
</g>
<g>
	<g>
		<path d="M426.667,448c0,5.891-4.776,10.667-10.667,10.667H288c-5.891,0-10.667-4.776-10.667-10.667H256c0,17.673,14.327,32,32,32
			h128c17.673,0,32-14.327,32-32H426.667z"/>
	</g>
</g>
<g>
	<g>
		<rect x="341.333" y="469.333" width="21.333" height="42.667"/>
	</g>
</g>
<g>
	<g>
		<rect x="384" y="469.333" width="21.333" height="42.667"/>
	</g>
</g>
<g>
	<g>
		<rect x="298.667" y="469.333" width="21.333" height="42.667"/>
	</g>
</g>
<g>
	<g>
		<rect x="341.333" y="256" width="21.333" height="42.667"/>
	</g>
</g>
<g>
	<g>
		<rect x="384" y="256" width="21.333" height="42.667"/>
	</g>
</g>
<g>
	<g>
		<rect x="298.667" y="256" width="21.333" height="42.667"/>
	</g>
</g>
<g>
	<g>
		<rect x="224" y="373.333" width="42.667" height="21.333"/>
	</g>
</g>
<g>
	<g>
		<rect x="224" y="416" width="42.667" height="21.333"/>
	</g>
</g>
<g>
	<g>
		<rect x="224" y="330.667" width="42.667" height="21.333"/>
	</g>
</g>
<g>
	<g>
		<rect x="437.333" y="373.333" width="42.667" height="21.333"/>
	</g>
</g>
<g>
	<g>
		<rect x="437.333" y="416" width="42.667" height="21.333"/>
	</g>
</g>
<g>
	<g>
		<rect x="437.333" y="330.667" width="42.667" height="21.333"/>
	</g>
</g>
<g>
	<g>
		<path d="M341.333,341.333H320c-0.295-0.006-0.589-0.006-0.884,0c-11.538,0.244-20.693,9.795-20.449,21.333v64H320v-64h21.333v64
			h21.333v-64c0.006-0.295,0.006-0.589,0-0.884C362.423,350.245,352.871,341.089,341.333,341.333z"/>
	</g>
</g>
<g>
	<g>
		<rect x="384" y="341.333" width="21.333" height="85.333"/>
	</g>
</g>
<g>
	<g>
		<rect x="309.333" y="384" width="42.667" height="21.333"/>
	</g>
</g>
<g>
</g>
<g>
</g>
<g>
</g>
<g>
</g>
<g>
</g>
<g>
</g>
<g>
</g>
<g>
</g>
<g>
</g>
<g>
</g>
<g>
</g>
<g>
</g>
<g>
</g>
<g>
</g>
<g>
</g>
</svg>
