<?xml version="1.0" encoding="iso-8859-1"?>
<!-- Generator: Adobe Illustrator 19.0.0, SVG Export Plug-In . SVG Version: 6.00 Build 0)  -->
<svg version="1.1" id="Layer_1" xmlns="http://www.w3.org/2000/svg" xmlns:xlink="http://www.w3.org/1999/xlink" x="0px" y="0px"
	 viewBox="0 0 512 512" style="enable-background:new 0 0 512 512;" xml:space="preserve">
<g>
	<path style="fill:#E8EDEE;" d="M494.345,512H17.655C7.901,512,0,504.099,0,494.345V105.931h512v388.414
		C512,504.099,504.099,512,494.345,512"/>
	<path style="fill:#546A79;" d="M512,105.931H0V17.655C0,7.901,7.901,0,17.655,0h476.69C504.099,0,512,7.901,512,17.655V105.931z"/>
	<path style="fill:#ED7161;" d="M88.276,52.966c0-14.627-11.855-26.483-26.483-26.483S35.31,38.338,35.31,52.966
		s11.855,26.483,26.483,26.483S88.276,67.593,88.276,52.966"/>
	<path style="fill:#ECBA16;" d="M176.552,52.966c0-14.627-11.855-26.483-26.483-26.483s-26.483,11.855-26.483,26.483
		s11.855,26.483,26.483,26.483S176.552,67.593,176.552,52.966"/>
	<g>
		<path style="fill:#42B05C;" d="M264.828,52.966c0-14.627-11.855-26.483-26.483-26.483c-14.627,0-26.483,11.855-26.483,26.483
			s11.855,26.483,26.483,26.483C252.972,79.448,264.828,67.593,264.828,52.966"/>
		<path style="fill:#42B05C;" d="M123.586,158.897H52.966c-4.882,0-8.828-3.955-8.828-8.828c0-4.873,3.946-8.828,8.828-8.828h70.621
			c4.882,0,8.828,3.955,8.828,8.828C132.414,154.942,128.468,158.897,123.586,158.897"/>
	</g>
	<path style="fill:#ECBA16;" d="M123.586,264.828H52.966c-4.882,0-8.828-3.955-8.828-8.828s3.946-8.828,8.828-8.828h70.621
		c4.882,0,8.828,3.955,8.828,8.828S128.468,264.828,123.586,264.828"/>
	<path style="fill:#DD342E;" d="M203.034,211.862H79.448c-4.882,0-8.828-3.955-8.828-8.828c0-4.873,3.946-8.828,8.828-8.828h123.586
		c4.882,0,8.828,3.955,8.828,8.828C211.862,207.907,207.916,211.862,203.034,211.862"/>
	<path style="fill:#7383BF;" d="M203.034,317.793H52.966c-4.882,0-8.828-3.955-8.828-8.828s3.946-8.828,8.828-8.828h150.069
		c4.882,0,8.828,3.955,8.828,8.828S207.916,317.793,203.034,317.793"/>
	<path style="fill:#ECBA16;" d="M176.552,370.759H79.448c-4.882,0-8.828-3.955-8.828-8.828s3.946-8.828,8.828-8.828h97.103
		c4.882,0,8.828,3.955,8.828,8.828S181.433,370.759,176.552,370.759"/>
	<path style="fill:#7383BF;" d="M176.552,476.69H79.448c-4.882,0-8.828-3.955-8.828-8.828s3.946-8.828,8.828-8.828h97.103
		c4.882,0,8.828,3.955,8.828,8.828S181.433,476.69,176.552,476.69"/>
	<path style="fill:#42B05C;" d="M229.517,423.724H105.931c-4.882,0-8.828-3.955-8.828-8.828s3.946-8.828,8.828-8.828h123.586
		c4.882,0,8.828,3.955,8.828,8.828S234.399,423.724,229.517,423.724"/>
	<path style="fill:#0F81E0;" d="M476.69,388.414V229.517c0-9.754-7.901-17.655-17.655-17.655H300.138
		c-9.754,0-17.655,7.901-17.655,17.655v52.966L256,308.966l26.483,26.483v52.966c0,9.754,7.901,17.655,17.655,17.655h158.897
		C468.789,406.069,476.69,398.168,476.69,388.414"/>
	<g>
		<path style="fill:#FFFFFF;" d="M353.103,370.759c-14.601,0-26.483-11.882-26.483-26.483v-14.009l-15.086-15.192
			c-1.651-1.66-2.578-3.902-2.569-6.25c0.009-2.339,0.945-4.582,2.604-6.232l15.051-14.954v-13.983
			c0-14.601,11.882-26.483,26.483-26.483c4.882,0,8.828,3.955,8.828,8.828s-3.946,8.828-8.828,8.828
			c-4.785,0-8.828,4.043-8.828,8.828v17.655c0,2.348-0.936,4.599-2.604,6.259l-11.396,11.326l11.432,11.502
			c1.651,1.651,2.569,3.893,2.569,6.223v17.655c0,4.785,4.043,8.828,8.828,8.828c4.882,0,8.828,3.955,8.828,8.828
			S357.985,370.759,353.103,370.759"/>
		<path style="fill:#FFFFFF;" d="M406.069,370.759c-4.882,0-8.828-3.955-8.828-8.828s3.946-8.828,8.828-8.828
			c4.785,0,8.828-4.043,8.828-8.828v-17.655c0-2.339,0.927-4.59,2.586-6.241l11.414-11.414l-11.414-11.414
			c-1.66-1.651-2.586-3.902-2.586-6.241v-17.655c0-4.785-4.043-8.828-8.828-8.828c-4.882,0-8.828-3.955-8.828-8.828
			s3.946-8.828,8.828-8.828c14.601,0,26.483,11.882,26.483,26.483v14.001l15.069,15.069c3.452,3.452,3.452,9.031,0,12.482
			l-15.069,15.069v14.001C432.552,358.877,420.67,370.759,406.069,370.759"/>
	</g>
</g>
<g>
</g>
<g>
</g>
<g>
</g>
<g>
</g>
<g>
</g>
<g>
</g>
<g>
</g>
<g>
</g>
<g>
</g>
<g>
</g>
<g>
</g>
<g>
</g>
<g>
</g>
<g>
</g>
<g>
</g>
</svg>
