<?xml version="1.0" encoding="iso-8859-1"?>
<!-- Generator: Adobe Illustrator 19.0.0, SVG Export Plug-In . SVG Version: 6.00 Build 0)  -->
<svg version="1.1" id="Layer_1" xmlns="http://www.w3.org/2000/svg" xmlns:xlink="http://www.w3.org/1999/xlink" x="0px" y="0px"
	 viewBox="0 0 512 512" style="enable-background:new 0 0 512 512;" xml:space="preserve">
<g>
	<path style="fill:#42B05C;" d="M406.069,512H105.931C47.431,512,0,464.569,0,406.069V105.931C0,47.431,47.431,0,105.931,0h300.138
		C464.569,0,512,47.431,512,105.931v300.138C512,464.569,464.569,512,406.069,512"/>
	<g>
		<path style="fill:#FFFFFF;" d="M185.414,353.082c-2.26,0-4.52-0.865-6.241-2.586l-87.729-87.72c-1.095-0.9-1.96-2.048-2.525-3.399
			c-1.368-3.302-0.689-7.089,1.836-9.622l88.338-88.329c3.452-3.452,9.039-3.452,12.482,0c3.452,3.452,3.452,9.039,0,12.482
			l-82.017,82.017l82.097,82.088c3.452,3.452,3.452,9.031,0,12.482C189.933,352.217,187.674,353.082,185.414,353.082"/>
		<path style="fill:#FFFFFF;" d="M327.008,353.159c-2.26,0-4.52-0.865-6.241-2.587c-3.452-3.452-3.452-9.031,0-12.482l82.017-82.017
			l-82.097-82.088c-3.443-3.443-3.443-9.031,0-12.482c3.452-3.452,9.039-3.452,12.482,0l87.729,87.729
			c1.095,0.892,1.96,2.039,2.525,3.39c1.368,3.302,0.689,7.097-1.836,9.622l-88.338,88.329
			C331.528,352.294,329.268,353.159,327.008,353.159"/>
		<path style="fill:#FFFFFF;" d="M229.517,353.108c-0.839,0-1.686-0.124-2.534-0.371c-4.67-1.404-7.318-6.329-5.923-10.999
			l52.966-176.552c1.395-4.661,6.303-7.345,10.99-5.914c4.67,1.395,7.318,6.321,5.923,10.99l-52.965,176.552
			C236.826,350.636,233.322,353.108,229.517,353.108"/>
	</g>
</g>
<g>
</g>
<g>
</g>
<g>
</g>
<g>
</g>
<g>
</g>
<g>
</g>
<g>
</g>
<g>
</g>
<g>
</g>
<g>
</g>
<g>
</g>
<g>
</g>
<g>
</g>
<g>
</g>
<g>
</g>
</svg>
