<?xml version="1.0"?>
<svg xmlns="http://www.w3.org/2000/svg" xmlns:xlink="http://www.w3.org/1999/xlink" version="1.1" id="Capa_1" x="0px" y="0px" viewBox="0 0 60 60" style="enable-background:new 0 0 60 60;" xml:space="preserve" width="512px" height="512px"><g><g>
	<path d="M16,24.5c-2.206,0-4,1.794-4,4s1.794,4,4,4s4-1.794,4-4S18.206,24.5,16,24.5z M16,30.5c-1.103,0-2-0.897-2-2s0.897-2,2-2   s2,0.897,2,2S17.103,30.5,16,30.5z" data-original="#000000" class="active-path" data-old_color="#5A3E3E" fill="#757575"/>
	<path d="M30,24.5c-2.206,0-4,1.794-4,4s1.794,4,4,4s4-1.794,4-4S32.206,24.5,30,24.5z M30,30.5c-1.103,0-2-0.897-2-2s0.897-2,2-2   s2,0.897,2,2S31.103,30.5,30,30.5z" data-original="#000000" class="active-path" data-old_color="#5A3E3E" fill="#757575"/>
	<path d="M44,24.5c-2.206,0-4,1.794-4,4s1.794,4,4,4s4-1.794,4-4S46.206,24.5,44,24.5z M44,30.5c-1.103,0-2-0.897-2-2s0.897-2,2-2   s2,0.897,2,2S45.103,30.5,44,30.5z" data-original="#000000" class="active-path" data-old_color="#5A3E3E" fill="#757575"/>
	<path d="M30,1.5c-16.542,0-30,12.112-30,27c0,5.204,1.646,10.245,4.768,14.604c-0.591,6.537-2.175,11.39-4.475,13.689   c-0.304,0.304-0.38,0.769-0.188,1.153C0.275,58.289,0.625,58.5,1,58.5c0.046,0,0.092-0.003,0.139-0.01   c0.405-0.057,9.813-1.411,16.618-5.339C21.621,54.71,25.737,55.5,30,55.5c16.542,0,30-12.112,30-27S46.542,1.5,30,1.5z M30,53.5   c-3.487,0-6.866-0.569-10.075-1.681c4.075-2.546,4.084-2.726,4.081-3.316c-0.002-0.349-0.191-0.682-0.491-0.861   c-0.455-0.273-1.041-0.143-1.338,0.29c-0.548,0.435-2.904,1.945-5.014,3.248c0,0-0.001,0-0.001,0   c-4.466,2.697-10.476,4.202-13.81,4.881c2.202-3.67,3.091-8.985,3.44-13.16c0.02-0.241-0.048-0.481-0.191-0.677   C3.591,38.143,2,33.396,2,28.5c0-13.785,12.561-25,28-25s28,11.215,28,25S45.439,53.5,30,53.5z" data-original="#000000" class="active-path" data-old_color="#5A3E3E" fill="#757575"/>
</g></g> </svg>
