<?xml version="1.0" encoding="iso-8859-1"?>
<!-- Generator: Adobe Illustrator 19.0.0, SVG Export Plug-In . SVG Version: 6.00 Build 0)  -->
<svg version="1.1" id="Capa_1" xmlns="http://www.w3.org/2000/svg" xmlns:xlink="http://www.w3.org/1999/xlink" x="0px" y="0px"
	 viewBox="0 0 512 512" style="enable-background:new 0 0 512 512;" xml:space="preserve">
<g transform="translate(-1)">
	<polygon style="fill:#95A5A5;" points="311.376,425.22 257,425.22 202.624,425.22 178.898,503.322 257,503.322 335.102,503.322 	
		"/>
	<path style="fill:#5E5F62;" d="M508.661,53.717v328.114H5.339V53.717c-0.391-10.017,7.345-18.487,17.356-19.005h468.61
		C501.316,35.229,509.052,43.699,508.661,53.717z"/>
	<g>
		<path style="fill:#BDC3C7;" d="M508.661,364.475v50.419c0.391,10.017-7.345,18.487-17.356,19.005H22.695
			c-10.011-0.518-17.747-8.988-17.356-19.005v-50.419H508.661z"/>
		<path style="fill:#BDC3C7;" d="M352.458,512H161.542c-4.793,0-8.678-3.885-8.678-8.678c0-4.793,3.885-8.678,8.678-8.678h190.915
			c4.793,0,8.678,3.885,8.678,8.678C361.136,508.115,357.25,512,352.458,512z"/>
	</g>
	<path style="fill:#67B9CC;" d="M57.407,242.983H40.051c-4.793,0-8.678-3.885-8.678-8.678s3.885-8.678,8.678-8.678h17.356
		c4.793,0,8.678,3.885,8.678,8.678S62.199,242.983,57.407,242.983z"/>
	<path style="fill:#F29C1F;" d="M126.831,277.695h-17.356c-4.793,0-8.678-3.885-8.678-8.678c0-4.793,3.885-8.678,8.678-8.678h17.356
		c4.793,0,8.678,3.885,8.678,8.678C135.508,273.81,131.623,277.695,126.831,277.695z"/>
	<path style="fill:#67B9CC;" d="M83.441,277.695h-43.39c-4.793,0-8.678-3.885-8.678-8.678c0-4.793,3.885-8.678,8.678-8.678h43.39
		c4.793,0,8.678,3.885,8.678,8.678C92.119,273.81,88.233,277.695,83.441,277.695z"/>
	<g>
		<path style="fill:#F29C1F;" d="M126.831,242.983H92.119c-4.793,0-8.678-3.885-8.678-8.678s3.885-8.678,8.678-8.678h34.712
			c4.793,0,8.678,3.885,8.678,8.678S131.623,242.983,126.831,242.983z"/>
		<path style="fill:#F29C1F;" d="M176.034,312.407h-66.559c-4.793,0-8.678-3.885-8.678-8.678c0-4.793,3.885-8.678,8.678-8.678
			h66.559c4.793,0,8.678,3.885,8.678,8.678C184.712,308.522,180.827,312.407,176.034,312.407z"/>
	</g>
	<path style="fill:#67B9CC;" d="M74.763,312.407H40.051c-4.793,0-8.678-3.885-8.678-8.678c0-4.793,3.885-8.678,8.678-8.678h34.712
		c4.793,0,8.678,3.885,8.678,8.678C83.441,308.522,79.555,312.407,74.763,312.407z"/>
	<path style="fill:#E6E7E8;" d="M473.949,242.983h-17.356c-4.793,0-8.678-3.885-8.678-8.678s3.885-8.678,8.678-8.678h17.356
		c4.793,0,8.678,3.885,8.678,8.678S478.742,242.983,473.949,242.983z"/>
	<path style="fill:#24AE5F;" d="M404.525,277.695h-17.356c-4.793,0-8.678-3.885-8.678-8.678c0-4.793,3.885-8.678,8.678-8.678h17.356
		c4.793,0,8.678,3.885,8.678,8.678C413.203,273.81,409.318,277.695,404.525,277.695z"/>
	<path style="fill:#E6E7E8;" d="M473.949,277.695h-43.39c-4.793,0-8.678-3.885-8.678-8.678c0-4.793,3.885-8.678,8.678-8.678h43.39
		c4.793,0,8.678,3.885,8.678,8.678C482.627,273.81,478.742,277.695,473.949,277.695z"/>
	<g>
		<path style="fill:#24AE5F;" d="M421.881,242.983h-34.712c-4.793,0-8.678-3.885-8.678-8.678s3.885-8.678,8.678-8.678h34.712
			c4.793,0,8.678,3.885,8.678,8.678S426.674,242.983,421.881,242.983z"/>
		<path style="fill:#24AE5F;" d="M404.525,312.407h-66.559c-4.793,0-8.678-3.885-8.678-8.678c0-4.793,3.885-8.678,8.678-8.678
			h66.559c4.793,0,8.678,3.885,8.678,8.678C413.203,308.522,409.318,312.407,404.525,312.407z"/>
	</g>
	<path style="fill:#E6E7E8;" d="M473.949,312.407h-34.712c-4.793,0-8.678-3.885-8.678-8.678c0-4.793,3.885-8.678,8.678-8.678h34.712
		c4.793,0,8.678,3.885,8.678,8.678C482.627,308.522,478.742,312.407,473.949,312.407z"/>
	<path style="fill:#4482C3;" d="M263.837,335.511l105.465-45.199c5.688-2.438,9.648-7.72,10.393-13.864l31.152-257.003
		c0.598-4.931-0.946-9.881-4.24-13.599S398.584,0,393.617,0H120.383c-4.967,0-9.696,2.128-12.99,5.845
		c-3.294,3.717-4.838,8.668-4.24,13.599l31.152,257.003c0.745,6.144,4.705,11.426,10.393,13.864l105.465,45.199
		C254.529,337.382,259.471,337.382,263.837,335.511z"/>
	<path style="fill:#67B9CC;" d="M166.962,257.38L141.149,44.434c-0.299-2.465,0.473-4.941,2.12-6.799
		c1.647-1.859,4.011-2.923,6.495-2.923h214.472c2.483,0,4.848,1.064,6.495,2.923c1.647,1.859,2.419,4.334,2.12,6.799L347.038,257.38
		c-0.372,3.072-2.352,5.713-5.196,6.932l-81.423,34.896c-2.183,0.936-4.654,0.936-6.837,0l-81.423-34.896
		C169.314,263.094,167.334,260.452,166.962,257.38z"/>
	<path style="fill:#E6E7E8;" d="M343.237,67.169c-1.021-3.789-4.457-6.423-8.381-6.424H179.144c-4.793,0-8.678,3.885-8.678,8.678
		s3.885,8.678,8.678,8.678h123.475l-117.593,68.267c-3.395,1.969-5.045,5.972-4.025,9.761c1.02,3.789,4.457,6.422,8.381,6.421
		h125.44l-8.458,69.763L257,253.462l-49.364-21.148l-4.517-37.263c-0.576-4.76-4.901-8.152-9.661-7.576
		c-4.76,0.576-8.152,4.901-7.576,9.661L191,239.36c0.374,3.071,2.353,5.711,5.195,6.932l57.381,24.589
		c2.186,0.938,4.661,0.938,6.847,0l57.381-24.589c2.842-1.221,4.821-3.862,5.195-6.932l10.237-84.445
		c0.295-2.465-0.479-4.938-2.126-6.796s-4.01-2.922-6.492-2.925h-103l117.593-68.267C342.606,74.96,344.257,70.958,343.237,67.169z"
		/>
</g>
<g>
</g>
<g>
</g>
<g>
</g>
<g>
</g>
<g>
</g>
<g>
</g>
<g>
</g>
<g>
</g>
<g>
</g>
<g>
</g>
<g>
</g>
<g>
</g>
<g>
</g>
<g>
</g>
<g>
</g>
</svg>
