<?xml version="1.0" encoding="iso-8859-1"?>
<!-- Generator: Adobe Illustrator 19.0.0, SVG Export Plug-In . SVG Version: 6.00 Build 0)  -->
<svg version="1.1" id="Capa_1" xmlns="http://www.w3.org/2000/svg" xmlns:xlink="http://www.w3.org/1999/xlink" x="0px" y="0px"
	 viewBox="0 0 512 512" style="enable-background:new 0 0 512 512;" xml:space="preserve">
<polygon style="fill:#CECED1;" points="512,366.689 468.334,366.689 468.334,312.897 512,312.897 512,282.897 468.334,282.897 
	468.334,229.104 512,229.104 512,199.104 468.334,199.104 468.334,145.312 512,145.312 512,115.312 468.334,115.312 468.334,82.454 
	429.547,43.667 396.689,43.667 396.689,0 366.689,0 366.689,43.667 312.897,43.667 312.897,0 282.897,0 282.897,43.667 
	229.105,43.667 229.105,0 199.105,0 199.105,43.667 145.313,43.667 145.313,0 115.313,0 115.313,43.667 82.454,43.667 
	43.667,82.454 43.667,115.312 0,115.312 0,145.312 43.667,145.312 43.667,199.104 0,199.104 0,229.104 43.667,229.104 
	43.667,282.897 0,282.897 0,312.897 43.667,312.897 43.667,366.689 0,366.689 0,396.689 43.667,396.689 43.667,429.547 
	82.454,468.333 115.313,468.333 115.313,512 145.313,512 145.313,468.333 199.105,468.333 199.105,512 229.105,512 229.105,468.333 
	282.897,468.333 282.897,512 312.897,512 312.897,468.333 366.689,468.333 366.689,512 396.689,512 396.689,468.333 
	429.547,468.333 468.334,429.547 468.334,396.689 512,396.689 "/>
<polygon style="fill:#AEADB3;" points="512,145.312 512,115.312 468.334,115.312 468.334,82.454 429.547,43.667 396.689,43.667 
	396.689,0 366.689,0 366.689,43.667 312.897,43.667 312.897,0 282.897,0 282.897,43.667 255.963,43.667 255.963,468.333 
	282.897,468.333 282.897,512 312.897,512 312.897,468.333 366.689,468.333 366.689,512 396.689,512 396.689,468.333 
	429.547,468.333 468.334,429.547 468.334,396.689 512,396.689 512,366.689 468.334,366.689 468.334,312.897 512,312.897 
	512,282.897 468.334,282.897 468.334,229.104 512,229.104 512,199.104 468.334,199.104 468.334,145.312 "/>
<circle style="fill:#FFFFFF;" cx="256" cy="256" r="170.67"/>
<path style="fill:#CBEBFA;" d="M256,85.334c94.257,0,170.667,76.41,170.667,170.667S350.257,426.667,256,426.667"/>
<path style="fill:#FFDB2D;" d="M219.756,262.667v-68.423C219.756,174.259,236.015,158,256,158s36.244,16.259,36.244,36.244v68.423
	h30v-68.423C322.244,157.717,292.528,128,256,128c-36.527,0-66.244,29.717-66.244,66.244v68.423H219.756z"/>
<path style="fill:#FFB22D;" d="M256,128v30c19.985,0,36.244,16.259,36.244,36.244v68.423h30v-68.423
	C322.244,157.717,292.528,128,256,128z"/>
<rect x="152.74" y="236.84" style="fill:#00C47A;" width="206.53" height="123.18"/>
<rect x="255.98" y="236.84" style="fill:#00935C;" width="103.28" height="123.18"/>
<rect x="241" y="271.64" style="fill:#333333;" width="30" height="53.56"/>
<g>
</g>
<g>
</g>
<g>
</g>
<g>
</g>
<g>
</g>
<g>
</g>
<g>
</g>
<g>
</g>
<g>
</g>
<g>
</g>
<g>
</g>
<g>
</g>
<g>
</g>
<g>
</g>
<g>
</g>
</svg>
