<svg xmlns="http://www.w3.org/2000/svg" xmlns:xlink="http://www.w3.org/1999/xlink" id="Capa_1" x="0" y="0" version="1.1" viewBox="0 0 504.123 504.123" xml:space="preserve" style="enable-background:new 0 0 504.123 504.123"><circle style="fill:#e1e6e8" cx="252.062" cy="252.062" r="252.062"/><g><rect style="fill:#183651" width="15.754" height="15.754" x="425.354" y="283.569"/><rect style="fill:#183651" width="15.754" height="15.754" x="425.354" y="231.582"/><rect style="fill:#183651" width="15.754" height="15.754" x="425.354" y="179.594"/><rect style="fill:#183651" width="15.754" height="15.754" x="63.015" y="283.569"/><rect style="fill:#183651" width="15.754" height="15.754" x="63.015" y="231.582"/><rect style="fill:#183651" width="15.754" height="15.754" x="63.015" y="179.594"/><path style="fill:#183651" d="M48.049,168.566c-4.726,0-7.877-3.151-7.877-7.877c0-81.92,66.166-147.298,147.298-147.298 c4.726,0,7.877,3.151,7.877,7.877s-3.151,7.877-7.877,7.877c-72.468,0-131.545,59.077-131.545,131.545 C55.926,164.628,52.775,168.566,48.049,168.566z"/><path style="fill:#183651" d="M48.049,168.566L48.049,168.566c-2.363,0-4.726-0.788-6.302-3.151l-26.782-33.083 c-2.363-3.151-2.363-8.665,0.788-11.028c3.938-3.151,8.665-2.363,11.028,0.788l21.268,25.994l21.268-25.994 c2.363-3.151,7.877-3.938,11.028-0.788c3.151,2.363,3.938,7.877,0.788,11.028l-26.782,33.083 C52.775,166.991,50.412,168.566,48.049,168.566z"/><path style="fill:#183651" d="M316.652,490.732c-4.726,0-7.877-3.151-7.877-7.877s3.151-7.877,7.877-7.877 c72.468,0,131.545-59.077,131.545-131.545c0-4.726,3.151-7.877,7.877-7.877s7.877,3.151,7.877,7.877 C463.951,425.354,397.785,490.732,316.652,490.732z"/><path style="fill:#183651" d="M477.342,382.031l-21.268-25.994l-21.268,25.994c-2.363,3.151-7.877,3.938-11.028,0.788 c-3.151-2.363-3.938-7.877-0.788-11.028l26.782-33.083c1.575-1.575,3.938-3.151,6.302-3.151l0,0c2.363,0,4.726,0.788,6.302,3.151 l26.782,33.083c2.363,3.151,2.363,8.665-0.788,11.028C484.431,385.969,479.705,385.182,477.342,382.031z"/><path style="fill:#183651" d="M482.855,195.348c-4.726,0-7.877-3.151-7.877-7.877c0-72.468-59.077-131.545-131.545-131.545 c-4.726,0-7.877-3.151-7.877-7.877s3.151-7.877,7.877-7.877c81.132,0,147.298,66.166,147.298,147.298 C490.732,191.409,487.582,195.348,482.855,195.348z"/><path style="fill:#183651" d="M371.791,81.132l-33.083-26.782c-1.575-1.575-3.151-3.938-3.151-6.302 c0-2.363,0.788-4.726,3.151-6.302l33.083-26.782c3.151-2.363,8.665-2.363,11.028,0.788c3.151,3.938,2.363,8.665-0.788,11.028 l-25.994,21.268l25.994,21.268c3.151,2.363,3.938,7.877,0.788,11.028C380.455,83.495,375.729,84.283,371.791,81.132z"/><path style="fill:#183651" d="M160.689,463.951c-81.92,0-147.298-66.166-147.298-147.298c0-4.726,3.151-7.877,7.877-7.877 s7.877,3.151,7.877,7.877c0,72.468,59.077,131.545,131.545,131.545c4.726,0,7.877,3.151,7.877,7.877 C168.566,460.8,164.628,463.951,160.689,463.951z"/><path style="fill:#183651" d="M121.305,488.369c-2.363-3.151-2.363-8.665,0.788-11.028l25.994-21.268l-25.994-21.268 c-3.151-2.363-3.938-7.877-0.788-11.028c2.363-3.151,7.877-3.938,11.028-0.788l33.083,26.782c1.575,1.575,3.151,3.938,3.151,6.302 s-0.788,4.726-3.151,6.302l-33.083,26.782C128.394,492.308,123.668,491.52,121.305,488.369z"/></g><path style="fill:#fff" d="M382.818,311.926H121.305c-8.665,0-15.754,7.089-15.754,15.754v51.2	c0,8.665,7.089,15.754,15.754,15.754h262.302c8.665,0,15.754-7.089,15.754-15.754v-51.2	C398.572,319.015,392.271,311.926,382.818,311.926z"/><path style="fill:#183651" d="M382.818,402.511H121.305c-13.391,0-23.631-10.24-23.631-23.631v-51.2	c0-13.391,10.24-23.631,23.631-23.631h262.302c13.391,0,23.631,10.24,23.631,23.631v51.2	C406.449,391.483,396.209,402.511,382.818,402.511z M121.305,319.803c-4.726,0-7.877,3.151-7.877,7.877v51.2	c0,4.726,3.151,7.877,7.877,7.877h262.302c3.938,0,7.877-3.151,7.877-7.877v-51.2c0-4.726-3.151-7.877-7.877-7.877H121.305z"/><rect style="fill:#2aa0da" width="121.305" height="24.418" x="248.911" y="341.071"/><circle style="fill:#173651" cx="143.36" cy="352.886" r="9.452"/><circle style="fill:#f05f50" cx="175.655" cy="352.886" r="9.452"/><circle style="fill:#fcbd5e" cx="207.951" cy="352.886" r="9.452"/><path style="fill:#f05f50" d="M354.462,158.326c0-60.652-49.625-110.277-110.277-110.277v110.277H354.462z"/><path style="fill:#183651" d="M354.462,166.203H244.185c-4.726,0-7.877-3.151-7.877-7.877V48.049c0-4.726,3.151-7.877,7.877-7.877	c65.378,0,118.154,52.775,118.154,118.154C362.338,163.052,359.188,166.203,354.462,166.203z M252.062,150.449h94.523	c-3.938-50.412-44.111-90.585-94.523-94.523V150.449z"/><path style="fill:#fff" d="M275.692,126.818v-40.96c18.117,7.877,33.083,22.843,40.96,40.96H275.692z"/><path style="fill:#fcbd5e" d="M244.185,48.049L244.185,48.049c-60.652,0-110.277,49.625-110.277,110.277	c0,30.72,12.603,58.289,32.295,77.982l77.982-77.982V48.049z"/><path style="fill:#183651" d="M166.203,244.185L166.203,244.185c-2.363,0-3.938-0.788-5.514-2.363	c-22.055-22.055-34.658-51.988-34.658-83.495c0-65.378,52.775-118.154,118.154-118.154c4.726,0,7.877,3.151,7.877,7.877v110.277	c0,2.363-0.788,3.938-2.363,5.514l-77.982,77.982C170.142,243.397,167.778,244.185,166.203,244.185z M236.308,55.926	c-52.775,3.938-94.523,48.049-94.523,102.4c0,24.418,8.665,48.049,24.418,66.954l70.105-70.105V55.926z"/><path style="fill:#fff" d="M170.929,187.471c-15.754-39.385,3.151-84.283,41.748-101.612v59.865L170.929,187.471z"/><path style="fill:#4ebd9e" d="M244.185,158.326l-77.982,77.982c19.692,19.692,47.262,32.295,77.982,32.295l0,0	c60.652,0,110.277-49.625,110.277-110.277L244.185,158.326L244.185,158.326z"/><path style="fill:#183651" d="M244.185,276.48c-31.508,0-61.44-12.603-83.495-34.658c-1.575-1.575-2.363-3.151-2.363-5.514	c0-2.363,0.788-3.938,2.363-5.514l77.982-77.982c1.575-1.575,3.151-2.363,5.514-2.363h110.277c4.726,0,7.877,3.151,7.877,7.877	C362.338,223.705,309.563,276.48,244.185,276.48z M177.231,236.308c18.905,15.754,41.748,24.418,66.954,24.418	c53.563,0,98.462-41.748,102.4-94.523h-99.249L177.231,236.308z"/><path style="fill:#fff" d="M215.04,232.369l41.748-41.748h59.077C299.323,229.218,254.425,247.335,215.04,232.369z"/></svg>