<?xml version="1.0" encoding="iso-8859-1"?>
<!-- Generator: Adobe Illustrator 19.0.0, SVG Export Plug-In . SVG Version: 6.00 Build 0)  -->
<svg version="1.1" id="Capa_1" xmlns="http://www.w3.org/2000/svg" xmlns:xlink="http://www.w3.org/1999/xlink" x="0px" y="0px"
	 viewBox="0 0 513.609 513.609" style="enable-background:new 0 0 513.609 513.609;" xml:space="preserve">
<path style="fill:#35BAF6;" d="M171.471,502.942h-50.379c-13.419,0-24.288-10.869-24.288-24.288V313.897
	c0-13.419,10.869-24.288,24.288-24.288h50.379V502.942z"/>
<path style="fill:#747FFD;" d="M480.804,280.542V222.91c-0.064-0.96-0.117-1.92-0.181-2.88l-1.205-9.675
	c-11.829-94.635-80.533-174.261-173.76-194.389C172.879-12.695,50.586,79.134,34.639,206.814l-1.653,13.216
	c-0.064,0.96-0.117,1.92-0.181,2.88v57.632l42.667-10.667v-43.499l1.525-12.203c8.053-64.512,49.237-121.547,109.835-145.109
	c118.549-46.08,235.68,32.245,249.803,145.301l1.504,12.011v43.499L480.804,280.542z"/>
<path style="fill:#9099FD;" d="M480.623,220.03l-1.205-9.675c-11.829-94.635-80.533-174.261-173.76-194.389
	c-22.069-4.768-43.829-6.133-64.885-4.629c10.859,0.768,21.824,2.24,32.885,4.629c93.227,20.128,161.931,99.755,173.76,194.389
	l1.205,9.675c0.064,0.96,0.117,1.92,0.181,2.88v49.632l32,8V222.91C480.74,221.95,480.687,220.99,480.623,220.03z"/>
<path style="fill:#FACA4F;" d="M96.804,483.742L31.62,474.43c-11.563-1.653-20.149-11.552-20.149-23.232V345.62
	c0-11.68,8.587-21.579,20.149-23.232l65.184-9.312V483.742z"/>
<path style="fill:#35BAF6;" d="M342.138,502.942h50.379c13.419,0,24.288-10.869,24.288-24.288V313.897
	c0-13.419-10.869-24.288-24.288-24.288h-50.379V502.942z"/>
<path style="fill:#FACA4F;" d="M416.804,483.742l65.184-9.312c11.563-1.653,20.149-11.552,20.149-23.232V345.62
	c0-11.68-8.587-21.579-20.149-23.232l-65.184-9.312V483.742z"/>
<path style="fill:#FCDF95;" d="M481.988,322.388l-65.184-9.312v4.576l33.184,4.736c11.563,1.653,20.149,11.552,20.149,23.232
	v105.579c0,11.68-8.587,21.579-20.149,23.232l-33.184,4.736v4.576l65.184-9.312c11.563-1.653,20.149-11.552,20.149-23.232V345.62
	C502.138,333.94,493.551,324.041,481.988,322.388z"/>
<polygon style="fill:#FF5722;" points="236.772,230.473 287.514,279.273 352.58,211.604 343.471,170.292 301.828,162.814 "/>
<path d="M483.503,311.828l-13.365-1.909v-21.056l8.085,2.016c0.853,0.213,1.717,0.32,2.581,0.32c2.357,0,4.672-0.779,6.56-2.261
	c2.592-2.005,4.107-5.109,4.107-8.395l-0.021-58.325l-1.451-13.173C477.391,108.105,404.207,26.334,307.908,5.545
	C241.935-8.684,175.684,4.681,121.306,43.241c-53.675,38.08-89.12,97.216-97.248,162.24l-1.717,13.845l-0.203,61.216
	c0,3.285,1.515,6.389,4.107,8.405c2.581,2.016,5.963,2.731,9.141,1.941l8.085-2.016v21.056l-13.365,1.909
	c-16.704,2.379-29.301,16.907-29.301,33.781v105.579c0,16.885,12.597,31.403,29.301,33.792l59.456,8.491
	c5.6,11.851,17.579,20.128,31.531,20.128h50.379c5.899,0,10.667-4.779,10.667-10.667V289.609c0-5.888-4.768-10.667-10.667-10.667
	h-50.379c-15.669,0-28.789,10.421-33.227,24.64l-23.061,3.296V283.54l13.248-3.317c4.757-1.184,8.085-5.451,8.085-10.347v-42.837
	l1.44-11.541c7.797-62.496,47.317-114.795,103.125-136.491c51.68-20.075,107.541-15.968,153.248,11.307
	c13.045,7.787,24.64,17.227,34.944,27.755l-39.147,40.715l-36.021-6.475c-3.509-0.629-7.104,0.533-9.568,3.104l-65.067,67.659
	c-4.085,4.245-3.947,10.997,0.288,15.083l50.741,48.8c1.995,1.909,4.651,2.976,7.392,2.976c0.075,0,0.139,0,0.213,0
	c2.837-0.053,5.525-1.237,7.477-3.275l65.067-67.669c2.464-2.571,3.499-6.208,2.731-9.685l-7.872-35.744l37.728-39.243
	c17.749,23.456,29.44,51.221,33.205,81.365l1.408,11.36v42.837c0,4.896,3.328,9.163,8.085,10.347l13.248,3.317v23.339l-23.061-3.296
	c-4.437-14.219-17.568-24.64-33.227-24.64h-50.379c-5.899,0-10.667,4.779-10.667,10.667v213.333c0,5.888,4.768,10.667,10.667,10.667
	h50.379c13.963,0,25.931-8.277,31.531-20.128l59.456-8.491c16.704-2.389,29.301-16.917,29.301-33.792V345.62
	C512.804,328.745,500.207,314.217,483.503,311.828z M121.092,300.276h39.712v32h-10.667v21.333h10.667v32h-10.667v21.333h10.667v32
	h-10.667v21.333h10.667v32h-39.712c-7.509,0-13.621-6.112-13.621-13.621V313.897C107.471,306.388,113.583,300.276,121.092,300.276z
	 M86.138,325.374v146.069l-53.013-7.573c-6.272-0.896-10.987-6.336-10.987-12.672v-44.256h21.333v-21.333H22.138V345.62
	c0-6.325,4.715-11.776,10.987-12.672l10.347-1.483v22.144h21.333v-25.184L86.138,325.374z M287.226,264.19l-35.36-34.005
	l53.707-55.851l29.024,5.205l6.347,28.789L287.226,264.19z M447.226,213.044c-7.371-59.04-41.035-110.443-92.341-141.056
	c-51.381-30.667-114.027-35.36-171.904-12.864C119.844,83.668,75.183,142.58,66.404,212.862l-1.525,12.203
	c-0.043,0.437-0.075,0.875-0.075,1.312v35.168l-21.344,5.333l-0.011-43.285l1.771-15.456
	c7.381-59.115,39.616-112.875,88.427-147.499c36.523-25.899,78.965-39.307,122.88-39.307c15.509,0,31.211,1.675,46.891,5.056
	c87.445,18.88,153.931,93.333,165.429,185.28l1.141,9.045l0.149,46.165l-21.333-5.333v-35.168c0-0.448-0.032-0.885-0.085-1.323
	L447.226,213.044z M392.516,492.276h-39.712v-32h10.667v-21.333h-10.667v-32h10.667v-21.333h-10.667v-32h10.667v-21.333h-10.667v-32
	h39.712c7.509,0,13.621,6.112,13.621,13.621v164.747C406.138,486.164,400.026,492.276,392.516,492.276z M480.484,463.87
	l-53.013,7.573V325.374l21.333,3.051v25.184h21.333v-22.144l10.347,1.483c6.272,0.896,10.987,6.347,10.987,12.672v39.989h-21.333
	v21.333h21.333v44.256C491.471,457.534,486.756,462.974,480.484,463.87z"/>
<g>
</g>
<g>
</g>
<g>
</g>
<g>
</g>
<g>
</g>
<g>
</g>
<g>
</g>
<g>
</g>
<g>
</g>
<g>
</g>
<g>
</g>
<g>
</g>
<g>
</g>
<g>
</g>
<g>
</g>
</svg>
