<?xml version="1.0" encoding="iso-8859-1"?>
<!-- Generator: Adobe Illustrator 19.0.0, SVG Export Plug-In . SVG Version: 6.00 Build 0)  -->
<svg version="1.1" id="Capa_1" xmlns="http://www.w3.org/2000/svg" xmlns:xlink="http://www.w3.org/1999/xlink" x="0px" y="0px"
	 viewBox="0 0 512 512" style="enable-background:new 0 0 512 512;" xml:space="preserve">
<path style="fill:#DB4416;" d="M441.217,235.867l-37.982-8.802l18.148-56.896c0,0-95.367-57.707-138.546-66.309
	c-17.809-3.548-35.865-3.548-53.674,0c-43.179,8.602-138.546,66.309-138.546,66.309l18.148,56.896l-38.004,8.807L0,366.34v79.397
	h512v-80.103L441.217,235.867z"/>
<path style="fill:#9A2415;" d="M441.217,235.867l-37.982-8.802l18.148-56.896c0,0-95.367-57.707-138.546-66.309
	c-8.911-1.775-17.885-2.662-26.858-2.661v344.537H512v-80.103L441.217,235.867z"/>
<circle style="fill:#FFECD0;" cx="256" cy="162.958" r="107.09"/>
<path style="fill:#FFD18B;" d="M256,55.863c59.145,0,107.091,47.946,107.091,107.091S315.145,270.044,256,270.044"/>
<path style="fill:#FF4F19;" d="M418.793,168.399l2.103,0.701l-39.924-87.536c-18.27-40.058-54.956-69.109-98.135-77.711
	c-17.809-3.548-35.865-3.548-53.674,0c-43.179,8.602-79.865,37.653-98.135,77.711l-39.934,87.557
	c44.372-14.618,100.296-22.965,158.847-23.612C312.483,144.827,372.439,152.949,418.793,168.399z"/>
<path style="fill:#BF3B13;" d="M380.972,81.565c-18.27-40.058-54.956-69.109-98.135-77.711c-8.911-1.775-17.885-2.662-26.858-2.661
	v144.279c60.353-0.113,117.953,7.975,162.813,22.928l2.103,0.701L380.972,81.565z"/>
<rect x="84.33" y="311.807" style="fill:#4BBAED;" width="343.33" height="199"/>
<rect x="255.98" y="311.807" style="fill:#388CB2;" width="171.69" height="199"/>
<rect x="241" y="396.303" transform="matrix(0.7071 0.7071 -0.7071 0.7071 365.8154 -60.5514)" style="fill:#FFFFFF;" width="30" height="30"/>
<polyline style="fill:#FFF1AB;" points="256,432.516 277.213,411.302 256,390.09 "/>
<g>
</g>
<g>
</g>
<g>
</g>
<g>
</g>
<g>
</g>
<g>
</g>
<g>
</g>
<g>
</g>
<g>
</g>
<g>
</g>
<g>
</g>
<g>
</g>
<g>
</g>
<g>
</g>
<g>
</g>
</svg>
