<?xml version="1.0" encoding="iso-8859-1"?>
<!-- Generator: Adobe Illustrator 19.0.0, SVG Export Plug-In . SVG Version: 6.00 Build 0)  -->
<svg version="1.1" id="Capa_1" xmlns="http://www.w3.org/2000/svg" xmlns:xlink="http://www.w3.org/1999/xlink" x="0px" y="0px"
	 viewBox="0 0 512 512" style="enable-background:new 0 0 512 512;" xml:space="preserve">
<polygon style="fill:#CCEFFF;" points="19.98,321.936 19.98,359.399 0,359.399 0,389.37 19.98,389.37 19.98,426.833 59.941,426.833 
	59.941,321.936 "/>
<polygon style="fill:#ACE3FC;" points="512,359.399 492.02,359.399 492.02,321.936 452.059,321.936 452.059,426.833 492.02,426.833 
	492.02,389.37 512,389.37 "/>
<path style="fill:#7D8AFF;" d="M287.22,0.25H224.78c-96.401,0-174.829,78.428-174.829,174.829v101.9h29.971v-61.94
	c0-79.875,64.984-144.859,144.859-144.859h62.439c79.875,0,144.859,64.984,144.859,144.859v61.94h29.971v-101.9
	C462.049,78.678,383.62,0.25,287.22,0.25z"/>
<path style="fill:#6E76E5;" d="M287.22,0.25H255.75v69.932h31.469c79.875,0,144.859,64.984,144.859,144.859v61.94h29.971v-101.9
	C462.049,78.678,383.62,0.25,287.22,0.25z"/>
<path style="fill:#0C61C6;" d="M124.878,511.75H94.907c-24.789,0-44.956-20.167-44.956-44.956v-204.8h74.927
	c24.789,0,44.956,20.167,44.956,44.956v159.844C169.834,491.583,149.667,511.75,124.878,511.75z"/>
<path style="fill:#0A4EAF;" d="M417.093,511.75h-29.971c-24.789,0-44.956-20.167-44.956-44.956V306.95
	c0-24.789,20.167-44.956,44.956-44.956h74.927v204.8C462.049,491.583,441.881,511.75,417.093,511.75z"/>
<g>
</g>
<g>
</g>
<g>
</g>
<g>
</g>
<g>
</g>
<g>
</g>
<g>
</g>
<g>
</g>
<g>
</g>
<g>
</g>
<g>
</g>
<g>
</g>
<g>
</g>
<g>
</g>
<g>
</g>
</svg>
