<?xml version="1.0" encoding="iso-8859-1"?>
<!-- Generator: Adobe Illustrator 19.0.0, SVG Export Plug-In . SVG Version: 6.00 Build 0)  -->
<svg version="1.1" id="Layer_1" xmlns="http://www.w3.org/2000/svg" xmlns:xlink="http://www.w3.org/1999/xlink" x="0px" y="0px"
	 viewBox="0 0 512 512" style="enable-background:new 0 0 512 512;" xml:space="preserve">
<g>
	<path style="fill:#B0B6BB;" d="M308.145,406.069c-1.836,5.12-6.691,8.828-12.42,8.828h-70.621c-5.729,0-10.593-3.708-12.429-8.828
		H5.102c-2.825,0-5.102,2.286-5.102,5.102v25.106c0,2.816,2.278,5.102,5.102,5.102h501.795c2.816,0,5.102-2.286,5.102-5.102v-25.106
		c0-2.816-2.286-5.102-5.102-5.102H308.145z"/>
	<path style="fill:#E8EDEE;" d="M212.678,406.069c1.836,5.12,6.691,8.828,12.42,8.828h70.621c5.729,0,10.593-3.708,12.429-8.828
		H494.34V97.103c0-14.627-11.855-26.483-26.483-26.483H44.133c-14.627,0-26.483,11.855-26.483,26.483v308.966H212.678z"/>
	<polygon style="fill:#0F81E0;" points="52.963,370.759 459.032,370.759 459.032,105.931 52.963,105.931 	"/>
	<g>
		<path style="fill:#FFFFFF;" d="M211.873,300.151c-2.26,0-4.52-0.865-6.241-2.586l-52.559-52.559
			c-1.024-0.883-1.845-1.995-2.383-3.284c-1.359-3.302-0.653-7.089,1.871-9.613l53.027-53.027c3.443-3.443,9.031-3.443,12.482,0
			c3.443,3.452,3.443,9.039,0,12.482l-46.733,46.742l46.777,46.777c3.452,3.452,3.452,9.031,0,12.482
			C216.392,299.286,214.133,300.151,211.873,300.151"/>
		<path style="fill:#FFFFFF;" d="M300.149,300.198c-2.251,0-4.511-0.856-6.232-2.578c-3.452-3.443-3.46-9.031-0.018-12.482
			l46.645-46.786l-46.645-46.742c-3.443-3.452-3.434-9.048,0.009-12.491c3.46-3.443,9.048-3.425,12.491,0.018l52.86,52.974
			c3.434,3.443,3.434,9.022,0,12.465l-52.86,53.027C304.677,299.333,302.408,300.198,300.149,300.198"/>
		<path style="fill:#FFFFFF;" d="M247.191,300.147c-0.477,0-0.971-0.035-1.465-0.124c-4.802-0.794-8.051-5.349-7.247-10.161
			l17.655-105.94c0.803-4.793,5.297-8.06,10.161-7.247c4.802,0.803,8.051,5.35,7.247,10.161l-17.655,105.94
			C255.171,297.084,251.428,300.147,247.191,300.147"/>
	</g>
</g>
<g>
</g>
<g>
</g>
<g>
</g>
<g>
</g>
<g>
</g>
<g>
</g>
<g>
</g>
<g>
</g>
<g>
</g>
<g>
</g>
<g>
</g>
<g>
</g>
<g>
</g>
<g>
</g>
<g>
</g>
</svg>
