<?xml version="1.0" encoding="iso-8859-1"?>
<!-- Generator: Adobe Illustrator 19.0.0, SVG Export Plug-In . SVG Version: 6.00 Build 0)  -->
<svg xmlns="http://www.w3.org/2000/svg" xmlns:xlink="http://www.w3.org/1999/xlink" version="1.1" id="Layer_1" x="0px" y="0px" viewBox="0 0 512.082 512.082" style="enable-background:new 0 0 512.082 512.082;" xml:space="preserve" width="512" height="512">
<g id="XMLID_132_">
	<g id="XMLID_2268_">
		<g id="XMLID_2217_">
			<g id="XMLID_2178_">
				<path id="XMLID_2110_" style="fill:#FFDC13;" d="M386.915,99.021c-86.777-86.778-227.472-86.778-314.249,0      s-86.778,227.472,0,314.249c86.778,86.778,227.472,86.778,314.249,0L229.79,256.146L386.915,99.021z"/>
				<path id="XMLID_1424_" style="fill:#FFA511;" d="M386.912,413.266c-86.77,86.78-227.47,86.78-314.25,0      c-25.79-25.79-43.92-56.36-54.38-88.85c10.14,16.98,22.83,32.96,38.06,47.44c84.1,79.95,216.36,86.24,308.03,18.87      L386.912,413.266z"/>
				<path id="XMLID_533_" style="fill:#FFED97;" d="M386.912,99.026l-9.62,9.62c-91.28-77.99-231.48-75.09-319.12,8.69      c-2.84,2.71-5.59,5.48-8.24,8.29c6.76-9.31,14.34-18.21,22.73-26.6C159.442,12.246,300.142,12.246,386.912,99.026z"/>
			</g>
			<circle id="XMLID_282_" style="fill:#00F0F5;" cx="320.435" cy="257.394" r="17.063"/>
			<circle id="XMLID_259_" style="fill:#00F0F5;" cx="403.977" cy="257.394" r="17.063"/>
			<circle id="XMLID_233_" style="fill:#00F0F5;" cx="487.52" cy="257.394" r="17.063"/>
		</g>
		<g id="XMLID_2254_">
			<circle id="XMLID_2251_" style="fill:#00F0F5;" cx="197.248" cy="144.394" r="17.063"/>
		</g>
	</g>
	<g id="XMLID_133_">
		<path id="XMLID_134_" d="M220.322,470.637c-53.741-2.356-104.297-24.613-142.353-62.669    c-12.147-12.148-22.815-25.717-31.708-40.327c-5.021-8.247-17.843-0.465-12.813,7.799c9.513,15.63,20.923,30.143,33.915,43.135    c40.716,40.716,94.805,64.527,152.303,67.049c0.112,0.005,0.223,0.007,0.334,0.007c3.991,0,7.311-3.146,7.487-7.172    C227.668,474.32,224.46,470.819,220.322,470.637z"/>
		<path id="XMLID_135_" d="M77.968,104.324c40.595-40.595,94.415-62.871,151.767-62.871c0.727,0,1.456,0.003,2.184,0.011    c4.166,0.06,7.532-3.285,7.573-7.426c0.041-4.143-3.284-7.533-7.426-7.574c-62.194-0.625-120.723,23.271-164.705,67.253    C2.075,159.005-17.794,256.528,16.741,342.169c3.603,8.937,17.525,3.349,13.911-5.609    C-1.629,256.508,16.943,165.35,77.968,104.324z"/>
		<path id="XMLID_143_" d="M240.397,256.146l151.821-151.821c2.929-2.93,2.929-7.678,0-10.607    c-34.15-34.149-77.314-56.346-124.825-64.189c-4.098-0.674-7.946,2.092-8.621,6.178c-0.675,4.087,2.091,7.947,6.178,8.621    c41.935,6.924,80.25,25.816,111.268,54.785l-151.73,151.73c-2.929,2.93-2.929,7.678,0,10.607l151.732,151.732    C342.183,445,299.862,464.445,253.353,469.55c-4.117,0.452-7.089,4.156-6.637,8.273c0.421,3.84,3.67,6.683,7.446,6.683    c0.273,0,0.55-0.016,0.828-0.046c51.678-5.672,100.413-29.071,137.229-65.886c2.929-2.93,2.929-7.678,0-10.607L240.397,256.146z"/>
		<path id="XMLID_144_" d="M295.872,257.394c0,13.544,11.019,24.563,24.563,24.563s24.563-11.019,24.563-24.563    s-11.019-24.563-24.563-24.563S295.872,243.85,295.872,257.394z M329.997,257.394c0,5.272-4.29,9.563-9.563,9.563    s-9.563-4.29-9.563-9.563s4.29-9.563,9.563-9.563S329.997,252.121,329.997,257.394z"/>
		<path id="XMLID_147_" d="M403.977,232.831c-13.544,0-24.563,11.019-24.563,24.563s11.019,24.563,24.563,24.563    s24.563-11.019,24.563-24.563S417.521,232.831,403.977,232.831z M403.977,266.956c-5.272,0-9.563-4.29-9.563-9.563    s4.29-9.563,9.563-9.563c5.273,0,9.563,4.29,9.563,9.563S409.25,266.956,403.977,266.956z"/>
		<path id="XMLID_150_" d="M487.52,232.831c-13.544,0-24.563,11.019-24.563,24.563s11.019,24.563,24.563,24.563    s24.562-11.019,24.562-24.563S501.064,232.831,487.52,232.831z M487.52,266.956c-5.272,0-9.563-4.29-9.563-9.563    s4.29-9.563,9.563-9.563s9.563,4.29,9.563,9.563S492.792,266.956,487.52,266.956z"/>
		<path id="XMLID_155_" d="M172.686,144.394c0,13.544,11.019,24.563,24.563,24.563s24.563-11.019,24.563-24.563    s-11.019-24.562-24.563-24.562S172.686,130.85,172.686,144.394z M206.811,144.394c0,5.272-4.29,9.563-9.563,9.563    s-9.563-4.29-9.563-9.563s4.29-9.563,9.563-9.563S206.811,139.121,206.811,144.394z"/>
	</g>
</g>















</svg>
