<?xml version="1.0" encoding="iso-8859-1"?>
<!-- Generator: Adobe Illustrator 19.0.0, SVG Export Plug-In . SVG Version: 6.00 Build 0)  -->
<svg version="1.1" id="Capa_1" xmlns="http://www.w3.org/2000/svg" xmlns:xlink="http://www.w3.org/1999/xlink" x="0px" y="0px"
	 viewBox="0 0 512 512" style="enable-background:new 0 0 512 512;" xml:space="preserve">
<polygon style="fill:#CECED1;" points="345.667,443.668 345.667,394.668 166.333,394.668 166.333,443.668 138.667,443.668 
	138.667,473.668 373.333,473.668 373.333,443.668 "/>
<polygon style="fill:#838286;" points="345.667,443.668 345.667,394.668 256,394.668 256,473.668 373.333,473.668 373.333,443.668 
	"/>
<rect y="305.001" style="fill:#EEEEEE;" width="512" height="104.67"/>
<rect x="256.14" y="305.001" style="fill:#D0CFD2;" width="255.86" height="104.67"/>
<rect y="38.332" style="fill:#696969;" width="512" height="286"/>
<rect x="256.14" y="38.332" style="fill:#3E3E3E;" width="255.86" height="286"/>
<g>
	<path style="fill:#FFFFFF;" d="M163.86,181.335l20.174,10.717l-14.499,23.536l-20.594-12.609l0.63,22.485h-28.159l0.63-22.485
		l-20.594,12.609l-14.29-23.536l20.174-10.717l-20.174-10.717l14.29-23.536l20.594,12.609l-0.63-22.485h28.159l-0.63,22.485
		l20.594-12.609l14.499,23.536L163.86,181.335z"/>
	<path style="fill:#FFFFFF;" d="M284.264,181.335l20.173,10.717l-14.499,23.536l-20.594-12.609l0.63,22.485h-28.159l0.63-22.485
		l-20.594,12.609l-14.29-23.536l20.174-10.717l-20.174-10.717l14.29-23.536l20.594,12.609l-0.63-22.485h28.159l-0.63,22.485
		l20.594-12.609l14.499,23.536L284.264,181.335z"/>
</g>
<g>
	<path style="fill:#93D6F4;" d="M404.668,181.335l20.174,10.717l-14.5,23.536l-20.594-12.609l0.63,22.485h-28.159l0.63-22.485
		l-20.594,12.609l-14.29-23.536l20.174-10.717l-20.174-10.717l14.29-23.536l20.594,12.609l-0.63-22.485h28.159l-0.63,22.485
		l20.594-12.609l14.5,23.536L404.668,181.335z"/>
	<polygon style="fill:#93D6F4;" points="304.437,170.617 289.938,147.082 269.344,159.69 269.974,137.206 256,137.206 256,225.465 
		269.974,225.465 269.344,202.979 289.938,215.587 304.437,192.052 284.264,181.335 	"/>
</g>
<g>
</g>
<g>
</g>
<g>
</g>
<g>
</g>
<g>
</g>
<g>
</g>
<g>
</g>
<g>
</g>
<g>
</g>
<g>
</g>
<g>
</g>
<g>
</g>
<g>
</g>
<g>
</g>
<g>
</g>
</svg>
