<?xml version="1.0" encoding="iso-8859-1"?>
<!-- Generator: Adobe Illustrator 19.0.0, SVG Export Plug-In . SVG Version: 6.00 Build 0)  -->
<svg version="1.1" id="Capa_1" xmlns="http://www.w3.org/2000/svg" xmlns:xlink="http://www.w3.org/1999/xlink" x="0px" y="0px"
	 viewBox="0 0 496 496" style="enable-background:new 0 0 496 496;" xml:space="preserve">
<path style="fill:#D3A06C;" d="M248,8c-61.856,0-112,50.144-112,112v64h224v-64C360,58.144,309.856,8,248,8z"/>
<path style="fill:#B27946;" d="M312,104c0,20.576,0,51.44,0,80h48v-64C360,58.144,309.856,8,248,8C248,8,312,56,312,104z"/>
<g>
	<path style="fill:#F9E0A6;" d="M304,88l-23.792,21.152c-31.4,27.904-70.52,45.64-112.208,50.848v40
		c0,26.176,12.568,49.408,32,64.008h96.008C315.432,249.408,328,226.168,328,200v-40C328,134.032,319.576,108.768,304,88z"/>
	<path style="fill:#F9E0A6;" d="M168,152c-17.672,0-32,14.328-32,32s14.328,32,32,32h160c17.672,0,32-14.328,32-32s-14.328-32-32-32
		H168z"/>
</g>
<path style="fill:#48C397;" d="M391.176,325.056L368,317.336H128l-23.176,7.728C85.224,331.592,72,349.936,72,370.6V488h352V370.6
	C424,349.936,410.776,331.592,391.176,325.056z"/>
<path style="fill:#F9E0A6;" d="M368,408v24c0,13.256-10.744,24-24,24h-40c-17.672,0-32,14.328-32,32h152v-80H368z"/>
<rect x="368" y="408" style="fill:#EABD8C;" width="56" height="24"/>
<path style="fill:#F9E0A6;" d="M128,408v24c0,13.256,10.744,24,24,24h40c17.672,0,32,14.328,32,32H72v-80H128z"/>
<rect x="72" y="408" style="fill:#EABD8C;" width="56" height="24"/>
<path style="fill:#ECECEC;" d="M344,456H152c-13.256,0-24-10.744-24-24V280c0-8.84,7.16-16,16-16h208c8.84,0,16,7.16,16,16v152
	C368,445.256,357.256,456,344,456z"/>
<rect x="160" y="296" style="fill:#39C3FC;" width="176" height="128"/>
<polygon style="fill:#148CE0;" points="296,296 272,424 336,424 336,296 "/>
<circle cx="288" cy="160" r="8"/>
<path d="M248,232c-13.232,0-24-10.768-24-24h-16c0,22.056,17.944,40,40,40s40-17.944,40-40h-16C272,221.232,261.232,232,248,232z"/>
<path d="M393.712,317.48L376,311.576V280c0-13.232-10.768-24-24-24h-36.08c7.896-9.528,13.536-20.584,16.8-32.48
	C352.536,221.152,368,204.44,368,184v-64C368,53.832,314.168,0,248,0S128,53.832,128,120v64c0,20.44,15.464,37.152,35.272,39.52
	c3.272,11.896,8.904,22.952,16.808,32.48H144c-13.232,0-24,10.768-24,24v31.576l-17.712,5.904C79.392,325.104,64,346.456,64,370.592
	V496h368V370.592C432,346.456,416.608,325.104,393.712,317.48z M388.648,332.648c16.36,5.456,27.352,20.704,27.352,37.944V400h-40
	v-32v-39.568L388.648,332.648z M192,448h-40c-8.824,0-16-7.176-16-16h224c0,8.824-7.176,16-16,16h-40H192z M272.208,464
	c-3.536,4.672-6.184,10.056-7.392,16H231.2c-1.216-5.944-3.856-11.328-7.392-16H272.208z M328,416H168V304h160V416z
	 M335.616,206.648C335.784,204.44,336,202.24,336,200v-38.528c9.288,3.312,16,12.112,16,22.528
	C352,194.552,345.104,203.44,335.616,206.648z M248,16c57.344,0,104,46.656,104,104v32.208c-4.936-3.736-10.696-6.376-17.04-7.504
	c-2.712-22.176-11.128-43.592-24.56-61.504l-5.208-6.952l-30.296,26.92c-28.048,24.928-62.096,41.128-98.888,47.424V120h-16v24.808
	c-5.944,1.216-11.328,3.856-16,7.392V120C144,62.656,190.656,16,248,16z M144,184c0-10.416,6.712-19.216,16-22.528V200
	c0,2.24,0.216,4.44,0.384,6.648C150.896,203.44,144,194.552,144,184z M176,200v-33.208c8.232-1.304,16.376-2.944,24.328-5.16
	C201.104,165.24,204.16,168,208,168c4.416,0,8-3.584,8-8c0-1.128-0.24-2.192-0.664-3.16c25.672-9.232,49.448-23.28,70.176-41.712
	l17.04-15.144C313.848,117.84,320,138.84,320,160v40c0,22.032-9.816,42.256-26.904,56h-90.2C185.824,242.248,176,222.024,176,200z
	 M136,280c0-4.416,3.584-8,8-8h208c4.416,0,8,3.584,8,8v88v48h-16V288H152v128h-16v-48V280z M107.352,332.648L120,328.432V368v32H80
	v-29.408C80,353.352,90.992,338.104,107.352,332.648z M80,416h40v16c0,17.648,14.352,32,32,32h40c10.416,0,19.216,6.712,22.528,16
	H80V416z M281.472,480c3.312-9.288,12.112-16,22.528-16h40c17.648,0,32-14.352,32-32v-16h40v64H281.472z"/>
<polygon points="222.4,387.2 202,360 222.4,332.8 209.6,323.2 182,360 209.6,396.8 "/>
<polygon points="286.4,396.8 314,360 286.4,323.2 273.6,332.8 294,360 273.6,387.2 "/>
<rect x="202.24" y="352.006" transform="matrix(-0.2871 0.9579 -0.9579 -0.2871 658.9029 229.6356)" width="83.52" height="16"/>
<g>
</g>
<g>
</g>
<g>
</g>
<g>
</g>
<g>
</g>
<g>
</g>
<g>
</g>
<g>
</g>
<g>
</g>
<g>
</g>
<g>
</g>
<g>
</g>
<g>
</g>
<g>
</g>
<g>
</g>
</svg>
