<?xml version="1.0" encoding="iso-8859-1"?>
<!-- Generator: Adobe Illustrator 19.0.0, SVG Export Plug-In . SVG Version: 6.00 Build 0)  -->
<svg version="1.1" id="Capa_1" xmlns="http://www.w3.org/2000/svg" xmlns:xlink="http://www.w3.org/1999/xlink" x="0px" y="0px"
	 viewBox="0 0 480.032 480.032" style="enable-background:new 0 0 480.032 480.032;" xml:space="preserve">
<path style="fill:#E6E6E6;" d="M296.032,440.016h-288v-352l48-48h240V440.016z"/>
<path style="fill:#0071BC;" d="M56.032,40.016v48h-48L56.032,40.016z"/>
<path style="fill:#B3B3B3;" d="M456.032,387.408v52.608h-32l-22.256-33.376L456.032,387.408z"/>
<g>
	<path style="fill:#999999;" d="M360.032,80.016c-21.544-0.168-43.031,2.249-64,7.2v65.6c20.969,4.951,42.456,7.368,64,7.2
		c61.856,0,112-17.912,112-40S421.888,80.016,360.032,80.016L360.032,80.016z"/>
	<path style="fill:#999999;" d="M360.032,224.016c-21.544,0.168-43.031-2.249-64-7.2v64c20.969,4.951,42.456,7.368,64,7.2
		c61.856,0,112-17.912,112-40v-64C472.032,206.104,421.888,224.016,360.032,224.016z"/>
</g>
<g>
	<path style="fill:#666666;" d="M360.032,160.016c-21.544,0.168-43.031-2.249-64-7.2v64c20.969,4.951,42.456,7.368,64,7.2
		c61.856,0,112-17.912,112-40v-64C472.032,142.104,421.888,160.016,360.032,160.016z"/>
	<path style="fill:#666666;" d="M360.032,288.016c-21.544,0.168-43.031-2.249-64-7.2v64c20.969,4.951,42.456,7.368,64,7.2
		c61.856,0,112-17.912,112-40v-64C472.032,270.104,421.888,288.016,360.032,288.016z"/>
</g>
<path style="fill:#999999;" d="M360.032,352.016c-21.544,0.168-43.031-2.249-64-7.2v64c20.969,4.951,42.456,7.368,64,7.2
	c61.856,0,112-17.912,112-40v-64C472.032,334.104,421.888,352.016,360.032,352.016z"/>
<path style="fill:#29ABE2;" d="M56.032,224.016h192v64h-192V224.016z"/>
<path d="M112.032,172.96v19.056h16V172.96l24-12l24,12v19.056h16V172.96l27.576-13.744c2.725-1.362,4.441-4.153,4.424-7.2v-32h16
	v-16H217.92l-25.888-12.944V72.016h-16v19.056l-24,12l-24-12V72.016h-16v19.056l-27.576,13.784c-2.712,1.355-4.425,4.128-4.424,7.16
	v32h-16v16h22.112L112.032,172.96z M208.032,147.072l-24,12l-24-12V116.96l24-12l24,12V147.072z M96.032,116.96l24-12l24,12v30.112
	l-24,12l-24-12V116.96z"/>
<path d="M224.032,72.016h16v16h-16V72.016z"/>
<path d="M64.032,176.016h16v16h-16V176.016z"/>
<path d="M352.032,248.016h16v16h-16V248.016z"/>
<path d="M320.032,248.016h16v16h-16V248.016z"/>
<path d="M384.032,248.016h16v16h-16V248.016z"/>
<path d="M352.032,184.016h16v16h-16V184.016z"/>
<path d="M320.032,184.016h16v16h-16V184.016z"/>
<path d="M384.032,184.016h16v16h-16V184.016z"/>
<path d="M352.032,312.016h16v16h-16V312.016z"/>
<path d="M320.032,312.016h16v16h-16V312.016z"/>
<path d="M384.032,312.016h16v16h-16V312.016z"/>
<path d="M352.032,376.016h16v16h-16V376.016z"/>
<path d="M320.032,376.016h16v16h-16V376.016z"/>
<path d="M384.032,376.016h16v16h-16V376.016z"/>
<path d="M360.032,72.016c-18.796-0.055-37.552,1.732-56,5.336V40.016c0-4.418-3.582-8-8-8h-240c-0.152,0-0.296,0.08-0.448,0.088
	c-0.734,0.04-1.459,0.186-2.152,0.432c-0.237,0.069-0.469,0.152-0.696,0.248c-0.876,0.388-1.675,0.93-2.36,1.6l-48,48
	c-0.671,0.678-1.213,1.472-1.6,2.344C0.664,84.976,0.6,85.224,0.512,85.48c-0.231,0.663-0.368,1.355-0.408,2.056
	C0.104,87.712,0,87.864,0,88.04v351.976c0,4.418,3.582,8,8,8h288.032c4.418,0,8-3.582,8-8V418.68
	c18.448,3.604,37.204,5.391,56,5.336c13.974,0.001,27.93-0.975,41.768-2.92l15.576,23.36c1.484,2.225,3.982,3.56,6.656,3.56h32
	c4.418,0,8-3.582,8-8v-39.144c9.199-5.041,15.22-14.396,16-24.856v-256C480.032,88.816,418.2,72.016,360.032,72.016z
	 M464.032,312.016c0,13.048-40.512,32-104,32c-18.809,0.109-37.578-1.752-56-5.552v-47.656c1,0.2,2.072,0.336,3.088,0.528
	c1.776,0.328,3.584,0.624,5.4,0.92c3.2,0.52,6.4,0.984,9.744,1.4c1.88,0.232,3.744,0.472,5.648,0.664
	c3.552,0.376,7.152,0.656,10.792,0.904c1.696,0.112,3.368,0.264,5.08,0.352c5.36,0.272,10.768,0.44,16.248,0.44
	c3.2,0,6.472-0.072,9.72-0.176c0.872,0,1.736-0.056,2.6-0.096c2.853-0.112,5.704-0.264,8.552-0.456l1.264-0.08
	c3.2-0.232,6.4-0.528,9.6-0.864l2.4-0.264c2.64-0.304,5.256-0.64,7.848-1.008l1.872-0.256c3.072-0.464,6.099-0.976,9.08-1.536
	l2.04-0.4c2.448-0.48,4.864-0.992,7.2-1.544c0.688-0.152,1.376-0.304,2.056-0.472c2.84-0.68,5.6-1.408,8.328-2.192
	c0.496-0.144,0.968-0.296,1.456-0.448c2.256-0.672,4.456-1.384,6.592-2.12c0.672-0.24,1.344-0.464,2.008-0.712
	c2.488-0.896,4.904-1.84,7.2-2.832c0.264-0.12,0.504-0.248,0.8-0.36c2.04-0.904,4-1.856,5.84-2.832l1.728-0.928
	c1.88-1.048,3.688-2.12,5.368-3.248c0.136-0.096,0.296-0.184,0.44-0.28h0.048L464.032,312.016z M464.032,248.016
	c0,13.048-40.512,32-104,32c-5.304,0-10.544-0.16-15.712-0.424c-1.72-0.088-3.384-0.256-5.08-0.376
	c-3.416-0.232-6.824-0.488-10.152-0.8c-1.944-0.208-3.832-0.48-5.736-0.72c-3-0.384-5.976-0.8-8.872-1.272
	c-1.912-0.32-3.76-0.68-5.6-1.032c-1.6-0.32-3.2-0.672-4.8-1.024v-47.52c18.439,3.53,37.178,5.261,55.952,5.168
	c40.064,0,81.856-8,104-23.136V248.016z M464.032,144.88v39.136c0,13.048-40.512,32-104,32c-18.815,0.08-37.586-1.827-56-5.688
	v-47.52c1,0.2,2.072,0.336,3.088,0.528c1.776,0.328,3.584,0.624,5.4,0.92c3.2,0.52,6.4,0.984,9.744,1.4
	c1.88,0.232,3.744,0.472,5.648,0.664c3.552,0.376,7.152,0.656,10.792,0.904c1.696,0.112,3.368,0.264,5.08,0.352
	c5.36,0.272,10.768,0.44,16.248,0.44c3.2,0,6.472-0.072,9.72-0.176c0.872,0,1.736-0.056,2.6-0.096
	c2.853-0.112,5.704-0.264,8.552-0.456l1.264-0.08c3.2-0.232,6.4-0.528,9.6-0.864l2.4-0.264c2.64-0.304,5.256-0.64,7.848-1.008
	l1.872-0.256c3.072-0.464,6.099-0.976,9.08-1.536l2.04-0.4c2.448-0.48,4.864-0.992,7.2-1.544c0.688-0.152,1.376-0.304,2.056-0.472
	c2.84-0.68,5.6-1.408,8.328-2.192c0.496-0.144,0.968-0.296,1.456-0.448c2.256-0.672,4.456-1.384,6.592-2.12
	c0.672-0.24,1.344-0.464,2.008-0.712c2.488-0.896,4.904-1.84,7.2-2.832c0.264-0.12,0.504-0.248,0.8-0.36
	c2.04-0.904,4-1.856,5.84-2.832l1.728-0.928c1.88-1.048,3.688-2.12,5.368-3.248c0.136-0.096,0.296-0.184,0.44-0.28L464.032,144.88z
	 M360.032,88.016c63.488,0,104,18.952,104,32s-40.512,32-104,32c-5.304,0-10.544-0.16-15.712-0.424
	c-1.72-0.088-3.384-0.256-5.08-0.376c-3.416-0.232-6.824-0.488-10.152-0.8c-1.944-0.208-3.832-0.48-5.736-0.72
	c-3-0.384-5.976-0.8-8.872-1.272c-1.912-0.32-3.76-0.68-5.6-1.032c-1.6-0.32-3.2-0.672-4.8-1.024v-52.8
	C322.486,89.771,341.239,87.91,360.032,88.016L360.032,88.016z M48.032,59.328v20.688H27.344L48.032,59.328z M288.032,432.016h-272
	v-336h40c4.418,0,8-3.582,8-8v-40h224V432.016z M448.032,432.016h-19.72l-9.328-13.992c9.925-2.041,19.647-4.97,29.048-8.752
	V432.016z M360.032,408.016c-18.809,0.109-37.578-1.752-56-5.552V354.68c18.448,3.604,37.204,5.391,56,5.336
	c40.072,0,81.864-8,104-23.144v39.144C464.032,389.064,423.52,408.016,360.032,408.016z"/>
<path d="M48.032,352.016h208v16h-208V352.016z"/>
<path d="M48.032,384.016h208v16h-208V384.016z"/>
<path d="M96.032,320.016h160v16h-160V320.016z"/>
<path d="M64.032,320.016h16v16h-16V320.016z"/>
<path d="M248.032,216.016h-192c-4.418,0-8,3.582-8,8v64c0,4.418,3.582,8,8,8h192c4.418,0,8-3.582,8-8v-64
	C256.032,219.598,252.45,216.016,248.032,216.016z M240.032,280.016h-176v-48h176V280.016z"/>
<path d="M208.032,248.016h16v16h-16V248.016z"/>
<path d="M176.032,248.016h16v16h-16V248.016z"/>
<path d="M144.032,248.016h16v16h-16V248.016z"/>
<g>
</g>
<g>
</g>
<g>
</g>
<g>
</g>
<g>
</g>
<g>
</g>
<g>
</g>
<g>
</g>
<g>
</g>
<g>
</g>
<g>
</g>
<g>
</g>
<g>
</g>
<g>
</g>
<g>
</g>
</svg>
