<?xml version="1.0" encoding="iso-8859-1"?>
<!-- Generator: Adobe Illustrator 19.0.0, SVG Export Plug-In . SVG Version: 6.00 Build 0)  -->
<svg version="1.1" id="Capa_1" xmlns="http://www.w3.org/2000/svg" xmlns:xlink="http://www.w3.org/1999/xlink" x="0px" y="0px"
	 viewBox="0 0 480 480" style="enable-background:new 0 0 480 480;" xml:space="preserve">
<path style="fill:#B3B3B3;" d="M354.416,444.832l-44.968-89.936H170.552l-44.968,89.936H354.416z"/>
<path style="fill:#29ABE2;" d="M56,8h368c22.091,0,40,17.909,40,40v272c0,22.091-17.909,40-40,40H56c-22.091,0-40-17.909-40-40V48
	C16,25.909,33.909,8,56,8z"/>
<g>
	<path style="fill:#E6E6E6;" d="M424,360H56c-22.091,0-40-17.909-40-40v-24h448v24C464,342.091,446.091,360,424,360z"/>
	<path style="fill:#E6E6E6;" d="M80,440h320c8.837,0,16,7.163,16,16l0,0c0,8.837-7.163,16-16,16H80c-8.837,0-16-7.163-16-16l0,0
		C64,447.163,71.163,440,80,440z"/>
</g>
<path style="fill:#FBB03B;" d="M180.584,296l4.184-12.872L216,270.464V240.8l-31.2-12.656l-7.568-23.288l17.824-28.592l-17.44-24
	l-32.736,8.144l-19.816-14.4l-2.36-33.552l-28.216-9.176L72.84,129.056H48.336L26.68,103.28L16,106.752V296H180.584z"/>
<path style="fill:#29ABE2;" d="M114.576,296c22.234-29.871,16.043-72.11-13.828-94.344C75.229,182.661,39.904,184.088,16,205.08V296
	H114.576z"/>
<path d="M216,72h216v16H216V72z"/>
<path d="M216,104h136v16H216V104z"/>
<path d="M216,136h136v16H216V136z"/>
<path d="M280,40h152v16H280V40z"/>
<path d="M248,40h16v16h-16V40z"/>
<path d="M232,320h16v16h-16V320z"/>
<path d="M122.344,85.656l11.312-11.312L123.312,64l10.344-10.344l-11.312-11.312l-16,16c-3.123,3.124-3.123,8.188,0,11.312
	L122.344,85.656z"/>
<path d="M181.656,85.656l16-16c3.123-3.124,3.123-8.188,0-11.312l-16-16l-11.312,11.312L180.688,64l-10.344,10.344L181.656,85.656z"
	/>
<path d="M136.404,85.464l16.016-47.998l15.17,5.062l-16.016,47.998L136.404,85.464z"/>
<path d="M416,184h-16v64h-16v-80h-16v80h-16v-40h-16v40h-16v-48h-16v48h-16v-32h-16v32h-16v16h176v-16h-16V184z"/>
<path d="M8,296v24c0.026,26.499,21.501,47.974,48,48h99.056l-32,64H80c-13.255,0-24,10.745-24,24s10.745,24,24,24h320
	c13.255,0,24-10.745,24-24s-10.745-24-24-24h-43.056l-32-64H424c26.499-0.026,47.974-21.501,48-48V48
	c-0.026-26.499-21.501-47.974-48-48H56C29.501,0.026,8.026,21.501,8,48v157.008v0.072V296z M169.6,207.336l7.576,23.288
	c0.729,2.246,2.412,4.056,4.6,4.944L208,246.2v18.88l-26.24,10.632c-2.193,0.884-3.879,2.699-4.6,4.952l-2.4,7.336h-46.088
	c17.928-37.536,2.032-82.499-35.504-100.427c-22.047-10.53-47.833-9.712-69.168,2.195V112.56l18.184,21.648
	c1.52,1.811,3.764,2.856,6.128,2.856H72.8c2.364,0,4.608-1.045,6.128-2.856L97.12,112.56l17.952,5.832l1.984,28.184
	c0.164,2.357,1.362,4.521,3.272,5.912l19.816,14.4c1.917,1.384,4.345,1.855,6.64,1.288l27.464-6.824l11.104,15.272l-14.968,24
	C169.144,202.636,168.857,205.093,169.6,207.336L169.6,207.336z M24,288v-79.2c25.876-20.187,63.218-15.575,83.404,10.302
	C122.99,239.08,124.193,266.744,110.4,288H24z M408,456c0,4.418-3.582,8-8,8H80c-4.418,0-8-3.582-8-8s3.582-8,8-8h320
	C404.418,448,408,451.582,408,456z M339.056,432H140.944l32-64h134.112L339.056,432z M424,352H56c-17.673,0-32-14.327-32-32v-16
	h90.576h0.072H456v16C456,337.673,441.673,352,424,352z M56,16h368c17.673,0,32,14.327,32,32v240H194.04l24.968-10.12
	c3.016-1.224,4.99-4.153,4.992-7.408V240.8c0.001-3.258-1.973-6.191-4.992-7.416L191.2,222.136l-5.264-16.2l15.856-25.44
	c1.72-2.764,1.593-6.294-0.32-8.928l-17.44-24c-1.915-2.637-5.237-3.849-8.4-3.064l-29.088,7.2L132.8,141.72l-2.104-29.84
	c-0.229-3.253-2.41-6.042-5.512-7.048l-28.2-9.168c-3.103-0.988-6.495-0.013-8.6,2.472l-19.256,22.92H52.064L32.8,98.136
	c-2.106-2.488-5.503-3.464-8.608-2.472L24,95.736V48C24,30.327,38.327,16,56,16L56,16z"/>
<g>
</g>
<g>
</g>
<g>
</g>
<g>
</g>
<g>
</g>
<g>
</g>
<g>
</g>
<g>
</g>
<g>
</g>
<g>
</g>
<g>
</g>
<g>
</g>
<g>
</g>
<g>
</g>
<g>
</g>
</svg>
