<?xml version="1.0" encoding="iso-8859-1"?>
<!-- Generator: Adobe Illustrator 19.0.0, SVG Export Plug-In . SVG Version: 6.00 Build 0)  -->
<svg version="1.1" id="Layer_1" xmlns="http://www.w3.org/2000/svg" xmlns:xlink="http://www.w3.org/1999/xlink" x="0px" y="0px"
	 viewBox="0 0 512 512" style="enable-background:new 0 0 512 512;" xml:space="preserve">
<g>
	<path style="fill:#E8EDEE;" d="M494.345,512H17.655C7.901,512,0,504.099,0,494.345V105.931h512v388.414
		C512,504.099,504.099,512,494.345,512"/>
	<path style="fill:#546A79;" d="M512,105.931H0V17.655C0,7.901,7.901,0,17.655,0h476.69C504.099,0,512,7.901,512,17.655V105.931z"/>
	<path style="fill:#ED7161;" d="M88.276,52.966c0-14.627-11.855-26.483-26.483-26.483S35.31,38.338,35.31,52.966
		s11.855,26.483,26.483,26.483S88.276,67.593,88.276,52.966"/>
	<path style="fill:#ECBA16;" d="M176.552,52.966c0-14.627-11.855-26.483-26.483-26.483s-26.483,11.855-26.483,26.483
		s11.855,26.483,26.483,26.483S176.552,67.593,176.552,52.966"/>
	<path style="fill:#42B05C;" d="M264.828,52.966c0-14.627-11.855-26.483-26.483-26.483c-14.627,0-26.483,11.855-26.483,26.483
		s11.855,26.483,26.483,26.483C252.972,79.448,264.828,67.593,264.828,52.966"/>
	<g>
		<path style="fill:#61B972;" d="M185.5,388.414c-2.26,0-4.52-0.865-6.241-2.586l-70.144-70.144
			c-1.05-0.883-1.907-2.022-2.454-3.337c-1.359-3.302-0.671-7.097,1.854-9.622l70.682-70.682c3.452-3.443,9.039-3.443,12.482,0
			c3.452,3.452,3.452,9.039,0,12.482l-64.38,64.38l64.441,64.441c3.452,3.452,3.452,9.031,0,12.482
			C190.02,387.549,187.76,388.414,185.5,388.414"/>
		<path style="fill:#61B972;" d="M326.561,388.474c-2.26,0-4.52-0.865-6.241-2.587c-3.452-3.452-3.452-9.031,0-12.482l64.38-64.38
			l-64.441-64.441c-3.443-3.443-3.443-9.031,0-12.482c3.452-3.443,9.039-3.443,12.482,0l70.144,70.144
			c1.059,0.892,1.907,2.022,2.454,3.337c1.368,3.302,0.671,7.097-1.854,9.622l-70.682,70.682
			C331.08,387.609,328.821,388.474,326.561,388.474"/>
		<path style="fill:#61B972;" d="M238.354,388.414c-0.715,0-1.43-0.079-2.154-0.265c-4.723-1.183-7.601-5.976-6.418-10.708
			l35.31-141.241c1.183-4.723,5.994-7.592,10.708-6.418c4.723,1.183,7.601,5.976,6.418,10.708l-35.31,141.241
			C245.901,385.739,242.308,388.414,238.354,388.414"/>
	</g>
</g>
<g>
</g>
<g>
</g>
<g>
</g>
<g>
</g>
<g>
</g>
<g>
</g>
<g>
</g>
<g>
</g>
<g>
</g>
<g>
</g>
<g>
</g>
<g>
</g>
<g>
</g>
<g>
</g>
<g>
</g>
</svg>
