<?xml version="1.0" encoding="iso-8859-1"?>
<!-- Generator: Adobe Illustrator 19.0.0, SVG Export Plug-In . SVG Version: 6.00 Build 0)  -->
<svg version="1.1" id="Layer_1" xmlns="http://www.w3.org/2000/svg" xmlns:xlink="http://www.w3.org/1999/xlink" x="0px" y="0px"
	 viewBox="0 0 512.004 512.004" style="enable-background:new 0 0 512.004 512.004;" xml:space="preserve">
<g>
	<path style="fill:#B0B6BB;" d="M351.108,467.864H160.9c-1.977,0-2.754-2.71-1.095-3.858l15.925-11.237
		c17.196-12.129,25.318-34.348,20.303-55.526h119.949l-0.009,0.018c-5.005,21.177,3.125,43.405,20.321,55.526l15.916,11.22
		C353.862,465.163,353.085,467.864,351.108,467.864"/>
	<path style="fill:#E8EDEE;" d="M481.121,397.243H30.888C13.833,397.243,0,383.419,0,366.364V39.708
		C0,22.653,13.833,8.829,30.888,8.829h450.233C498.176,8.829,512,22.653,512,39.708v326.656
		C512,383.419,498.176,397.243,481.121,397.243"/>
	<path style="fill:#ED7161;" d="M512.004,317.795h-512V39.708c0-17.055,13.824-30.879,30.879-30.879h450.242
		c17.055,0,30.879,13.824,30.879,30.879V317.795z"/>
	<path style="fill:#E8EDEE;" d="M353.107,503.174H158.9c-9.754,0-17.655-7.901-17.655-17.655s7.901-17.655,17.655-17.655h194.207
		c9.754,0,17.655,7.901,17.655,17.655S362.861,503.174,353.107,503.174"/>
	<g>
		<path style="fill:#FFFFFF;" d="M203.159,247.174c-2.26,0-4.52-0.865-6.241-2.586l-70.144-70.144
			c-1.05-0.883-1.907-2.022-2.454-3.337c-1.359-3.301-0.671-7.097,1.854-9.622l70.682-70.682c3.452-3.443,9.039-3.443,12.482,0
			c3.452,3.452,3.452,9.039,0,12.482l-64.38,64.38l64.441,64.441c3.452,3.452,3.452,9.031,0,12.482
			C207.679,246.309,205.419,247.174,203.159,247.174"/>
		<path style="fill:#FFFFFF;" d="M309.154,247.234c-2.26,0-4.52-0.865-6.241-2.586c-3.452-3.452-3.452-9.031,0-12.482l64.371-64.38
			l-64.433-64.441c-3.452-3.443-3.452-9.031,0-12.482c3.443-3.443,9.031-3.443,12.482,0l70.135,70.135
			c1.059,0.892,1.916,2.03,2.463,3.346c1.368,3.302,0.671,7.097-1.854,9.622l-70.682,70.682
			C313.674,246.369,311.414,247.234,309.154,247.234"/>
		<path style="fill:#FFFFFF;" d="M238.477,247.174c-0.715,0-1.43-0.079-2.154-0.265c-4.723-1.183-7.601-5.976-6.418-10.708
			l35.31-141.241c1.183-4.723,5.994-7.601,10.708-6.418c4.723,1.183,7.601,5.976,6.418,10.708l-35.31,141.241
			C246.025,244.499,242.432,247.174,238.477,247.174"/>
	</g>
</g>
<g>
</g>
<g>
</g>
<g>
</g>
<g>
</g>
<g>
</g>
<g>
</g>
<g>
</g>
<g>
</g>
<g>
</g>
<g>
</g>
<g>
</g>
<g>
</g>
<g>
</g>
<g>
</g>
<g>
</g>
</svg>
