<?xml version="1.0" encoding="iso-8859-1"?>
<!-- Generator: Adobe Illustrator 19.0.0, SVG Export Plug-In . SVG Version: 6.00 Build 0)  -->
<svg version="1.1" id="Capa_1" xmlns="http://www.w3.org/2000/svg" xmlns:xlink="http://www.w3.org/1999/xlink" x="0px" y="0px"
	 viewBox="0 0 512 512" style="enable-background:new 0 0 512 512;" xml:space="preserve">
<g transform="translate(-1)">
	<polygon style="fill:#95A5A5;" points="311.376,425.22 257,425.22 202.624,425.22 178.898,503.322 257,503.322 335.102,503.322 	
		"/>
	<path style="fill:#5E5F62;" d="M48.729,34.712H22.695C12.683,35.229,4.948,43.699,5.339,53.717v336.792
		c-0.391,10.017,7.344,18.487,17.356,19.005h468.61c10.011-0.518,17.747-8.988,17.356-19.005V53.717
		c0.391-10.017-7.344-18.487-17.356-19.005H48.729z"/>
	<g>
		<path style="fill:#BDC3C7;" d="M508.661,364.475v50.419c0.391,10.017-7.345,18.487-17.356,19.005H22.695
			c-10.011-0.518-17.747-8.988-17.356-19.005v-50.419H508.661z"/>
		<path style="fill:#BDC3C7;" d="M352.458,512H161.542c-4.793,0-8.678-3.885-8.678-8.678c0-4.793,3.885-8.678,8.678-8.678h190.915
			c4.793,0,8.678,3.885,8.678,8.678C361.136,508.115,357.25,512,352.458,512z"/>
	</g>
	<g>
		<path style="fill:#D1D4D1;" d="M48.729,269.017h-8.678c-4.793,0-8.678-3.885-8.678-8.678c0-4.793,3.885-8.678,8.678-8.678h8.678
			c4.793,0,8.678,3.885,8.678,8.678C57.407,265.132,53.522,269.017,48.729,269.017z"/>
		<path style="fill:#D1D4D1;" d="M48.729,303.729h-8.678c-4.793,0-8.678-3.885-8.678-8.678c0-4.793,3.885-8.678,8.678-8.678h8.678
			c4.793,0,8.678,3.885,8.678,8.678C57.407,299.844,53.522,303.729,48.729,303.729z"/>
		<path style="fill:#D1D4D1;" d="M48.729,338.441h-8.678c-4.793,0-8.678-3.885-8.678-8.678c0-4.793,3.885-8.678,8.678-8.678h8.678
			c4.793,0,8.678,3.885,8.678,8.678C57.407,334.555,53.522,338.441,48.729,338.441z"/>
	</g>
	<path style="fill:#CC4B4C;" d="M196.254,269.017H83.441c-4.793,0-8.678-3.885-8.678-8.678c0-4.793,3.885-8.678,8.678-8.678h112.814
		c4.793,0,8.678,3.885,8.678,8.678C204.932,265.132,201.047,269.017,196.254,269.017z"/>
	<g>
		<path style="fill:#F29C1F;" d="M291.712,269.017h-60.746c-4.793,0-8.678-3.885-8.678-8.678c0-4.793,3.885-8.678,8.678-8.678
			h60.746c4.793,0,8.678,3.885,8.678,8.678C300.39,265.132,296.505,269.017,291.712,269.017z"/>
		<path style="fill:#F29C1F;" d="M352.458,269.017h-26.034c-4.793,0-8.678-3.885-8.678-8.678c0-4.793,3.885-8.678,8.678-8.678
			h26.034c4.793,0,8.678,3.885,8.678,8.678C361.136,265.132,357.25,269.017,352.458,269.017z"/>
	</g>
	<g>
		<path style="fill:#E6E7E8;" d="M421.881,269.017h-34.712c-4.793,0-8.678-3.885-8.678-8.678c0-4.793,3.885-8.678,8.678-8.678
			h34.712c4.793,0,8.678,3.885,8.678,8.678C430.559,265.132,426.674,269.017,421.881,269.017z"/>
		<path style="fill:#E6E7E8;" d="M473.949,269.017h-17.356c-4.793,0-8.678-3.885-8.678-8.678c0-4.793,3.885-8.678,8.678-8.678
			h17.356c4.793,0,8.678,3.885,8.678,8.678C482.627,265.132,478.742,269.017,473.949,269.017z"/>
	</g>
	<path style="fill:#CC4B4C;" d="M161.542,303.729h-52.068c-4.793,0-8.678-3.885-8.678-8.678c0-4.793,3.885-8.678,8.678-8.678h52.068
		c4.793,0,8.678,3.885,8.678,8.678C170.22,299.844,166.335,303.729,161.542,303.729z"/>
	<path style="fill:#F29C1F;" d="M239.644,303.729h-43.39c-4.793,0-8.678-3.885-8.678-8.678c0-4.793,3.885-8.678,8.678-8.678h43.39
		c4.793,0,8.678,3.885,8.678,8.678C248.322,299.844,244.437,303.729,239.644,303.729z"/>
	<g>
		<path style="fill:#E6E7E8;" d="M309.068,303.729h-34.712c-4.793,0-8.678-3.885-8.678-8.678c0-4.793,3.885-8.678,8.678-8.678
			h34.712c4.793,0,8.678,3.885,8.678,8.678C317.746,299.844,313.861,303.729,309.068,303.729z"/>
		<path style="fill:#E6E7E8;" d="M387.169,303.729h-43.39c-4.793,0-8.678-3.885-8.678-8.678c0-4.793,3.885-8.678,8.678-8.678h43.39
			c4.793,0,8.678,3.885,8.678,8.678C395.847,299.844,391.962,303.729,387.169,303.729z"/>
		<path style="fill:#E6E7E8;" d="M473.949,303.729h-52.068c-4.793,0-8.678-3.885-8.678-8.678c0-4.793,3.885-8.678,8.678-8.678
			h52.068c4.793,0,8.678,3.885,8.678,8.678C482.627,299.844,478.742,303.729,473.949,303.729z"/>
	</g>
	<path style="fill:#CC4B4C;" d="M118.153,338.441H83.441c-4.793,0-8.678-3.885-8.678-8.678c0-4.793,3.885-8.678,8.678-8.678h34.712
		c4.793,0,8.678,3.885,8.678,8.678C126.831,334.555,122.945,338.441,118.153,338.441z"/>
	<g>
		<path style="fill:#F29C1F;" d="M187.576,338.441h-34.712c-4.793,0-8.678-3.885-8.678-8.678c0-4.793,3.885-8.678,8.678-8.678
			h34.712c4.793,0,8.678,3.885,8.678,8.678C196.254,334.555,192.369,338.441,187.576,338.441z"/>
		<path style="fill:#F29C1F;" d="M265.678,338.441h-43.39c-4.793,0-8.678-3.885-8.678-8.678c0-4.793,3.885-8.678,8.678-8.678h43.39
			c4.793,0,8.678,3.885,8.678,8.678C274.356,334.555,270.471,338.441,265.678,338.441z"/>
	</g>
	<g>
		<path style="fill:#E6E7E8;" d="M326.424,338.441H300.39c-4.793,0-8.678-3.885-8.678-8.678c0-4.793,3.885-8.678,8.678-8.678h26.034
			c4.793,0,8.678,3.885,8.678,8.678C335.102,334.555,331.216,338.441,326.424,338.441z"/>
		<path style="fill:#E6E7E8;" d="M413.203,338.441h-52.068c-4.793,0-8.678-3.885-8.678-8.678c0-4.793,3.885-8.678,8.678-8.678
			h52.068c4.793,0,8.678,3.885,8.678,8.678C421.881,334.555,417.996,338.441,413.203,338.441z"/>
		<path style="fill:#E6E7E8;" d="M473.949,338.441h-26.034c-4.793,0-8.678-3.885-8.678-8.678c0-4.793,3.885-8.678,8.678-8.678
			h26.034c4.793,0,8.678,3.885,8.678,8.678C482.627,334.555,478.742,338.441,473.949,338.441z"/>
		<path style="fill:#E6E7E8;" d="M300.39,0H83.441C64.27,0,48.729,15.541,48.729,34.712v121.492c0,23.964,19.426,43.39,43.39,43.39
			h8.678v60.746l60.746-60.746H300.39c19.171,0,34.712-15.541,34.712-34.712V34.712C335.102,15.541,319.561,0,300.39,0z"/>
	</g>
	<path style="fill:#8697CB;" d="M126.831,138.847c-2.302,0.003-4.51-0.912-6.135-2.543l-34.712-34.712
		c-1.628-1.627-2.542-3.834-2.542-6.136c0-2.301,0.915-4.509,2.542-6.136l34.712-34.712c3.395-3.352,8.859-3.335,12.232,0.039
		c3.373,3.374,3.391,8.838,0.038,12.232L104.39,95.458l28.577,28.577c2.481,2.482,3.223,6.214,1.88,9.456
		C133.504,136.733,130.34,138.847,126.831,138.847z"/>
	<g>
		<path style="fill:#F29C1F;" d="M161.542,112.814c-4.793,0-8.678-3.885-8.678-8.678v-43.39c0-4.793,3.885-8.678,8.678-8.678
			s8.678,3.885,8.678,8.678v43.39C170.22,108.928,166.335,112.814,161.542,112.814z"/>
		<path style="fill:#F29C1F;" d="M161.542,138.847c-1.135-0.014-2.257-0.25-3.301-0.695c-1.049-0.442-2.016-1.058-2.86-1.822
			c-0.395-0.425-0.745-0.891-1.042-1.39c-0.345-0.442-0.611-0.941-0.784-1.475c-0.25-0.492-0.424-1.019-0.517-1.564
			c-0.102-0.572-0.16-1.152-0.174-1.733c0.032-2.298,0.931-4.498,2.517-6.161c0.842-0.767,1.81-1.385,2.86-1.826
			c3.242-1.272,6.927-0.561,9.463,1.826c1.584,1.664,2.483,3.864,2.517,6.161c-0.016,0.581-0.074,1.16-0.174,1.733
			c-0.096,0.544-0.272,1.071-0.521,1.564c-0.173,0.534-0.438,1.033-0.784,1.475c-0.343,0.521-0.691,0.953-1.038,1.39
			C166.039,137.914,163.839,138.813,161.542,138.847z"/>
	</g>
	<g>
		<path style="fill:#CC4B4C;" d="M222.288,104.136h-26.034c-4.793,0-8.678-3.885-8.678-8.678s3.885-8.678,8.678-8.678h26.034
			c4.793,0,8.678,3.885,8.678,8.678S227.081,104.136,222.288,104.136z"/>
		<path style="fill:#CC4B4C;" d="M283.034,104.136H257c-4.793,0-8.678-3.885-8.678-8.678s3.885-8.678,8.678-8.678h26.034
			c4.793,0,8.678,3.885,8.678,8.678S287.827,104.136,283.034,104.136z"/>
	</g>
</g>
<g>
</g>
<g>
</g>
<g>
</g>
<g>
</g>
<g>
</g>
<g>
</g>
<g>
</g>
<g>
</g>
<g>
</g>
<g>
</g>
<g>
</g>
<g>
</g>
<g>
</g>
<g>
</g>
<g>
</g>
</svg>
