<?xml version="1.0" encoding="iso-8859-1"?>
<!-- Generator: Adobe Illustrator 19.0.0, SVG Export Plug-In . SVG Version: 6.00 Build 0)  -->
<svg version="1.1" id="Capa_1" xmlns="http://www.w3.org/2000/svg" xmlns:xlink="http://www.w3.org/1999/xlink" x="0px" y="0px"
	 viewBox="0 0 512 512" style="enable-background:new 0 0 512 512;" xml:space="preserve">
<path style="fill:#C5E9F9;" d="M393.024,116.669c-0.642,0-1.284,0.006-1.927,0.019c-4.288-29.553-18.11-56.787-39.819-77.944
	C325.641,13.759,291.804,0,255.999,0s-69.642,13.759-95.278,38.744c-21.71,21.157-35.531,48.391-39.82,77.944
	c-0.642-0.013-1.284-0.019-1.926-0.019c-53.839,0-97.641,43.801-97.641,97.64s43.802,97.64,97.641,97.64h274.05
	c53.839,0,97.64-43.801,97.64-97.64S446.863,116.669,393.024,116.669z"/>
<rect x="311.879" y="298.67" style="fill:#FFB22D;" width="30" height="89.31"/>
<path style="fill:#FFDB2D;" d="M200.118,387.977v-97.249c0-30.813,25.068-55.881,55.881-55.881v-30
	c-47.355,0-85.881,38.526-85.881,85.881v97.249H200.118z"/>
<rect x="131.6" y="363.6" style="fill:#00C47A;" width="248.81" height="148.4"/>
<path style="fill:#84D0F3;" d="M393.024,116.669c-0.642,0-1.284,0.006-1.927,0.019c-4.288-29.553-18.11-56.787-39.819-77.944
	C325.641,13.759,291.804,0,255.999,0c-0.008,0-0.016,0-0.024,0v311.949h137.05c53.839,0,97.64-43.801,97.64-97.64
	S446.863,116.669,393.024,116.669z"/>
<rect x="255.979" y="363.6" style="fill:#00935C;" width="124.43" height="148.4"/>
<rect x="240.999" y="411.02" style="fill:#333333;" width="30" height="53.56"/>
<g>
</g>
<g>
</g>
<g>
</g>
<g>
</g>
<g>
</g>
<g>
</g>
<g>
</g>
<g>
</g>
<g>
</g>
<g>
</g>
<g>
</g>
<g>
</g>
<g>
</g>
<g>
</g>
<g>
</g>
</svg>
