<?xml version="1.0" encoding="iso-8859-1"?>
<!-- Generator: Adobe Illustrator 19.0.0, SVG Export Plug-In . SVG Version: 6.00 Build 0)  -->
<svg version="1.1" id="Capa_1" xmlns="http://www.w3.org/2000/svg" xmlns:xlink="http://www.w3.org/1999/xlink" x="0px" y="0px"
	 viewBox="0 0 512.001 512.001" style="enable-background:new 0 0 512.001 512.001;" xml:space="preserve">
<path style="fill:#EEEEEE;" d="M256.001,0L45.813,59.537v288.32c0,32.506,17.841,62.159,46.56,77.386l163.628,86.758l163.628-86.758
	c28.719-15.228,46.559-44.881,46.559-77.386V59.537L256.001,0z"/>
<path style="fill:#D0CFD2;" d="M256.001,512l163.628-86.758c28.719-15.228,46.559-44.881,46.559-77.386V59.537L256.001,0"/>
<g>
	<path style="fill:#FF4F19;" d="M260.423,301.599c-6.433-20.789-25.835-35.935-48.71-35.935c-28.11,0-50.978,22.869-50.978,50.978
		c0,28.11,22.869,50.978,50.978,50.978c22.875,0,42.277-15.146,48.71-35.936h76.76l129.006-225.23V59.537l-6.709-1.9
		L319.745,301.599H260.423z M211.712,337.534c-11.521,0-20.893-9.373-20.893-20.893c0-11.52,9.373-20.893,20.893-20.893
		c11.52,0,20.893,9.373,20.893,20.893C232.605,328.161,223.233,337.534,211.712,337.534z"/>
	<polygon style="fill:#FF4F19;" points="253.022,0.843 211.638,12.566 160.293,102.21 45.813,102.21 45.813,132.293 
		177.732,132.293 	"/>
	<path style="fill:#FF4F19;" d="M457.295,386.355H248.697l-53.501,93.406l26.593,14.1l44.345-77.423h166.949
		C443.382,408.275,451.615,397.975,457.295,386.355z"/>
	<path style="fill:#FF4F19;" d="M251.578,191.81c6.433,20.789,25.835,35.936,48.71,35.936c28.11,0,50.978-22.869,50.978-50.978
		c0-28.11-22.869-50.978-50.978-50.978c-22.875,0-42.277,15.146-48.71,35.936h-76.761L51.066,377.784
		c3.944,10.875,10.004,20.862,17.844,29.376L192.256,191.81H251.578z M300.289,155.874c11.521,0,20.893,9.373,20.893,20.893
		c0,11.521-9.373,20.893-20.893,20.893s-20.893-9.373-20.893-20.893S288.768,155.874,300.289,155.874z"/>
</g>
<g>
	<path style="fill:#BF3B13;" d="M300.289,125.79c-19.277,0-36.087,10.757-44.748,26.582v48.79
		c8.661,15.825,25.471,26.582,44.748,26.582c28.11,0,50.978-22.869,50.978-50.978S328.398,125.79,300.289,125.79z M300.289,197.662
		c-11.52,0-20.893-9.373-20.893-20.893c0-11.521,9.373-20.893,20.893-20.893c11.521,0,20.893,9.373,20.893,20.893
		C321.183,188.289,311.81,197.662,300.289,197.662z"/>
	<path style="fill:#BF3B13;" d="M459.48,57.636L319.745,301.599h-59.322c-1.105-3.57-2.6-6.968-4.422-10.157v50.4
		c1.821-3.189,3.317-6.587,4.422-10.157h76.76l129.006-225.23V59.537L459.48,57.636z"/>
	<path style="fill:#BF3B13;" d="M253.022,386.355v52.978l13.114-22.894h166.949c10.298-8.164,18.531-18.463,24.211-30.084
		L253.022,386.355L253.022,386.355z"/>
</g>
<g>
</g>
<g>
</g>
<g>
</g>
<g>
</g>
<g>
</g>
<g>
</g>
<g>
</g>
<g>
</g>
<g>
</g>
<g>
</g>
<g>
</g>
<g>
</g>
<g>
</g>
<g>
</g>
<g>
</g>
</svg>
