<?xml version="1.0" encoding="iso-8859-1"?>
<!-- Generator: Adobe Illustrator 19.0.0, SVG Export Plug-In . SVG Version: 6.00 Build 0)  -->
<svg version="1.1" id="Capa_1" xmlns="http://www.w3.org/2000/svg" xmlns:xlink="http://www.w3.org/1999/xlink" x="0px" y="0px"
	 viewBox="0 0 512 512" style="enable-background:new 0 0 512 512;" xml:space="preserve">
<g transform="translate(-1)">
	<polygon style="fill:#95A5A5;" points="311.376,425.22 257,425.22 202.624,425.22 178.898,503.322 257,503.322 335.102,503.322 	
		"/>
	<path style="fill:#5E5F62;" d="M508.661,53.717v328.114H5.339V53.717c-0.391-10.017,7.345-18.487,17.356-19.005h468.61
		C501.316,35.229,509.052,43.699,508.661,53.717z"/>
	<g>
		<path style="fill:#BDC3C7;" d="M508.661,364.475v50.419c0.391,10.017-7.345,18.487-17.356,19.005H22.695
			c-10.011-0.518-17.747-8.988-17.356-19.005v-50.419H508.661z"/>
		<path style="fill:#BDC3C7;" d="M352.458,512H161.542c-4.793,0-8.678-3.885-8.678-8.678c0-4.793,3.885-8.678,8.678-8.678h190.915
			c4.793,0,8.678,3.885,8.678,8.678C361.136,508.115,357.25,512,352.458,512z"/>
	</g>
	<path style="fill:#67B9CC;" d="M57.407,242.983H40.051c-4.793,0-8.678-3.885-8.678-8.678s3.885-8.678,8.678-8.678h17.356
		c4.793,0,8.678,3.885,8.678,8.678S62.199,242.983,57.407,242.983z"/>
	<path style="fill:#F29C1F;" d="M126.831,277.695h-17.356c-4.793,0-8.678-3.885-8.678-8.678c0-4.793,3.885-8.678,8.678-8.678h17.356
		c4.793,0,8.678,3.885,8.678,8.678C135.508,273.81,131.623,277.695,126.831,277.695z"/>
	<path style="fill:#67B9CC;" d="M83.441,277.695h-43.39c-4.793,0-8.678-3.885-8.678-8.678c0-4.793,3.885-8.678,8.678-8.678h43.39
		c4.793,0,8.678,3.885,8.678,8.678C92.119,273.81,88.233,277.695,83.441,277.695z"/>
	<g>
		<path style="fill:#F29C1F;" d="M126.831,242.983H92.119c-4.793,0-8.678-3.885-8.678-8.678s3.885-8.678,8.678-8.678h34.712
			c4.793,0,8.678,3.885,8.678,8.678S131.623,242.983,126.831,242.983z"/>
		<path style="fill:#F29C1F;" d="M176.034,312.407h-66.559c-4.793,0-8.678-3.885-8.678-8.678c0-4.793,3.885-8.678,8.678-8.678
			h66.559c4.793,0,8.678,3.885,8.678,8.678C184.712,308.522,180.827,312.407,176.034,312.407z"/>
	</g>
	<path style="fill:#67B9CC;" d="M74.763,312.407H40.051c-4.793,0-8.678-3.885-8.678-8.678c0-4.793,3.885-8.678,8.678-8.678h34.712
		c4.793,0,8.678,3.885,8.678,8.678C83.441,308.522,79.555,312.407,74.763,312.407z"/>
	<path style="fill:#E6E7E8;" d="M473.949,242.983h-17.356c-4.793,0-8.678-3.885-8.678-8.678s3.885-8.678,8.678-8.678h17.356
		c4.793,0,8.678,3.885,8.678,8.678S478.742,242.983,473.949,242.983z"/>
	<path style="fill:#24AE5F;" d="M404.525,277.695h-17.356c-4.793,0-8.678-3.885-8.678-8.678c0-4.793,3.885-8.678,8.678-8.678h17.356
		c4.793,0,8.678,3.885,8.678,8.678C413.203,273.81,409.318,277.695,404.525,277.695z"/>
	<path style="fill:#E6E7E8;" d="M473.949,277.695h-43.39c-4.793,0-8.678-3.885-8.678-8.678c0-4.793,3.885-8.678,8.678-8.678h43.39
		c4.793,0,8.678,3.885,8.678,8.678C482.627,273.81,478.742,277.695,473.949,277.695z"/>
	<g>
		<path style="fill:#24AE5F;" d="M421.881,242.983h-34.712c-4.793,0-8.678-3.885-8.678-8.678s3.885-8.678,8.678-8.678h34.712
			c4.793,0,8.678,3.885,8.678,8.678S426.674,242.983,421.881,242.983z"/>
		<path style="fill:#24AE5F;" d="M404.525,312.407h-66.559c-4.793,0-8.678-3.885-8.678-8.678c0-4.793,3.885-8.678,8.678-8.678
			h66.559c4.793,0,8.678,3.885,8.678,8.678C413.203,308.522,409.318,312.407,404.525,312.407z"/>
	</g>
	<path style="fill:#E6E7E8;" d="M473.949,312.407h-34.712c-4.793,0-8.678-3.885-8.678-8.678c0-4.793,3.885-8.678,8.678-8.678h34.712
		c4.793,0,8.678,3.885,8.678,8.678C482.627,308.522,478.742,312.407,473.949,312.407z"/>
	<path style="fill:#E57E25;" d="M263.837,335.511l105.465-45.199c5.688-2.438,9.648-7.72,10.393-13.864l31.152-257.003
		c0.598-4.931-0.946-9.881-4.24-13.599S398.584,0,393.617,0H120.383c-4.967,0-9.696,2.128-12.99,5.845
		c-3.294,3.717-4.838,8.668-4.24,13.599l31.152,257.003c0.745,6.144,4.705,11.426,10.393,13.864l105.465,45.199
		C254.529,337.382,259.471,337.382,263.837,335.511z"/>
	<path style="fill:#F29C1F;" d="M166.962,257.38L141.149,44.434c-0.299-2.465,0.473-4.941,2.12-6.799
		c1.647-1.859,4.011-2.923,6.495-2.923h214.472c2.483,0,4.848,1.064,6.495,2.923c1.647,1.859,2.419,4.334,2.12,6.799L347.038,257.38
		c-0.372,3.072-2.352,5.713-5.196,6.932l-81.423,34.896c-2.183,0.936-4.654,0.936-6.837,0l-81.423-34.896
		C169.314,263.094,167.334,260.452,166.962,257.38z"/>
	<path style="fill:#ECF0F1;" d="M326.424,69.424H187.576c-2.484,0-4.849,1.064-6.496,2.924c-1.647,1.859-2.418,4.335-2.119,6.801
		l9.364,78.021c0.098,0.459,0.236,0.909,0.412,1.345c0.101,0.467,0.241,0.924,0.419,1.368c0.294,0.565,0.651,1.095,1.065,1.579
		c0.592,0.975,1.476,1.738,2.527,2.182c0.304,0.215,0.622,0.409,0.951,0.581c1.026,0.426,2.126,0.649,3.237,0.656l0.01-0.001
		l0.003,0.001h110.313l-7.084,58.72L257,242.195l-43.178-18.593l-3.915-32.932c-0.569-4.758-4.886-8.154-9.643-7.588
		s-8.157,4.881-7.594,9.639l4.513,37.924c0.368,3.087,2.359,5.741,5.22,6.958l51.132,22.017c2.211,0.96,4.721,0.96,6.932,0
		l51.131-22.017c2.861-1.216,4.852-3.871,5.22-6.958l8.847-73.386c0.023-0.185-0.052-0.351-0.042-0.534
		c0.011-0.182,0.105-0.336,0.105-0.521c-0.05-0.396-0.129-0.788-0.237-1.173c-0.056-0.576-0.171-1.144-0.343-1.696
		c-0.2-0.511-0.449-1.001-0.746-1.462c-0.491-0.988-1.234-1.829-2.155-2.437c-0.425-0.353-0.885-0.663-1.372-0.925
		c-0.522-0.234-1.066-0.415-1.624-0.54c-0.372-0.155-0.756-0.283-1.147-0.381c-0.185-0.022-0.349,0.052-0.532,0.042
		c-0.183-0.01-0.338-0.106-0.523-0.106H204.648l-7.275-60.746h129.051c4.793,0,8.678-3.885,8.678-8.678
		C335.102,73.309,331.216,69.424,326.424,69.424z"/>
</g>
<g>
</g>
<g>
</g>
<g>
</g>
<g>
</g>
<g>
</g>
<g>
</g>
<g>
</g>
<g>
</g>
<g>
</g>
<g>
</g>
<g>
</g>
<g>
</g>
<g>
</g>
<g>
</g>
<g>
</g>
</svg>
