<?xml version="1.0" encoding="iso-8859-1"?>
<!-- Generator: Adobe Illustrator 19.0.0, SVG Export Plug-In . SVG Version: 6.00 Build 0)  -->
<svg version="1.1" id="Layer_1" xmlns="http://www.w3.org/2000/svg" xmlns:xlink="http://www.w3.org/1999/xlink" x="0px" y="0px"
	 viewBox="0 0 512 512" style="enable-background:new 0 0 512 512;" xml:space="preserve">
<g>
	<path style="fill:#B0B6BB;" d="M308.145,406.069c-1.836,5.12-6.691,8.828-12.42,8.828h-70.621c-5.729,0-10.593-3.708-12.429-8.828
		H5.102c-2.825,0-5.102,2.286-5.102,5.102v25.106c0,2.816,2.278,5.102,5.102,5.102h501.795c2.816,0,5.102-2.286,5.102-5.102v-25.106
		c0-2.816-2.286-5.102-5.102-5.102H308.145z"/>
	<path style="fill:#E8EDEE;" d="M212.678,406.069c1.836,5.12,6.691,8.828,12.42,8.828h70.621c5.729,0,10.593-3.708,12.429-8.828
		H494.34V97.103c0-14.627-11.855-26.483-26.483-26.483H44.133c-14.627,0-26.483,11.855-26.483,26.483v308.966H212.678z"/>
	<polygon style="fill:#7383BF;" points="52.963,370.759 459.032,370.759 459.032,105.931 52.963,105.931 	"/>
	<g>
		<path style="fill:#FFFFFF;" d="M105.928,282.483c-4.873,0-8.828-3.955-8.828-8.828v-70.621c0-4.873,3.955-8.828,8.828-8.828
			c4.873,0,8.828,3.955,8.828,8.828v70.621C114.756,278.528,110.801,282.483,105.928,282.483"/>
		<path style="fill:#FFFFFF;" d="M158.894,282.483c-4.873,0-8.828-3.955-8.828-8.828v-70.621c0-4.873,3.955-8.828,8.828-8.828
			c4.873,0,8.828,3.955,8.828,8.828v70.621C167.721,278.528,163.767,282.483,158.894,282.483"/>
		<path style="fill:#FFFFFF;" d="M220.687,282.483c-4.873,0-8.828-3.955-8.828-8.828v-70.621c0-4.873,3.955-8.828,8.828-8.828
			c4.873,0,8.828,3.955,8.828,8.828v70.621C229.515,278.528,225.56,282.483,220.687,282.483"/>
		<path style="fill:#FFFFFF;" d="M158.894,247.172h-52.966c-4.873,0-8.828-3.955-8.828-8.828s3.955-8.828,8.828-8.828h52.966
			c4.873,0,8.828,3.955,8.828,8.828S163.767,247.172,158.894,247.172"/>
		<path style="fill:#FFFFFF;" d="M247.17,211.862h-52.966c-4.873,0-8.828-3.955-8.828-8.828c0-4.873,3.955-8.828,8.828-8.828h52.966
			c4.873,0,8.828,3.955,8.828,8.828C255.997,207.907,252.043,211.862,247.17,211.862"/>
		<path style="fill:#FFFFFF;" d="M308.963,282.483c-4.873,0-8.828-3.955-8.828-8.828v-70.621c0-4.873,3.955-8.828,8.828-8.828
			c4.873,0,8.828,3.955,8.828,8.828v70.621C317.79,278.528,313.836,282.483,308.963,282.483"/>
		<path style="fill:#FFFFFF;" d="M335.446,211.862H282.48c-4.873,0-8.828-3.955-8.828-8.828c0-4.873,3.955-8.828,8.828-8.828h52.966
			c4.873,0,8.828,3.955,8.828,8.828C344.273,207.907,340.318,211.862,335.446,211.862"/>
		<path style="fill:#FFFFFF;" d="M379.584,233.931h11.034c6.082,0,11.034-4.952,11.034-11.034s-4.952-11.034-11.034-11.034h-11.034
			V233.931z M370.756,282.483c-4.873,0-8.828-3.955-8.828-8.828v-70.621c0-4.873,3.955-8.828,8.828-8.828h19.862
			c15.819,0,28.69,12.871,28.69,28.69s-12.871,28.69-28.69,28.69h-11.034v22.069C379.584,278.528,375.629,282.483,370.756,282.483
			L370.756,282.483z"/>
	</g>
</g>
<g>
</g>
<g>
</g>
<g>
</g>
<g>
</g>
<g>
</g>
<g>
</g>
<g>
</g>
<g>
</g>
<g>
</g>
<g>
</g>
<g>
</g>
<g>
</g>
<g>
</g>
<g>
</g>
<g>
</g>
</svg>
