<?xml version="1.0" encoding="iso-8859-1"?>
<!-- Generator: Adobe Illustrator 19.0.0, SVG Export Plug-In . SVG Version: 6.00 Build 0)  -->
<svg version="1.1" id="Capa_1" xmlns="http://www.w3.org/2000/svg" xmlns:xlink="http://www.w3.org/1999/xlink" x="0px" y="0px"
	 viewBox="0 0 512.01 512.01" style="enable-background:new 0 0 512.01 512.01;" xml:space="preserve">
<polygon style="fill:#D0CFD2;" points="450.206,512.005 239,512.005 239,30.005 91.795,30.005 91.795,256.005 61.795,256.005 
	61.795,0.005 269,0.005 269,482.005 420.206,482.005 420.206,256.005 450.206,256.005 "/>
<circle style="fill:#FFFFFF;" cx="252.48" cy="172.675" r="36.33"/>
<path style="fill:#FFDB2D;" d="M347.161,173.192c0-52.004-42.157-94.161-94.161-94.161s-94.162,42.158-94.162,94.161
	c0,40.264,25.274,74.618,60.821,88.081v159.091h100.529v-32.583H286.34v-27.515h33.848v-32.583H286.34v-66.409
	C321.887,247.81,347.161,213.455,347.161,173.192z M276.17,173.192c0,13.085-10.608,23.693-23.693,23.693
	c-13.086,0-23.693-10.608-23.693-23.693c0-13.085,10.608-23.693,23.693-23.693C265.563,149.499,276.17,160.106,276.17,173.192z"/>
<path style="fill:#FFB22D;" d="M286.341,261.273v66.409h33.848v32.583h-33.848v27.515h33.848v32.583H253V196.872
	c12.843-0.279,23.17-10.77,23.17-23.68c0-12.91-10.327-23.401-23.17-23.68V79.03l0,0c52.004,0,94.161,42.158,94.161,94.161
	C347.161,213.455,321.887,247.81,286.341,261.273z"/>
<rect x="18.346" y="262.315" style="fill:#EEEEEE;" width="116.9" height="173.56"/>
<rect x="76.8" y="262.315" style="fill:#D0CFD2;" width="58.45" height="173.56"/>
<rect y="232.845" style="fill:#4BBAED;" width="153.59" height="91.49"/>
<rect x="76.8" y="232.845" style="fill:#388CB2;" width="76.8" height="91.49"/>
<rect id="SVGCleanerId_0" x="358.41" y="187.675" style="fill:#4BBAED;" width="153.59" height="91.49"/>
<rect x="358.41" y="187.675" style="fill:#388CB2;" width="76.8" height="91.49"/>
<rect x="376.76" y="76.135" style="fill:#EEEEEE;" width="116.9" height="173.56"/>
<rect x="435.21" y="76.135" style="fill:#D0CFD2;" width="58.45" height="173.56"/>
<g>
	<rect id="SVGCleanerId_0_1_" x="358.41" y="187.675" style="fill:#4BBAED;" width="153.59" height="91.49"/>
</g>
<rect x="435.21" y="187.675" style="fill:#388CB2;" width="76.8" height="91.49"/>
<g>
</g>
<g>
</g>
<g>
</g>
<g>
</g>
<g>
</g>
<g>
</g>
<g>
</g>
<g>
</g>
<g>
</g>
<g>
</g>
<g>
</g>
<g>
</g>
<g>
</g>
<g>
</g>
<g>
</g>
</svg>
