<?xml version="1.0" encoding="iso-8859-1"?>
<!-- Generator: Adobe Illustrator 19.0.0, SVG Export Plug-In . SVG Version: 6.00 Build 0)  -->
<svg version="1.1" id="Capa_1" xmlns="http://www.w3.org/2000/svg" xmlns:xlink="http://www.w3.org/1999/xlink" x="0px" y="0px"
	 viewBox="0 0 507.664 507.664" style="enable-background:new 0 0 507.664 507.664;" xml:space="preserve">
<g>
	<ellipse style="fill:#285680;" cx="253.832" cy="60.746" rx="216.949" ry="60.746"/>
	<path style="fill:#90BAE1;" d="M439.801,187.444c-1.21,0.649-2.455,1.229-3.732,1.736c-2.603,1.128-5.38,2.256-8.331,3.384
		c2.864-1.215,5.641-2.343,8.331-3.471C437.371,188.572,438.586,187.965,439.801,187.444z"/>
	<g>
		<path style="fill:#285680;" d="M476.073,205.414c0,34.403-99.475,62.227-222.241,62.227S31.591,239.817,31.591,205.414
			c0-9.601,7.645-18.58,21.335-26.669c35.647-21.068,112.187-35.558,200.905-35.558s165.258,14.49,200.905,35.558
			C468.428,186.834,476.073,195.813,476.073,205.414z"/>
		<path style="fill:#285680;" d="M476.075,356.578c0,34.365-99.449,62.221-222.243,62.221S31.589,390.942,31.589,356.578
			c-0.018-1.526,0.187-3.046,0.607-4.513c3.74-9.834,11.186-17.81,20.74-22.216c35.666-21.087,112.206-35.58,200.895-35.58
			s165.228,14.492,200.895,35.58c9.554,4.406,17.001,12.381,20.74,22.216C475.888,353.532,476.092,355.052,476.075,356.578z"/>
	</g>
	<g>
		<path style="fill:#90BAE1;" d="M470.781,60.746v95.458c0,9.372-7.463,18.137-20.827,26.034c-3.274,1.944-6.664,3.683-10.153,5.207
			c-1.215,0.521-2.43,1.128-3.732,1.649c-2.69,1.128-5.467,2.256-8.331,3.471c-10.565,3.833-21.344,7.049-32.282,9.633
			c-2.951,0.694-5.901,1.388-8.938,2.083h-0.174c-3.905,0.868-7.897,1.649-12.062,2.43c-2.951,0.607-5.988,1.128-9.112,1.649
			c-5.38,0.868-10.934,1.736-16.575,2.517c-31.416,4.142-63.075,6.172-94.763,6.075c-31.688,0.097-63.347-1.932-94.763-6.075
			c-5.641-0.781-11.195-1.649-16.575-2.517c-3.124-0.521-6.161-1.041-9.112-1.649h-0.174c-4.079-0.781-7.984-1.562-11.889-2.43
			c-3.124-0.607-6.161-1.302-9.112-2.083c-10.917-2.554-21.669-5.771-32.195-9.633c-2.864-1.128-5.727-2.343-8.418-3.471
			c-1.302-0.521-2.517-1.128-3.732-1.649c-3.489-1.524-6.88-3.263-10.153-5.207c-13.364-7.897-20.827-16.748-20.827-26.034V60.746
			c0,33.584,97.106,60.746,216.949,60.746S470.781,94.329,470.781,60.746z"/>
		<path style="fill:#90BAE1;" d="M476.073,205.414v97.786c0,9.6-7.645,18.579-21.335,26.669c-3.353,1.991-6.827,3.772-10.401,5.334
			c-1.245,0.533-2.489,1.156-3.822,1.689c-2.756,1.156-5.6,2.311-8.534,3.556c-10.823,3.927-21.864,7.221-33.069,9.867
			c-3.023,0.712-6.045,1.422-9.157,2.133h-0.177c-4.001,0.889-8.09,1.689-12.357,2.489c-3.023,0.622-6.134,1.156-9.334,1.689
			c-5.512,0.889-11.201,1.778-16.979,2.578c-32.183,4.244-64.614,6.323-97.075,6.223c-32.461,0.1-64.892-1.979-97.075-6.223
			c-5.778-0.8-11.468-1.689-16.979-2.578c-3.2-0.533-6.311-1.067-9.334-1.689h-0.178c-4.178-0.8-8.178-1.6-12.179-2.489
			c-3.2-0.622-6.311-1.333-9.334-2.133c-11.184-2.617-22.198-5.912-32.981-9.867c-2.933-1.156-5.867-2.4-8.623-3.556
			c-1.334-0.533-2.578-1.156-3.822-1.689c-3.574-1.561-7.047-3.342-10.401-5.334c-13.691-8.09-21.336-17.157-21.336-26.669v-97.786
			c0,34.403,99.475,62.227,222.241,62.227S476.073,239.817,476.073,205.414z"/>
		<path style="fill:#90BAE1;" d="M476.075,356.578v88.862c0,9.633-7.637,18.571-21.348,26.641c-3.359,2.002-6.837,3.799-10.414,5.38
			c-1.215,0.521-2.43,1.128-3.818,1.649c-2.777,1.128-5.554,2.343-8.504,3.558c-10.825,3.921-21.864,7.223-33.063,9.893
			c-3.037,0.694-6.075,1.388-9.199,2.083h-0.174c-3.992,0.955-8.071,1.736-12.323,2.517c-3.037,0.607-6.161,1.128-9.372,1.736
			c-5.467,0.868-11.195,1.736-16.922,2.517c-32.193,4.25-64.634,6.337-97.106,6.248c-32.472,0.089-64.914-1.998-97.106-6.248
			c-5.727-0.781-11.455-1.649-16.922-2.517c-3.211-0.608-6.335-1.128-9.372-1.736h-0.174c-4.165-0.781-8.157-1.562-12.149-2.517
			c-3.211-0.607-6.335-1.302-9.372-2.083c-11.179-2.641-22.19-5.944-32.976-9.893c-2.951-1.128-5.814-2.43-8.591-3.558
			c-1.388-0.521-2.603-1.128-3.818-1.649c-3.577-1.581-7.054-3.378-10.414-5.38c-13.711-8.07-21.348-17.096-21.348-26.641v-88.862
			c-0.018-1.526,0.187-3.046,0.607-4.513c8.071,32.369,104.136,57.795,221.635,57.795s213.565-25.426,221.635-57.795
			C475.888,353.532,476.092,355.052,476.075,356.578z"/>
	</g>
	<path style="fill:#24AE5F;" d="M335.814,238.893c2.948,1.497,4.803,4.526,4.797,7.833V292.7
		c-0.315,41.554-19.334,80.754-51.778,106.72l-28.592,23.544c-3.721,3.072-9.098,3.072-12.819,0l-28.592-23.544
		c-32.444-25.965-51.464-65.166-51.778-106.72v-45.974c-0.006-3.307,1.849-6.336,4.797-7.833l74.221-37.45
		c4.881-2.465,10.643-2.465,15.524,0L335.814,238.893z"/>
	<circle style="fill:#FFFFFF;" cx="253.832" cy="303.729" r="52.068"/>
	<path style="fill:#24AE5F;" d="M245.154,329.763c-2.302,0.003-4.51-0.912-6.135-2.543l-8.678-8.678
		c-3.336-3.397-3.312-8.848,0.055-12.215c3.367-3.367,8.818-3.392,12.215-0.055l2.543,2.543l19.899-19.899
		c3.397-3.336,8.848-3.312,12.215,0.055c3.367,3.367,3.392,8.818,0.055,12.215l-26.034,26.034
		C249.664,328.85,247.456,329.765,245.154,329.763z"/>
</g>
<g>
</g>
<g>
</g>
<g>
</g>
<g>
</g>
<g>
</g>
<g>
</g>
<g>
</g>
<g>
</g>
<g>
</g>
<g>
</g>
<g>
</g>
<g>
</g>
<g>
</g>
<g>
</g>
<g>
</g>
</svg>
